<?xml version="1.0" standalone="no"?>
<!DOCTYPE svg PUBLIC "-//W3C//DTD SVG 1.1//EN" "http://www.w3.org/Graphics/SVG/1.1/DTD/svg11.dtd" >
<svg>
<metadata>
Created by FontForge 20090914 at Thu Nov 10 17:39:08 2016
 By www-data
Converted by ALLTYPE
</metadata>
<defs>
<font id="GillSans" horiz-adv-x="278" >
  <font-face 
    font-family="GillSans"
    font-weight="5"
    font-stretch="normal"
    units-per-em="1000"
    panose-1="0 0 0 0 0 0 0 0 0 0"
    ascent="800"
    descent="-200"
    x-height="449"
    cap-height="682"
    bbox="-162 -230.002 1041 911"
    underline-thickness="50"
    underline-position="-55"
    unicode-range="U+0020-U+F002"
  />
<missing-glyph 
 />
    <glyph glyph-name=".notdef" 
 />
    <glyph glyph-name="space" unicode=" " 
 />
    <glyph glyph-name="space" unicode="&#xa0;" 
 />
    <glyph glyph-name="exclam" unicode="!" horiz-adv-x="271" 
d="M136 111c16.667 -0.666992 30.834 -6.83301 42.501 -18.5s17.5 -25.834 17.5 -42.501s-5.83301 -30.667 -17.5 -42s-25.834 -17 -42.501 -17s-30.834 5.66699 -42.501 17s-17.5 25.333 -17.5 42s5.83301 30.834 17.5 42.501s25.834 17.5 42.501 17.5v1zM79 543.001
c0 48.667 4.66797 85.333 14.001 110s23.333 37 42 37c19.333 0 33.5 -12.333 42.5 -37s13.5 -61.667 13.5 -111c0 -22 -0.5 -42 -1.5 -60s-2.5 -33.667 -4.5 -47l-25 -171c-2.66699 -22.667 -5.83398 -39 -9.50098 -49s-8.83398 -15 -15.501 -15s-11.667 5 -15 15
s-6.66602 26 -9.99902 48l-25 173c-2 12.667 -3.5 28 -4.5 46s-1.5 38 -1.5 60v1z" />
    <glyph glyph-name="quotedbl" unicode="&#x22;" horiz-adv-x="354" 
d="M71 462l-23 137v117h88v-117l-23 -137h-42v0zM241 462l-23 137v117h88v-117l-23 -137h-42v0z" />
    <glyph glyph-name="numbersign" unicode="#" horiz-adv-x="584" 
d="M196 617h72l-41 -195h194l41 195h72l-41 -195h91v-69h-105l-36 -170h141v-69h-155l-41 -195h-72l41 195h-194l-41 -195h-72l41 195h-90v69h104l36 170h-140v69h154l41 195v0zM213 353l-36 -170h194l36 170h-194v0z" />
    <glyph glyph-name="dollar" unicode="$" horiz-adv-x="542" 
d="M470 596l0.000976562 -107.994c-12.667 12 -28.334 23.667 -47.001 35s-38 21 -58 29c-7.33301 3.33301 -14.666 6.16602 -21.999 8.49902s-14.666 4.16602 -21.999 5.49902v-197c57.333 -16 101.833 -41 133.5 -75s47.5 -73.667 47.5 -119
c0 -6.66699 -0.333008 -13.167 -1 -19.5s-2 -12.833 -4 -19.5c-8 -34 -26.5 -65.333 -55.5 -94s-69.167 -45.667 -120.5 -51v-109h-82v109c-24.667 1.33301 -48.167 5.66602 -70.5 12.999s-44.833 16.666 -67.5 27.999l-24.5 14l-25.5 14v122c11.333 -10.667 22 -20 32 -28
s19.667 -15.333 29 -22c18 -12 36.667 -22 56 -30s43 -15.333 71 -22v217c-54.667 14 -97 34.167 -127 60.5s-48.667 54.166 -56 83.499c-1.33301 4.66699 -2.33301 9.66699 -3 15s-1 10.333 -1 15c0 48.667 16.667 89.167 50 121.5s79 52.833 137 61.5v37h82v-36
c9.33301 -1.33301 19.666 -3.33301 30.999 -6s22.666 -6 33.999 -10c15.333 -5.33301 30.5 -11.833 45.5 -19.5s27.833 -15.834 38.5 -24.501v1zM321.001 262.006v-180.002c28 6 49.167 16 63.5 30s21.5 32.333 21.5 55c0 20.667 -6.33301 38.334 -19 53.001
s-34.667 28.334 -66 41.001v1zM239.001 396.004v171.001c-26 -4 -47.333 -13.667 -64 -29s-25 -33.333 -25 -54c0 -19.333 7.16699 -36.333 21.5 -51s36.833 -27.334 67.5 -38.001v1z" />
    <glyph glyph-name="percent" unicode="%" horiz-adv-x="680" 
d="M602 691l-449 -701h-75l449 701h75v0zM502 296c41.333 -0.666992 77.166 -16 107.499 -46s45.5 -66 45.5 -108s-15.167 -77.833 -45.5 -107.5s-66.166 -44.5 -107.499 -44.5c-42 0 -78 14.667 -108 44s-45 65.333 -45 108c0 42 15 78 45 108s66 45 108 45v1zM502 222
c-21.333 -0.666992 -39.833 -8.83301 -55.5 -24.5s-23.5 -34.167 -23.5 -55.5c0 -22 7.83301 -40.667 23.5 -56s34.167 -23 55.5 -23c22 0 40.667 7.66699 56 23s23 34 23 56c0 21.333 -7.66699 39.833 -23 55.5s-34 23.5 -56 23.5v1zM178 690.001
c41.333 -0.666992 77.166 -16.001 107.499 -46.001s45.5 -66 45.5 -108s-15.167 -78 -45.5 -108s-66.166 -45 -107.499 -45c-42 0 -78 14.833 -108 44.5s-45 65.834 -45 108.501c0 42 15 78 45 108s66 45 108 45v1zM178 616c-21.333 -0.666992 -39.833 -8.83301 -55.5 -24.5
s-23.5 -34.167 -23.5 -55.5c0 -22 7.83301 -40.667 23.5 -56s34.167 -23 55.5 -23c22 0 40.667 7.66699 56 23s23 34 23 56c0 21.333 -7.66699 39.833 -23 55.5s-34 23.5 -56 23.5v1z" />
    <glyph glyph-name="ampersand" unicode="&#x26;" horiz-adv-x="625" 
d="M495 339h98c-5.33301 -15.333 -12.166 -31.333 -20.499 -48s-17.833 -33.334 -28.5 -50.001c-8.66699 -14 -18.334 -28 -29.001 -42s-21.667 -27.333 -33 -40l138 -159h-126l-78 93c-42.667 -39.333 -81.5 -66.166 -116.5 -80.499s-68.167 -21.5 -99.5 -21.5
c-46.667 0 -87 15.5 -121 46.5s-51 69.167 -51 114.5c0 41.333 15 78.333 45 111s68.667 62.667 116 90c-20 21.333 -37.833 45.833 -53.5 73.5s-23.5 55.834 -23.5 84.501c0 47.333 16 85.333 48 114s74.333 43 127 43c48 0 87.333 -14.333 118 -43s46 -63.667 46 -105
c0 -20 -3.5 -39 -10.5 -57s-17.833 -35.667 -32.5 -53c-10 -12 -21.833 -23.833 -35.5 -35.5s-29.167 -23.834 -46.5 -36.501l96 -109c1.33301 0.666992 2.83301 2 4.5 4s3.5 4 5.5 6c6.66699 7.33301 13.167 15.5 19.5 24.5l18.5 27.5c5.33301 8.66699 10 17 14 25l11 22v1
zM356 161l-110.997 127.999l-43.5 -29.5c-13 -9 -24.167 -18.167 -33.5 -27.5c-14 -12 -24.5 -24.5 -31.5 -37.5s-10.5 -27.167 -10.5 -42.5c1.33301 -19.333 10.166 -36.166 26.499 -50.499s35.5 -21.5 57.5 -21.5c25.333 0 50.166 7.5 74.499 22.5
s48.166 34.167 71.499 57.5v1zM208.003 520.999c0 -4.66699 0.334961 -8.83301 1.00195 -12.5l2 -11.5c4 -14.667 10.5 -29.167 19.5 -43.5s18.833 -26.833 29.5 -37.5c2 -2 3.83301 -4 5.5 -6s3.5 -4 5.5 -6c28 17.333 48.333 32.833 61 46.5s21 27.167 25 40.5
c1.33301 4 2.16602 8 2.49902 12s0.5 8 0.5 12c0 20 -7.33301 36.667 -22 50s-33.334 20 -56.001 20c-20.667 0 -38.167 -6.16699 -52.5 -18.5s-21.5 -27.833 -21.5 -46.5v1z" />
    <glyph glyph-name="quotesingle" unicode="'" horiz-adv-x="188" 
d="M73 462l-23 137v117h88v-117l-23 -137h-42v0z" />
    <glyph glyph-name="parenleft" unicode="(" horiz-adv-x="323" 
d="M167 232c0 -91.333 11.833 -175.001 35.5 -251.001s59.834 -146.333 108.501 -211h-53c-52 52 -94.833 113 -128.5 183s-54.5 142.333 -62.5 217l-2 30.5c-0.666992 10.333 -1 20.5 -1 30.5s0.333008 20.167 1 30.5l2 30.5c8 74.667 28.833 147.167 62.5 217.5
s76.5 131.5 128.5 183.5l53 1c-48.667 -65.333 -84.834 -136.166 -108.501 -212.499s-35.5 -159.833 -35.5 -250.5v1z" />
    <glyph glyph-name="parenright" unicode=")" horiz-adv-x="323" 
d="M156 232c0 90 -11.833 173.167 -35.5 249.5s-59.834 146.833 -108.501 211.5l53 1c52 -52.667 94.833 -114.167 128.5 -184.5s54.5 -142.833 62.5 -217.5l2 -30.5c0.666992 -10.333 1 -20.5 1 -30.5s-0.333008 -20.167 -1 -30.5l-2 -30.5
c-8 -74.667 -28.833 -147 -62.5 -217s-76.5 -131 -128.5 -183h-53c48.667 64.667 84.834 135 108.501 211s35.5 159.333 35.5 250v1z" />
    <glyph glyph-name="asterisk" unicode="*" horiz-adv-x="417" 
d="M177 513l-127.999 44.0039c-0.666992 -0.666992 -1.5 -0.833984 -2.5 -0.500977s-1.83301 0.833008 -2.5 1.5c-8 3.33301 -15.5 8.33301 -22.5 15s-10.5 14.667 -10.5 24c0 2.66699 0.5 5.5 1.5 8.5s2.16699 5.83301 3.5 8.5c3.33301 6 7.5 10.333 12.5 13
s10.167 4 15.5 4c1.33301 0 2.83301 -0.166992 4.5 -0.5s3.5 -0.5 5.5 -0.5c4.66699 -1.33301 9.5 -3.5 14.5 -6.5s9.5 -6.5 13.5 -10.5l100 -86c1.33301 0.666992 2.66602 1.5 3.99902 2.5s3 1.83301 5 2.5c2 1.33301 4 2.5 6 3.5s3.66699 1.5 5 1.5l-25 131
c-0.666992 2 -1.16699 4.16699 -1.5 6.5s-0.5 4.83301 -0.5 7.5v1.5v1.5c0.666992 10 3.66699 19.167 9 27.5s14 12.5 26 12.5c12.667 0 21.5 -4.16699 26.5 -12.5s7.5 -17.833 7.5 -28.5c0 -2.66699 -0.166992 -5.5 -0.5 -8.5s-0.833008 -5.83301 -1.5 -8.5l-25 -129
c4 -1.33301 7.66699 -3 11 -5s6.33301 -4.66699 9 -8l100 88c4 3.33301 8.83301 6.5 14.5 9.5s11.5 4.83301 17.5 5.5c1.33301 0.666992 2.5 1 3.5 1h3.5c5.33301 0 10.333 -1.33301 15 -4s8.66699 -7 12 -13c2 -2.66699 3.33301 -5.5 4 -8.5s1 -6.16699 1 -9.5
c0 -8.66699 -3.83301 -16.167 -11.5 -22.5s-15.834 -11.5 -24.501 -15.5c-0.666992 0 -1.16699 -0.166992 -1.5 -0.5s-0.833008 -0.5 -1.5 -0.5l-125 -42c0.666992 -2 1 -3.83301 1 -5.5v-4.5v-6.5c0 -2.33301 -0.333008 -4.83301 -1 -7.5l125 -42
c0.666992 -0.666992 1.5 -1.16699 2.5 -1.5s1.83301 -0.833008 2.5 -1.5c8 -3.33301 15.5 -8.33301 22.5 -15s10.5 -14.667 10.5 -24c0 -2.66699 -0.5 -5.33398 -1.5 -8.00098l-3.5 -9c-3.33301 -6 -7.33301 -10.167 -12 -12.5s-9.66699 -3.5 -15 -3.5
c-2 0 -4.16699 0.166992 -6.5 0.5s-4.5 0.833008 -6.5 1.5c-4.66699 1.33301 -9.16699 3.33301 -13.5 6s-8.5 5.66699 -12.5 9l-100 88c-2 -2 -3.83301 -3.5 -5.5 -4.5s-3.16699 -1.83301 -4.5 -2.5s-2.83301 -1.33398 -4.5 -2.00098s-3.5 -1.33398 -5.5 -2.00098l25 -130
c0.666992 -3.33301 1.16699 -6.16602 1.5 -8.49902s0.5 -4.83301 0.5 -7.5c-0.666992 -10.667 -3.33398 -20.334 -8.00098 -29.001s-13.667 -13.334 -27 -14.001c-12.667 0.666992 -21.5 5 -26.5 13s-7.5 17.333 -7.5 28c0 2.66699 0.166992 5.5 0.5 8.5
s0.833008 5.83301 1.5 8.5l25 132c-3.33301 0.666992 -6.66602 2 -9.99902 4s-6.33301 4.33301 -9 7l-101 -87c-3.33301 -4 -7.33301 -7.16699 -12 -9.5s-9.66699 -4.16602 -15 -5.49902c-1.33301 -0.666992 -3 -1.16699 -5 -1.5s-4 -0.5 -6 -0.5
c-5.33301 0 -10.5 1.16699 -15.5 3.5s-9.16699 6.5 -12.5 12.5c-2 3.33301 -3.33301 6.5 -4 9.5s-1 5.83301 -1 8.5c0 8.66699 3.83301 16.167 11.5 22.5s15.834 11.5 24.501 15.5c0.666992 0 1.16699 0.166992 1.5 0.5s0.833008 0.5 1.5 0.5l127 45l-0.5 1.5
c-0.333008 1 -0.5 1.83301 -0.5 2.5c-0.666992 0.666992 -1 1.5 -1 2.5v2.5c0 1.33301 0.333008 3 1 5l2 6v1z" />
    <glyph glyph-name="plus" unicode="+" horiz-adv-x="584" 
d="M251 589h82v-195h195v-82h-195v-195h-82v195h-195v82h195v195v0z" />
    <glyph glyph-name="comma" unicode="," horiz-adv-x="219" 
d="M59 -118l-0.00195312 19.001c10.667 7.33301 19.167 17.166 25.5 29.499s10.5 25.166 12.5 38.499c0 2.66699 0.166992 5.5 0.5 8.5s0.5 5.83301 0.5 8.5c0 4 -0.166992 7.83301 -0.5 11.5s-1.16602 7.5 -2.49902 11.5c-14.667 0.666992 -26.5 6 -35.5 16
s-13.5 23.333 -13.5 40s5.66699 30.334 17 41.001s25.333 16 42 16c21.333 0 38.5 -8.83301 51.5 -26.5s19.5 -41.167 19.5 -70.5c0 -4.66699 -0.166992 -9.16699 -0.5 -13.5s-1.16602 -8.5 -2.49902 -12.5c-4.66699 -24.667 -16.5 -48 -35.5 -70s-45.167 -37.667 -78.5 -47
v0z" />
    <glyph glyph-name="hyphen" unicode="-" horiz-adv-x="323" 
d="M283 267v-93h-243v93h243v0z" />
    <glyph glyph-name="period" unicode="." horiz-adv-x="219" 
d="M109 111c16.667 -0.666992 30.834 -6.83301 42.501 -18.5s17.5 -25.834 17.5 -42.501s-5.83301 -30.667 -17.5 -42s-25.834 -17 -42.501 -17s-30.834 5.66699 -42.501 17s-17.5 25.333 -17.5 42s5.83301 30.834 17.5 42.501s25.834 17.5 42.501 17.5v1z" />
    <glyph glyph-name="slash" unicode="/" horiz-adv-x="281" 
d="M8 -9l196 700h70l-196 -700h-70v0z" />
    <glyph glyph-name="zero" unicode="0" horiz-adv-x="500" 
d="M470 341c0 -105.333 -20.167 -190 -60.5 -254s-93.5 -96 -159.5 -96s-119.167 32 -159.5 96s-60.5 148.333 -60.5 253c0 105.333 20.167 190 60.5 254s93.5 96 159.5 96s119.167 -32 159.5 -96s60.5 -148.667 60.5 -254v1zM372 341c0 79.333 -10.833 141.833 -32.5 187.5
s-51.5 68.5 -89.5 68.5s-67.833 -22.833 -89.5 -68.5s-32.5 -108.5 -32.5 -188.5s10.833 -142.833 32.5 -188.5s51.5 -68.5 89.5 -68.5s67.833 22.833 89.5 68.5s32.5 108.5 32.5 188.5v1z" />
    <glyph glyph-name="one" unicode="1" horiz-adv-x="500" 
d="M300 682v-682h-98v682h98v0z" />
    <glyph glyph-name="two" unicode="2" horiz-adv-x="500" 
d="M466 93l-0.000976562 -93h-432v7l46.5 55l49.5 61l23 30l23 30c18 23.333 35.167 46.666 51.5 69.999s30.833 45.666 43.5 66.999l20 36.5c6 11 11 21.833 15 32.5c4 12 7.16699 24.167 9.5 36.5s3.5 25.833 3.5 40.5c0 37.333 -11.167 68 -33.5 92
s-50.166 36 -83.499 36c-24.667 0 -49.667 -6.5 -75 -19.5s-51.666 -37.167 -78.999 -72.5v124c14 10.667 27.667 20 41 28s26.666 14.667 39.999 20c12.667 5.33301 25.667 9.33301 39 12s27 4 41 4c61.333 0 111.333 -19.667 150 -59s58 -90.666 58 -153.999
c0 -9.33301 -0.5 -18.666 -1.5 -27.999s-2.16699 -18.666 -3.5 -27.999c-9.33301 -44.667 -30.333 -91.834 -63 -141.501s-80.667 -112.167 -144 -187.5l261 1v0z" />
    <glyph glyph-name="three" unicode="3" horiz-adv-x="500" 
d="M81 569l-0.00292969 93.001c2.66699 0.666992 5.5 1.66699 8.5 3s5.83301 2.66602 8.5 3.99902c18 7.33301 36 12.666 54 15.999s38 5 60 5c61.333 0 110.166 -16.167 146.499 -48.5s54.5 -75.5 54.5 -129.5c0 -38 -6.66699 -68.667 -20 -92
s-35.666 -43.666 -66.999 -60.999c33.333 -10 57.833 -30.167 73.5 -60.5s23.834 -62.833 24.501 -97.5v-2v-2c0 -60.667 -20 -110.167 -60 -148.5s-91.667 -57.5 -155 -57.5c-23.333 0 -47.166 3.16699 -71.499 9.5s-48.833 15.833 -73.5 28.5v107
c26 -18 51.667 -31.333 77 -40s50.333 -13 75 -13c33.333 0 60 10 80 30s30 46.333 30 79c0 32 -11.167 59.167 -33.5 81.5s-55.833 33.166 -100.5 32.499h-6h-6v91c45.333 -0.666992 79.166 7.83301 101.499 25.5s33.5 41.834 33.5 72.501
c0 31.333 -10.667 56.166 -32 74.499s-50 27.5 -86 27.5c-4.66699 0 -9.16699 -0.166992 -13.5 -0.5s-8.83301 -0.833008 -13.5 -1.5c-13.333 -1.33301 -27.166 -4.16602 -41.499 -8.49902s-30.166 -10.5 -47.499 -18.5v1z" />
    <glyph glyph-name="four" unicode="4" horiz-adv-x="500" 
d="M398 691v-379h73v-88h-73v-224h-98v224h-289v45l345 422h42v0zM298 506l-156 -194h158v194h-2v0z" />
    <glyph glyph-name="five" unicode="5" horiz-adv-x="500" 
d="M404 682l0.00292969 -87.999h-214v-171c2 -0.666992 3.83301 -1 5.5 -1s3.16699 0.333008 4.5 1h5.5h4.5c71.333 -0.666992 127.166 -21.667 167.499 -63s60.5 -92 60.5 -152c0 -62.667 -21 -114.5 -63 -155.5s-95.333 -61.5 -160 -61.5
c-14.667 0 -28.834 0.833008 -42.501 2.5s-26.834 3.83398 -39.501 6.50098c-13.333 3.33301 -26.833 7.66602 -40.5 12.999s-27.834 11.666 -42.501 18.999v102c24.667 -17.333 49.5 -30.166 74.5 -38.499s49.833 -12.5 74.5 -12.5c38.667 0 71.834 12.167 99.501 36.5
s41.5 53.166 41.5 86.499c0 35.333 -14.167 65.833 -42.5 91.5s-68.5 38.5 -120.5 38.5c-11.333 0 -23.333 -0.833008 -36 -2.5s-26 -4.16699 -40 -7.5v356h303v0z" />
    <glyph glyph-name="six" unicode="6" horiz-adv-x="500" 
d="M317 691l58.998 -75.001c-44 -26 -84.167 -59.333 -120.5 -100s-63.166 -83 -80.499 -127l-4 -12l-4 -12c13.333 7.33301 28.833 13.833 46.5 19.5s37.834 8.5 60.501 8.5c54.667 0 100.167 -19 136.5 -57s54.5 -85.333 54.5 -142c0 -55.333 -19.833 -103 -59.5 -143
s-86.834 -60 -141.501 -60c-65.333 0 -118.333 22.167 -159 66.5s-61 102.5 -61 174.5c0 85.333 23.333 168.333 70 249s114.334 150.334 203.001 209.001v1zM145.998 264.999c-2 -9.33301 -3.49902 -17.999 -4.49902 -25.999s-1.5 -15.667 -1.5 -23
c0.666992 -41.333 13 -73.833 37 -97.5s51 -35.5 81 -35.5c32.667 0 59 10.333 79 31s30 47.667 30 81c0 30 -10.667 55 -32 75s-48.333 30 -81 30c-10 0 -19.167 -0.5 -27.5 -1.5s-16.5 -2.83301 -24.5 -5.5c-8.66699 -2.66699 -17.334 -6.33398 -26.001 -11.001
s-18.667 -10.667 -30 -18v1z" />
    <glyph glyph-name="seven" unicode="7" horiz-adv-x="500" 
d="M490 682l-309 -691l-87 38l250 560h-295v93h441v0z" />
    <glyph glyph-name="eight" unicode="8" horiz-adv-x="500" 
d="M468 184c0 -55.333 -20.668 -101.331 -62.001 -137.998s-92.666 -55 -153.999 -55c-62 0 -114.167 18.5 -156.5 55.5s-63.5 82.833 -63.5 137.5c0 36 8 67.5 24 94.5s40.333 49.833 73 68.5c-25.333 18.667 -45.166 40.667 -59.499 66s-21.5 52.333 -21.5 81
c0 56 20 102.667 60 140s89.667 56 149 56c57.333 0 105.166 -18.833 143.499 -56.5s57.5 -84.834 57.5 -141.501c0 -5.33301 -0.333008 -10.833 -1 -16.5s-1.66699 -11.5 -3 -17.5c-4.66699 -20 -13.667 -39.833 -27 -59.5s-31.333 -36.834 -54 -51.501
c31.333 -16.667 55 -39.5 71 -68.5s24 -60.833 24 -95.5v1zM369.999 192.002c0 30.667 -11 56.165 -33 76.498s-50.333 30.5 -85 30.5c-36.667 0 -66.167 -10 -88.5 -30s-33.5 -46 -33.5 -78c0 -31.333 11.333 -57.166 34 -77.499s51.334 -30.5 86.001 -30.5
c39.333 0 69.166 10.833 89.499 32.5s30.5 46.834 30.5 75.501v1zM359.999 495c0 28.667 -9.83203 52.834 -29.499 72.501s-44.834 29.5 -75.501 29.5c-32.667 0 -59 -9.16699 -79 -27.5s-30 -42.833 -30 -73.5c0 -28 10.667 -52.333 32 -73s46.333 -31 75 -31
c29.333 0 54.5 10.167 75.5 30.5s31.5 44.166 31.5 71.499v1z" />
    <glyph glyph-name="nine" unicode="9" horiz-adv-x="500" 
d="M187 -9l-60.0029 71.9971c39.333 25.333 73.833 52.833 103.5 82.5s53.5 59.834 71.5 90.501c8 14 14.833 27.833 20.5 41.5s9.83398 27.167 12.501 40.5c-10.667 -6.66699 -22.5 -12.167 -35.5 -16.5s-25.833 -7.5 -38.5 -9.5
c-5.33301 -1.33301 -10.666 -2.16602 -15.999 -2.49902s-10.666 -0.5 -15.999 -0.5c-54 0 -99.667 19.333 -137 58s-56 85.667 -56 141c0 50.667 19 97 57 139s88.333 63 151 63c63.333 0 115.333 -23.667 156 -71s61 -106.666 61 -177.999
c0 -16.667 -1.16699 -33.667 -3.5 -51s-5.83301 -34.666 -10.5 -51.999c-17.333 -67.333 -49 -132.333 -95 -195s-101 -113.334 -165 -152.001v0zM133.997 489.997c0 -30 11.332 -55.501 33.999 -76.501s50 -31.5 82 -31.5c12 0 25.5 2 40.5 6s30.167 10.333 45.5 19
c3.33301 2 6.5 4 9.5 6s6.16699 4 9.5 6c2 9.33301 3.33301 17.333 4 24s1 13.334 1 20.001v5v6c0 33.333 -11.167 62.166 -33.5 86.499s-49.166 36.5 -80.499 36.5c-32.667 0 -59.5 -10.167 -80.5 -30.5s-31.5 -46.166 -31.5 -77.499v1z" />
    <glyph glyph-name="colon" unicode=":" horiz-adv-x="219" 
d="M109 111c16.667 -0.666992 30.834 -6.83301 42.501 -18.5s17.5 -25.834 17.5 -42.501s-5.83301 -30.667 -17.5 -42s-25.834 -17 -42.501 -17s-30.834 5.66699 -42.501 17s-17.5 25.333 -17.5 42s5.83301 30.834 17.5 42.501s25.834 17.5 42.501 17.5v1zM109 458.001
c16.667 -0.666992 30.834 -6.83301 42.501 -18.5s17.5 -25.834 17.5 -42.501s-5.83301 -30.834 -17.5 -42.501s-25.834 -17.5 -42.501 -17.5s-30.834 5.83301 -42.501 17.5s-17.5 25.834 -17.5 42.501s5.83301 30.834 17.5 42.501s25.834 17.5 42.501 17.5v1z" />
    <glyph glyph-name="semicolon" unicode=";" horiz-adv-x="219" 
d="M61 -115l-0.000976562 19c4.66699 4 9 8 13 12s7.33301 8.33301 10 13c7.33301 10 12.166 20.167 14.499 30.5s3.5 21.166 3.5 32.499v4.5v3.5c-0.666992 1.33301 -1 2.83301 -1 4.5v5.5c-16 2 -28.833 8.33301 -38.5 19s-14.5 24 -14.5 40
c0 20 5.83301 35.167 17.5 45.5s25.834 15.5 42.501 15.5c20.667 0 37 -9.16699 49 -27.5s18 -40.166 18 -65.499c0 -36.667 -9.66699 -68.5 -29 -95.5s-47.666 -45.833 -84.999 -56.5v0zM168.999 398c0 -17.333 -5.83301 -31.834 -17.5 -43.501
s-25.834 -17.5 -42.501 -17.5s-30.834 5.83301 -42.501 17.5s-17.5 25.834 -17.5 42.501s5.83301 30.834 17.5 42.501s25.834 17.5 42.501 17.5s30.834 -5.83301 42.501 -17.5s17.5 -25.834 17.5 -42.501v1z" />
    <glyph glyph-name="less" unicode="&#x3c;" horiz-adv-x="584" 
d="M55 313v82l474 202v-87l-376 -156l376 -156v-87l-474 202v0z" />
    <glyph glyph-name="equal" unicode="=" horiz-adv-x="584" 
d="M56 285h472v-82h-472v82v0zM56 503h472v-82h-472v82v0z" />
    <glyph glyph-name="greater" unicode="&#x3e;" horiz-adv-x="584" 
d="M529 313l-474 -202v87l376 156l-376 156v87l474 -202v-82v0z" />
    <glyph glyph-name="question" unicode="?" horiz-adv-x="333" 
d="M154 111c16.667 -0.666992 30.834 -6.83301 42.501 -18.5s17.5 -25.834 17.5 -42.501s-5.83301 -30.667 -17.5 -42s-25.834 -17 -42.501 -17s-30.834 5.66699 -42.501 17s-17.5 25.333 -17.5 42s5.83301 30.834 17.5 42.501s25.834 17.5 42.501 17.5v1zM82 595.001
l47 95.998c47.333 0 83.333 -11.333 108 -34s40.667 -47.334 48 -74.001c2 -6.66699 3.33301 -13.167 4 -19.5s1 -12.5 1 -18.5c0 -36 -7.83301 -70.333 -23.5 -103s-33.167 -63.667 -52.5 -93l-52 -84.5c-16 -27 -24 -53.167 -24 -78.5v-6c0 -2 0.333008 -4 1 -6
c-20.667 10.667 -35.667 23 -45 37s-14 32.333 -14 55c0 26.667 5.83301 51.334 17.5 74.001s24.5 44.334 38.5 65.001c4 5.33301 7.66699 10.833 11 16.5s7 11.167 11 16.5c9.33301 15.333 17.333 30.833 24 46.5s10 31.834 10 48.501c0 20 -6 36.167 -18 48.5
s-28 18.5 -48 18.5c-6.66699 0 -12.667 -0.333008 -18 -1s-10 -1.66699 -14 -3c-2 0 -4 -0.166992 -6 -0.5s-4 -0.833008 -6 -1.5v1z" />
    <glyph glyph-name="at" unicode="@" horiz-adv-x="1010" 
d="M891 9l90 -0.000976562c-43.333 -71.333 -101 -125.666 -173 -162.999s-158.667 -56 -260 -56c-153.333 0 -274 38.833 -362 116.5s-132 184.834 -132 321.501c0 22.667 1.5 45.834 4.5 69.501s7.83301 47.834 14.5 72.501c23.333 89.333 71.833 171.333 145.5 246
s179.834 112 318.501 112c121.333 0 221.5 -35.833 300.5 -107.5s118.5 -162.834 118.5 -273.501c0 -88.667 -30 -169 -90 -241s-127.333 -108 -202 -108c-32 0 -56.167 6.66699 -72.5 20s-24.5 33.666 -24.5 60.999c-14 -16.667 -29.167 -30.834 -45.5 -42.501
s-32.833 -20.834 -49.5 -27.501c-8.66699 -3.33301 -17.5 -5.83301 -26.5 -7.5s-17.833 -2.5 -26.5 -2.5c-51.333 0 -94 20.667 -128 62s-51 94 -51 158c0 78 26.333 149 79 213s111 96 175 96c30 0 57.667 -7.66699 83 -23s46.666 -37.666 63.999 -66.999l17 77h88
l-82 -377c-0.666992 -4.66699 -1.33398 -8.83398 -2.00098 -12.501s-1 -7.16699 -1 -10.5c0.666992 -12 3.83398 -21.333 9.50098 -28s14.167 -10 25.5 -10c8.66699 0 21.167 4 37.5 12s33.5 20 51.5 36c24 22 46.333 51.5 67 88.5s31 81.833 31 134.5
c0 88.667 -33.167 162.334 -99.5 221.001s-149.833 88 -250.5 88c-116.667 0 -213.5 -39.833 -290.5 -119.5s-115.5 -180.167 -115.5 -301.5c0 -118.667 37 -210.667 111 -276s177.667 -98 311 -98c83.333 0 153.833 14 211.5 42s101.167 62.667 130.5 104v1zM331 212.999
c0 -43.333 10.001 -78 30.001 -104s46 -39 78 -39c43.333 0 83.166 25.5 119.499 76.5s54.5 107.167 54.5 168.5c0 43.333 -10.167 77.833 -30.5 103.5s-47.833 38.5 -82.5 38.5c-42.667 0 -81.5 -25.167 -116.5 -75.5s-52.5 -106.833 -52.5 -169.5v1z" />
    <glyph glyph-name="A" unicode="A" horiz-adv-x="667" 
d="M362 686l305 -686h-100l-91 201h-290l-86 -201h-100l293 686h69v0zM326 536l-102 -247h212l-110 247v0z" />
    <glyph glyph-name="B" unicode="B" horiz-adv-x="563" 
d="M75 0v681.999h198c72 -0.666992 124.667 -18.5 158 -53.5s50.666 -73.5 51.999 -115.5v-3.5v-2.5c0 -35.333 -8.5 -64.833 -25.5 -88.5s-43.167 -42.834 -78.5 -57.501v-1c51.333 -10 91.5 -30.833 120.5 -62.5s43.5 -70.5 43.5 -116.5
c0 -5.33301 -0.166992 -10.666 -0.5 -15.999s-1.16602 -10.666 -2.49902 -15.999c-7.33301 -37.333 -29 -71.5 -65 -102.5s-91.333 -46.5 -166 -46.5h-234v0zM173 301.999v-213.998h123c52 -0.666992 88.5 8.66602 109.5 27.999s32.833 40.666 35.5 63.999
c0.666992 2.66699 1 5.16699 1 7.5v7.5c0 31.333 -12.333 56.833 -37 76.5s-62.667 29.5 -114 29.5l-118 1v0zM173 594.001l-0.000976562 -204h65c48.667 -0.666992 84.834 8 108.501 26s35.5 45.333 35.5 82c0 25.333 -8.5 47.5 -25.5 66.5s-48.167 28.5 -93.5 28.5l-90 1
v0z" />
    <glyph glyph-name="C" unicode="C" horiz-adv-x="708" 
d="M656 635l-0.000976562 -105c-26.667 14.667 -52.167 27.167 -76.5 37.5s-48.833 18.166 -73.5 23.499c-14 2.66699 -28 4.83398 -42 6.50098s-28.333 2.5 -43 2.5c-78 0 -142.833 -24.667 -194.5 -74s-77.5 -111.666 -77.5 -186.999c0 -76.667 25.5 -139 76.5 -187
s117.5 -72 199.5 -72c19.333 0 39 1.66699 59 5s40 8.33301 60 15s40 14.667 60 24s39.667 20.333 59 33v-106c-33.333 -18 -69.5 -32.5 -108.5 -43.5s-85.167 -16.5 -138.5 -16.5c-100.667 0 -179.667 25.167 -237 75.5s-95.666 105.833 -114.999 166.5
c-5.33301 16.667 -9.33301 33.167 -12 49.5s-4 32.166 -4 47.499c0 104 35.167 190 105.5 258s159.833 102 268.5 102c35.333 0 71.5 -4.5 108.5 -13.5s78.833 -23.167 125.5 -42.5v1z" />
    <glyph glyph-name="D" unicode="D" horiz-adv-x="750" 
d="M76 0v682h265c114 -0.666992 200 -31.667 258 -93s92 -129 102 -203l2 -22.5c0.666992 -7.66699 1 -15.5 1 -23.5c0 -87.333 -32.167 -165.833 -96.5 -235.5s-152.833 -104.5 -265.5 -104.5h-266v0zM174 594v-505.998h156c74 -0.666992 130.5 14.666 169.5 45.999
s66.167 65.666 81.5 102.999c8 18.667 13.667 37 17 55s5 34 5 48c0 68.667 -22.5 128 -67.5 178s-115.167 75 -210.5 75l-151 1v0z" />
    <glyph glyph-name="E" unicode="E" horiz-adv-x="500" 
d="M462 682v-88h-289v-206h279v-88h-279v-212h298v-88h-396v682h387v0z" />
    <glyph glyph-name="F" unicode="F" horiz-adv-x="469" 
d="M440 682v-88h-266v-189h266v-88h-266v-317h-98v682h364v0z" />
    <glyph glyph-name="G" unicode="G" horiz-adv-x="740" 
d="M673 336l0.00390625 -289c-20.667 -9.33301 -40.334 -17.333 -59.001 -24s-37.334 -12.334 -56.001 -17.001c-23.333 -4.66699 -46.833 -8.33398 -70.5 -11.001s-48.5 -4 -74.5 -4c-104.667 0 -191.334 32.5 -260.001 97.5s-103 147.5 -103 247.5
c0 100.667 35 184.834 105 252.501s157 101.5 261 101.5c12.667 0 25 -0.333008 37 -1s23.667 -2 35 -4c24.667 -3.33301 50.167 -9.16602 76.5 -17.499s57.833 -20.166 94.5 -35.499v-98c-30 16 -60.333 29.167 -91 39.5s-61.334 17.833 -92.001 22.5
c-10.667 1.33301 -21.167 2.33301 -31.5 3s-20.5 1 -30.5 1c-74 0 -136.333 -25 -187 -75s-76 -112 -76 -186c0 -76 25.833 -138.167 77.5 -186.5s117.834 -72.5 198.501 -72.5c26.667 0 52.167 2.66699 76.5 8s48.166 11.666 71.499 18.999v141h-131v88h229v0z" />
    <glyph glyph-name="H" unicode="H" horiz-adv-x="729" 
d="M653 682v-682h-98v297h-382v-297h-98v682h98v-297h382v297h98v0z" />
    <glyph glyph-name="I" unicode="I" horiz-adv-x="250" 
d="M174 682v-682h-98v682h98v0z" />
    <glyph glyph-name="J" unicode="J" horiz-adv-x="250" 
d="M174 682v-690.001c0 -63.333 -14.167 -116.166 -42.5 -158.499s-76.5 -63.5 -144.5 -63.5c-4 0 -7.66699 0.166992 -11 0.5s-6.33301 0.5 -9 0.5c-2 0 -3.83301 0.166992 -5.5 0.5s-3.16699 0.5 -4.5 0.5l-19 91h25c52 0 83.833 13 95.5 39s17.5 65.333 17.5 118v662h98
v0z" />
    <glyph glyph-name="K" unicode="K" horiz-adv-x="656" 
d="M285 359l370 -359h-135l-347 337v-337h-98v682h98v-312l287 312h122l-297 -323v0z" />
    <glyph glyph-name="L" unicode="L" horiz-adv-x="490" 
d="M172 682v-594h308v-88h-406v682h98v0z" />
    <glyph glyph-name="M" unicode="M" horiz-adv-x="781" 
d="M709 682v-682h-98v531h-2l-210 -264h-16l-210 264h-2v-531h-98v682h92l226 -280l227 280h91v0z" />
    <glyph glyph-name="N" unicode="N" horiz-adv-x="781" 
d="M706 682v-682h-84l-456 525v-525h-92v682h78l462 -528v528h92v0z" />
    <glyph glyph-name="O" unicode="O" horiz-adv-x="823" 
d="M45 341c0 94 33.3311 175.667 99.998 245s155.334 104 266.001 104c112.667 0 202 -34.5 268 -103.5s99 -151.167 99 -246.5c0 -92 -32.667 -173.167 -98 -243.5s-155.666 -105.5 -270.999 -105.5c-111.333 0 -199.833 35 -265.5 105s-98.5 151.333 -98.5 244v1z
M145.998 341c0 -75.333 25.167 -137.667 75.5 -187s113.5 -74 189.5 -74c76.667 0 140.167 24.667 190.5 74s75.5 111.333 75.5 186c0 75.333 -25.167 137.5 -75.5 186.5s-113.833 73.5 -190.5 73.5c-76 0 -139.167 -24.5 -189.5 -73.5s-75.5 -111.167 -75.5 -186.5v1z" />
    <glyph glyph-name="P" unicode="P" horiz-adv-x="510" 
d="M70 682h213c74.667 -0.666992 129.5 -20.167 164.5 -58.5s52.5 -84.5 52.5 -138.5c0 -53.333 -18.5 -98.5 -55.5 -135.5s-95.167 -55.5 -174.5 -55.5l-102 1v-295h-98v682v0zM168 594l-0.000976562 -211h111c36.667 -0.666992 65.834 8.33301 87.501 27s32.5 45 32.5 79
v5.5v4.5c-2 23.333 -11.5 44.833 -28.5 64.5s-46.167 29.5 -87.5 29.5l-115 1v0z" />
    <glyph glyph-name="Q" unicode="Q" horiz-adv-x="823" 
d="M496 0l0.000976562 1.00293v-2c44 -18.667 81.833 -32.667 113.5 -42s60.5 -14 86.5 -14c9.33301 0 18.666 0.666992 27.999 2s18.333 3.33301 27 6l3 -3l-88 -87c-66 4.66699 -126.5 20.167 -181.5 46.5s-106.167 57.166 -153.5 92.499
c-84.667 15.333 -153.5 54.666 -206.5 117.999s-79.5 137.333 -79.5 222c0 103.333 35 187.5 105 252.5s160.333 97.5 271 97.5c102 0 187.333 -33.667 256 -101s103 -151 103 -251c0 -82.667 -26.667 -155.834 -80 -219.501s-121.333 -103.167 -204 -118.5v0z
M417.001 601.003c-75.333 -0.666992 -133.335 -19.168 -174.002 -55.501s-68 -76.166 -82 -119.499c-5.33301 -15.333 -9.16602 -30.333 -11.499 -45s-3.5 -28.667 -3.5 -42c0 -68.667 22.833 -129 68.5 -181s113.834 -78 204.501 -78c76 0 138.333 25.5 187 76.5
s73 111.167 73 180.5c0 74.667 -24.833 137.167 -74.5 187.5s-112.167 75.5 -187.5 75.5v1z" />
    <glyph glyph-name="R" unicode="R" horiz-adv-x="604" 
d="M77 682l172 0.000976562c69.333 -0.666992 124 -18 164 -52s60 -80.667 60 -140c0 -39.333 -9.83301 -73.333 -29.5 -102s-47.834 -50.334 -84.501 -65.001c19.333 -12.667 36.833 -27.667 52.5 -45s30.834 -37 45.501 -59l26.5 -40.5l27.5 -44.5l11.5 -19
c3.66699 -6 7.5 -11.667 11.5 -17c0.666992 -1.33301 1.5 -2.83301 2.5 -4.5s2.16699 -3.16699 3.5 -4.5c8 -12 17 -24.833 27 -38.5l37 -50.5h-117l-90 140c-38 58.667 -68.667 98.167 -92 118.5s-45.333 31.833 -66 34.5c-4 0.666992 -7.83301 1.16699 -11.5 1.5
s-7.5 0.5 -11.5 0.5l-41 1v-296h-98v682v0zM175 598.001l0.000976562 -213.999h63c52 -0.666992 87.333 10.166 106 32.499s28 47.5 28 75.5v0.5v0.5v0.5v0.5c-0.666992 32 -11.334 57.167 -32.001 75.5s-54.667 27.5 -102 27.5l-63 1v0z" />
    <glyph glyph-name="S" unicode="S" horiz-adv-x="458" 
d="M399 643l-0.00390625 -111c-28.667 26.667 -56.667 45 -84 55s-52.666 15 -75.999 15c-31.333 0 -57.166 -7.5 -77.499 -22.5s-30.5 -34.5 -30.5 -58.5c0 -24.667 9.16699 -45.5 27.5 -62.5s40.833 -33.167 67.5 -48.5l25.5 -14.5l27.5 -15.5
c36.667 -21.333 70.334 -47.333 101.001 -78s46 -73 46 -127c0 -53.333 -18 -97.333 -54 -132s-81.667 -52 -137 -52c-36.667 0 -70.5 5 -101.5 15s-60.833 25.667 -89.5 47v125c25.333 -32.667 53.333 -57.5 84 -74.5s62.667 -25.5 96 -25.5
c31.333 0 55.833 6.83301 73.5 20.5s29.167 28.834 34.5 45.501l2 10c0.666992 3.33301 1 6.66602 1 9.99902c0 30 -11.333 55.167 -34 75.5s-49 39.833 -79 58.5c-6 3.33301 -11.833 6.83301 -17.5 10.5l-16.5 10.5c-37.333 22.667 -71.333 48.167 -102 76.5
s-46 65.833 -46 112.5c0 55.333 18.833 99.5 56.5 132.5s87.834 49.5 150.501 49.5c26 0 51.833 -4 77.5 -12s50.5 -20 74.5 -36v1z" />
    <glyph glyph-name="T" unicode="T" horiz-adv-x="604" 
d="M587 682v-88h-236v-594h-98v594h-236v88h570v0z" />
    <glyph glyph-name="U" unicode="U" horiz-adv-x="708" 
d="M648 682l-0.000976562 -414c0 -84 -25.167 -151.167 -75.5 -201.5s-126.166 -75.5 -227.499 -75.5c-72 0 -137.333 21.167 -196 63.5s-88 109.833 -88 202.5v425h98v-403c0 -39.333 3 -68.833 9 -88.5s16.667 -37.167 32 -52.5c19.333 -19.333 41.333 -33.833 66 -43.5
s51.667 -14.5 81 -14.5c37.333 0 69.5 5.33301 96.5 16s48.167 23.667 63.5 39c17.333 17.333 28.833 38.5 34.5 63.5s8.5 53.5 8.5 85.5v398h98v0z" />
    <glyph glyph-name="V" unicode="V" horiz-adv-x="604" 
d="M604 682l-289 -688h-20l-295 688h98l205 -479l204 479h97v0z" />
    <glyph glyph-name="W" unicode="W" horiz-adv-x="1042" 
d="M1041 682l-277 -688h-19l-224 558l-226 -558h-19l-276 688h98l188 -470l189 470h93l190 -470l186 470h97v0z" />
    <glyph glyph-name="X" unicode="X" horiz-adv-x="708" 
d="M687 682l-272 -329l291 -353h-118l-232 282l-235 -282h-119l294 353l-273 329h119l214 -260l213 260h118v0z" />
    <glyph glyph-name="Y" unicode="Y" horiz-adv-x="604" 
d="M301 447l185 235h118l-253 -322v-360h-98v361l-253 321h118l183 -235v0z" />
    <glyph glyph-name="Z" unicode="Z" horiz-adv-x="646" 
d="M450 594h-407v88h588l-434 -594h434v-88h-615l434 594v0z" />
    <glyph glyph-name="bracketleft" unicode="[" horiz-adv-x="333" 
d="M319 682v-80h-137v-743h137v-80h-233v903h233v0z" />
    <glyph glyph-name="backslash" unicode="\" horiz-adv-x="281" 
d="M274 -9h-70l-196 700h70l196 -700v0z" />
    <glyph glyph-name="bracketright" unicode="]" horiz-adv-x="333" 
d="M14 -221v80h137v743h-137v80h233v-903h-233v0z" />
    <glyph glyph-name="asciicircum" unicode="^" horiz-adv-x="469" 
d="M116 291h-90l173 391h71l173 -391h-89l-120 292l-118 -292v0z" />
    <glyph glyph-name="underscore" unicode="_" horiz-adv-x="500" 
d="M-6 -75h512v-50h-512v50v0z" />
    <glyph glyph-name="grave" unicode="`" horiz-adv-x="333" 
d="M160 654l67 -147h-55l-112 147h100v0z" />
    <glyph glyph-name="a" unicode="a" horiz-adv-x="427" 
d="M411 80l-0.00195312 -54.001c-14 -10 -25.667 -17.333 -35 -22s-18.333 -8 -27 -10c-4 -1.33301 -7.83301 -2.16602 -11.5 -2.49902s-7.83398 -0.5 -12.501 -0.5c-19.333 0 -34.5 3.5 -45.5 10.5s-18.5 18.5 -22.5 34.5c-19.333 -15.333 -39.166 -26.666 -59.499 -33.999
s-40.833 -11 -61.5 -11c-32.667 0 -59.167 11 -79.5 33s-30.5 47.333 -30.5 76c0 40 13.667 69.333 41 88s57.333 34 90 46l11.5 4l10.5 4l79 29v24c0 27.333 -6.66699 47.166 -20 59.499s-33.666 18.5 -60.999 18.5c-3.33301 0 -6.5 -0.166992 -9.5 -0.5
s-5.83301 -0.5 -8.5 -0.5c-22 -2.66699 -43.5 -10 -64.5 -22s-40.833 -29 -59.5 -51v98c17.333 20 38.333 35 63 45s53.334 15 86.001 15c45.333 0 83.833 -11.833 115.5 -35.5s47.5 -61.167 47.5 -112.5v-230c0 -9.33301 1.5 -15.666 4.5 -18.999s7.16699 -5 12.5 -5
c4.66699 0 11.167 2.16699 19.5 6.5s17.5 10.166 27.5 17.499v1zM257.998 90.999v131c-38 -13.333 -71.167 -27.666 -99.5 -42.999s-42.5 -36.333 -42.5 -63c0 -18.667 6 -33.834 18 -45.501s27.333 -17.5 46 -17.5c14 0 27.5 3.33301 40.5 10s25.5 15.667 37.5 27v1z" />
    <glyph glyph-name="b" unicode="b" horiz-adv-x="500" 
d="M148 682v-265c19.333 13.333 39.166 23.333 59.499 30s41.833 10 64.5 10c56 0 102.333 -21.167 139 -63.5s55 -95.833 55 -160.5c0 -76 -21.167 -135.333 -63.5 -178s-101.166 -64 -176.499 -64c-6 0 -12 0.166992 -18 0.5s-12 0.833008 -18 1.5
c-24 2 -47.5 5.5 -70.5 10.5s-43.167 11.833 -60.5 20.5v658h89v0zM148 332l-0.000976562 -243c6.66699 -2.66699 13.834 -4.83398 21.501 -6.50098s15.5 -3.16699 23.5 -4.5s15.833 -2.33301 23.5 -3s14.834 -1 21.501 -1c40 0 72.833 13.667 98.5 41s38.5 62.333 38.5 105
c0 47.333 -11.5 85.333 -34.5 114s-53.167 43 -90.5 43c-8.66699 0 -17 -0.666992 -25 -2s-15.667 -3.66602 -23 -6.99902c-8.66699 -4 -17.334 -9 -26.001 -15s-18 -13.333 -28 -22v1z" />
    <glyph glyph-name="c" unicode="c" horiz-adv-x="438" 
d="M393 427l-0.00195312 -94.998c-20 12.667 -37.667 22.167 -53 28.5s-30.333 10.5 -45 12.5c-4 0.666992 -8.16699 1.16699 -12.5 1.5s-8.83301 0.5 -13.5 0.5c-40.667 0 -73.667 -14 -99 -42s-38 -64.667 -38 -110c0 -46.667 13.833 -83.167 41.5 -109.5
s64.5 -39.5 110.5 -39.5h10c3.33301 0 7 0.333008 11 1c15.333 1.33301 30.833 4.5 46.5 9.5s32.834 11.5 51.501 19.5v-87c-10.667 -6 -24.5 -10.833 -41.5 -14.5s-34.5 -6.83398 -52.5 -9.50098c-7.33301 -0.666992 -14.166 -1.16699 -20.499 -1.5
s-12.833 -0.5 -19.5 -0.5c-66.667 0 -121.334 20.833 -164.001 62.5s-64 95.5 -64 161.5c0 74 20 132.833 60 176.5s94 65.5 162 65.5c18 0 34.167 -1.33301 48.5 -4s28.166 -6.33398 41.499 -11.001c6.66699 -2 13.334 -4.33301 20.001 -7s13.334 -5.66699 20.001 -9v1z
" />
    <glyph glyph-name="d" unicode="d" horiz-adv-x="510" 
d="M451 682v-681.999h-189c-66.667 0 -119.667 21 -159 63s-59 99 -59 171c0 65.333 21 118.833 63 160.5s95.667 62.5 161 62.5h9c2.66699 0 5.66699 -0.333008 9 -1c12 -0.666992 24 -2.33398 36 -5.00098s25.333 -6.66699 40 -12v243h89v0zM362 75.001
l0.000976562 285.999c-7.33301 2.66699 -14.5 5 -21.5 7s-13.5 3.66699 -19.5 5c-6.66699 1.33301 -13.5 2.33301 -20.5 3s-14.167 1 -21.5 1c-42.667 0 -77.334 -14.167 -104.001 -42.5s-40 -66.166 -40 -113.499c0 -42 10 -77 30 -105s55.667 -42 107 -42l90 1v0z" />
    <glyph glyph-name="e" unicode="e" horiz-adv-x="479" 
d="M438 130l0.00195312 -86c-4 -3.33301 -8.16699 -6.33301 -12.5 -9s-8.5 -5 -12.5 -7c-22.667 -13.333 -46 -22.833 -70 -28.5s-52 -8.5 -84 -8.5c-70 0 -123.833 24.167 -161.5 72.5s-56.5 103.5 -56.5 165.5c0 68 19.5 123 58.5 165s89.5 63 151.5 63
c59.333 0 106.666 -20.333 141.999 -61s53 -102.667 53 -186l-316 1c7.33301 -45.333 23.666 -79.333 48.999 -102s59.333 -34 102 -34c20 0 39.833 2.66699 59.5 8s39.167 13 58.5 23c6.66699 3.33301 13.167 7 19.5 11l19.5 12v1zM132.002 270l226 -0.000976562
c-1.33301 33.333 -11.333 60 -30 80s-43.667 30 -75 30c-34 0 -61.167 -9.66699 -81.5 -29s-33.5 -46.666 -39.5 -81.999v1z" />
    <glyph glyph-name="f" unicode="f" horiz-adv-x="250" 
d="M296 682l0.00195312 -86.999c-3.33301 0.666992 -6.5 1.5 -9.5 2.5s-5.83301 1.83301 -8.5 2.5c-3.33301 0.666992 -6.83301 1.16699 -10.5 1.5s-7.5 0.5 -11.5 0.5c-36 0 -60.833 -9.83301 -74.5 -29.5s-20.5 -46.834 -20.5 -81.501v-42h81v-80h-81v-369h-89v369h-63v80
h63v33c0 43.333 5 77.166 15 101.499s24 45.5 42 63.5c13.333 13.333 28.5 24 45.5 32s36.833 12 59.5 12c9.33301 -0.666992 19.166 -1.66699 29.499 -3s21.166 -3.66602 32.499 -6.99902v1z" />
    <glyph glyph-name="g" unicode="g" horiz-adv-x="427" 
d="M421 449l0.000976562 -69.0029h-92c7.33301 -8 13.833 -15.5 19.5 -22.5s10.5 -13.833 14.5 -20.5c4.66699 -8.66699 8 -17.5 10 -26.5s3 -18.833 3 -29.5c0 -4 -0.166992 -8 -0.5 -12s-1.16602 -8 -2.49902 -12c-2.66699 -15.333 -7.83398 -30 -15.501 -44
s-15.5 -25 -23.5 -33c-10 -10.667 -21.5 -19 -34.5 -25s-26.5 -10.667 -40.5 -14c-7.33301 -2 -15 -3.66699 -23 -5s-15.333 -2.66602 -22 -3.99902c-17.333 -2.66699 -32 -6.33398 -44 -11.001s-18 -13.334 -18 -26.001c0 -9.33301 6.83301 -17.666 20.5 -24.999
s34.167 -14.333 61.5 -21c8 -2 16.5 -4 25.5 -6s18.833 -4 29.5 -6c48 -9.33301 81.667 -25.166 101 -47.499s29 -47.833 29 -76.5c0 -44.667 -18.667 -79.667 -56 -105s-89.333 -38 -156 -38c-60.667 0 -110.334 12.833 -149.001 38.5s-58 58.167 -58 97.5
c0 32.667 9.16699 59 27.5 79s46.833 34.667 85.5 44c-5.33301 3.33301 -10 6.5 -14 9.5s-7.66699 6.16699 -11 9.5c-6.66699 6 -11.667 12.167 -15 18.5s-5 12.833 -5 19.5c0 14.667 6.5 27.834 19.5 39.501s30.167 19.834 51.5 24.501v3
c-16.667 6.66699 -31.167 14.667 -43.5 24s-22.833 20 -31.5 32c-8 11.333 -14 24 -18 38s-6 29.333 -6 46c0 48 17.5 85.833 52.5 113.5s82.833 41.5 143.5 41.5l185 1v0zM333.001 -94.0029c0 20 -9.66699 35.334 -29 46.001s-41 18 -65 22
c-9.33301 1.33301 -18.5 2.33301 -27.5 3s-17.5 1 -25.5 1c-30 0 -54.5 -6.33301 -73.5 -19s-28.5 -29 -28.5 -49c0 -22.667 10.667 -39.834 32 -51.501s52.333 -17.5 93 -17.5c39.333 0 69.833 5.66699 91.5 17s32.5 27.333 32.5 48v0zM296.001 292.998
c0 20.667 -8.66895 38.832 -26.002 54.499s-37.666 23.5 -60.999 23.5c-24.667 0 -45.667 -8 -63 -24s-26 -35 -26 -57c0 -24.667 8.33301 -44.5 25 -59.5s38.334 -22.5 65.001 -22.5c25.333 0 46 7.83301 62 23.5s24 35.834 24 60.501v1z" />
    <glyph glyph-name="h" unicode="h" horiz-adv-x="500" 
d="M150 682v-292.002h2c17.333 20.667 37.833 37 61.5 49s47.834 18 72.501 18c44 0 80.5 -15.167 109.5 -45.5s43.5 -76.166 43.5 -137.499v-274h-89v278c0 32.667 -7.83301 58.834 -23.5 78.501s-37.167 29.5 -64.5 29.5c-8 0 -15.833 -0.833008 -23.5 -2.5
s-15.167 -4.16699 -22.5 -7.5c-10.667 -5.33301 -21.334 -12.5 -32.001 -21.5s-22 -20.167 -34 -33.5v-321h-89v682h89v0z" />
    <glyph glyph-name="i" unicode="i" horiz-adv-x="219" 
d="M154 449v-449h-89v449h89v0zM163 585c0 -15.333 -5.16699 -28.167 -15.5 -38.5s-22.833 -15.5 -37.5 -15.5s-27.167 5.16699 -37.5 15.5s-15.5 22.833 -15.5 37.5s5.16699 27.167 15.5 37.5s22.833 15.5 37.5 15.5s27.167 -5.16699 37.5 -15.5s15.5 -22.833 15.5 -37.5v1
z" />
    <glyph glyph-name="j" unicode="j" horiz-adv-x="219" 
d="M150 449v-508c0 -48 -7.5 -84.5 -22.5 -109.5s-37.167 -45.5 -66.5 -61.5l-67 66c19.333 8 35.333 20 48 36s19 36.667 19 62v515h89v0zM159 585c0 -15.333 -5.16699 -28.167 -15.5 -38.5s-22.833 -15.5 -37.5 -15.5s-27.167 5.16699 -37.5 15.5s-15.5 22.833 -15.5 37.5
s5.16699 27.167 15.5 37.5s22.833 15.5 37.5 15.5s27.167 -5.16699 37.5 -15.5s15.5 -22.833 15.5 -37.5v1z" />
    <glyph glyph-name="k" unicode="k" horiz-adv-x="479" 
d="M151 682v-682h-89v682h89v0zM460 449l-192 -220l232 -229h-120l-225 229l199 220h106v0z" />
    <glyph glyph-name="l" unicode="l" horiz-adv-x="219" 
d="M154 682v-682h-89v682h89v0z" />
    <glyph glyph-name="m" unicode="m" horiz-adv-x="771" 
d="M59 449l88.9971 0.00390625v-59c23.333 22.667 45.833 39.5 67.5 50.5s42.834 16.5 63.501 16.5c28.667 0 54.5 -6.83301 77.5 -20.5s41.833 -33.834 56.5 -60.501c19.333 22 41.166 41 65.499 57s52.5 24 84.5 24c45.333 0 81.5 -16 108.5 -48s40.5 -74.667 40.5 -128
v-281h-89v278c0 33.333 -9.16699 59 -27.5 77s-40.166 27 -65.499 27h-0.5h-0.5h-0.5h-0.5c-8 0 -16.667 -1.83301 -26 -5.5s-19 -8.83398 -29 -15.501c-7.33301 -4.66699 -14.666 -10 -21.999 -16s-14.333 -12.667 -21 -20v-325h-89v279c0 36 -8 62.167 -24 78.5
s-35 24.5 -57 24.5c-15.333 0 -29.166 -1.83301 -41.499 -5.5s-24.5 -9.83398 -36.5 -18.501c-5.33301 -4 -10.833 -8.83301 -16.5 -14.5s-11.5 -11.834 -17.5 -18.501v-325h-89v449v0z" />
    <glyph glyph-name="n" unicode="n" horiz-adv-x="500" 
d="M150 449l-0.000976562 -59.001h2c17.333 20.667 37.833 37 61.5 49s47.834 18 72.501 18c42.667 0 78.834 -14.833 108.501 -44.5s44.5 -75.167 44.5 -136.5v-276h-89v278c0 32.667 -7.83301 58.834 -23.5 78.501s-37.167 29.5 -64.5 29.5
c-8 0 -15.833 -0.833008 -23.5 -2.5s-15.167 -4.16699 -22.5 -7.5c-10.667 -5.33301 -21.334 -12.5 -32.001 -21.5s-22 -20.167 -34 -33.5v-321h-89v449h89v0z" />
    <glyph glyph-name="o" unicode="o" horiz-adv-x="552" 
d="M273 458c70.667 -0.666992 128.833 -22.5 174.5 -65.5s68.5 -97.833 68.5 -164.5c0 -70.667 -22.5 -127.834 -67.5 -171.501s-103.5 -65.5 -175.5 -65.5c-68.667 0 -125.334 22.333 -170.001 67s-67 101.334 -67 170.001c0 64.667 22.833 119 68.5 163
s101.834 66 168.501 66v1zM271.999 378c-42 -0.666992 -76.665 -14.999 -103.998 -42.999s-41 -63.667 -41 -107c0 -47.333 13.5 -85.5 40.5 -114.5s61.833 -43.5 104.5 -43.5c47.333 0 84.666 14 111.999 42s41 66.333 41 115c0 43.333 -14.333 79.166 -43 107.499
s-65.334 42.5 -110.001 42.5v1z" />
    <glyph glyph-name="p" unicode="p" horiz-adv-x="500" 
d="M146 11l-0.000976562 -241h-89v679h154c82 -0.666992 144.667 -20.5 188 -59.5s65 -95.5 65 -169.5c0 -67.333 -21.333 -122.333 -64 -165s-97.334 -64 -164.001 -64h-9.5c-3 0 -6.16699 0.333008 -9.5 1c-11.333 1.33301 -22.666 3.33301 -33.999 6
s-23.666 6.66699 -36.999 12v1zM145.999 369v-278.001c9.33301 -4.66699 18.666 -8.5 27.999 -11.5s18.666 -5.5 27.999 -7.5c4.66699 -0.666992 9.33398 -1.16699 14.001 -1.5s9.33398 -0.5 14.001 -0.5c41.333 0 75.5 14.333 102.5 43s40.5 64.667 40.5 108
c0 46.667 -12.167 82.834 -36.5 108.501s-60.833 38.5 -109.5 38.5l-81 1v0z" />
    <glyph glyph-name="q" unicode="q" horiz-adv-x="500" 
d="M354 -230l0.00292969 237.001c-16.667 -5.33301 -32.667 -9.33301 -48 -12s-29.333 -4 -42 -4c-66.667 0 -121.334 21.333 -164.001 64s-64 97.667 -64 165c0 12.667 1.33301 27.5 4 44.5s7.66699 34.167 15 51.5c13.333 33.333 37.166 63.666 71.499 90.999
s85.166 41 152.499 41l164 1v-679h-89v0zM354.003 369.001l-81.0029 -0.000976562c-2 -0.666992 -3.83301 -1 -5.5 -1h-5.5c-34 -2.66699 -65 -15.667 -93 -39s-42 -59.333 -42 -108c0 -43.333 13.5 -80.166 40.5 -110.499s61.167 -45.5 102.5 -45.5
c4.66699 0 9.33398 0.166992 14.001 0.5s9.33398 0.833008 14.001 1.5c9.33301 2 18.833 4.5 28.5 7.5s18.834 6.5 27.501 10.5v284v0z" />
    <glyph glyph-name="r" unicode="r" horiz-adv-x="396" 
d="M69 449l88.998 0.000976562v-103h2c22.667 38.667 44.834 66.834 66.501 84.501s42.834 26.5 63.501 26.5c7.33301 0 14.5 -0.666992 21.5 -2s14.167 -3.33301 21.5 -6c10 -4 20.333 -9.66699 31 -17s21.667 -16.333 33 -27l-47 -76l-15 12.5
c-5.33301 4.33301 -11 8.16602 -17 11.499c-9.33301 6 -18.5 10.667 -27.5 14s-16.833 5 -23.5 5c-30.667 0 -56.5 -13.333 -77.5 -40s-31.5 -59.334 -31.5 -98.001v-234h-89v449v0z" />
    <glyph glyph-name="s" unicode="s" horiz-adv-x="385" 
d="M324 421l0.000976562 -88c-24.667 16 -48.334 27.667 -71.001 35s-42.334 11 -59.001 11c-18 0 -32.333 -3.83301 -43 -11.5s-16 -17.5 -16 -29.5c0 -10 8.33301 -21.667 25 -35s44.667 -31.666 84 -54.999c20 -13.333 36.833 -25.5 50.5 -36.5
s24.167 -21.833 31.5 -32.5c6.66699 -9.33301 11.5 -18.5 14.5 -27.5s4.5 -18.833 4.5 -29.5c0 -39.333 -14 -71 -42 -95s-63.333 -36 -106 -36c-12 0 -23.667 0.5 -35 1.5s-22.666 2.83301 -33.999 5.5c-13.333 2.66699 -27.166 6.83398 -41.499 12.501
s-29.5 12.5 -45.5 20.5v97c29.333 -20.667 56.666 -35.834 81.999 -45.501s47 -14.5 65 -14.5c18 1.33301 33.5 6.16602 46.5 14.499s19.5 20.5 19.5 36.5c0 8 -3 15.333 -9 22s-13.667 13.667 -23 21c-10 6.66699 -21.333 13.5 -34 20.5l-39 22.5
c-26 15.333 -50 33.333 -72 54s-33 46 -33 76c0 38 13.5 67.833 40.5 89.5s62.833 32.5 107.5 32.5c21.333 0 42.833 -3 64.5 -9s44.167 -15.333 67.5 -28v1z" />
    <glyph glyph-name="t" unicode="t" horiz-adv-x="333" 
d="M167 542l0.00195312 -93.001h142v-80h-142v-230c0 -20.667 4.5 -36 13.5 -46s19.167 -16.667 30.5 -20c3.33301 -1.33301 6.66602 -2.16602 9.99902 -2.49902s6.66602 -0.5 9.99902 -0.5c16 0 32.333 2.83301 49 8.5s34 13.834 52 24.501v-82
c-7.33301 -4.66699 -15.5 -8.66699 -24.5 -12s-17.833 -6.33301 -26.5 -9c-10.667 -2.66699 -21 -4.83398 -31 -6.50098s-18.667 -2.5 -26 -2.5c-48.667 0 -85.167 13.167 -109.5 39.5s-36.5 59.833 -36.5 100.5v238h-78v10l167 163v0z" />
    <glyph glyph-name="u" unicode="u" horiz-adv-x="500" 
d="M437 0l-89.001 0.000976562v57c-12 -14 -25.333 -25.833 -40 -35.5s-29.667 -16.834 -45 -21.501c-8 -2.66699 -16.167 -4.83398 -24.5 -6.50098s-16.166 -2.5 -23.499 -2.5c-45.333 0 -82.5 15.5 -111.5 46.5s-43.5 74.833 -43.5 131.5v280h89v-285
c0 -32 7.66699 -56.667 23 -74s38.333 -26 69 -26c20 0 39.167 5.33301 57.5 16s34.833 26.334 49.5 47.001v322h89v-449v0z" />
    <glyph glyph-name="v" unicode="v" horiz-adv-x="438" 
d="M206 -9l-203 458h97l121 -276l118 276h95l-198 -458h-30v0z" />
    <glyph glyph-name="w" unicode="w" horiz-adv-x="719" 
d="M393 449l114 -272l117 272h95l-198 -458h-28l-133 314l-132 -314h-28l-200 458h95l118 -272l114 272h66v0z" />
    <glyph glyph-name="x" unicode="x" horiz-adv-x="500" 
d="M487 449l-185 -221l198 -228h-114l-141 161l-133 -161h-112l189 228l-189 221h112l133 -154l128 154h114v0z" />
    <glyph glyph-name="y" unicode="y" horiz-adv-x="438" 
d="M438 449l-318 -679h-99l153 326l-174 353h101l121 -253l116 253h100v0z" />
    <glyph glyph-name="z" unicode="z" horiz-adv-x="417" 
d="M404 449l-239 -369h240v-80h-394l238 369h-228v80h383v0z" />
    <glyph glyph-name="braceleft" unicode="{" horiz-adv-x="333" 
d="M28 219v80c41.333 -0.666992 68.5 13.5 81.5 42.5s19.5 68.833 19.5 119.5v89c0 57.333 10.333 101.166 31 131.499s57.667 45.5 111 45.5l39 1v-76h-15c-34.667 -0.666992 -57.334 -7.5 -68.001 -20.5s-16 -40.167 -16 -81.5v-71c0 -68 -7.66699 -117.833 -23 -149.5
s-41.666 -55.5 -78.999 -71.5c37.333 -16 63.666 -39.833 78.999 -71.5s23 -81.167 23 -148.5v-71c0 -41.333 5.33301 -68.5 16 -81.5s33.334 -19.5 68.001 -19.5h15v-76h-39c-53.333 0 -90.333 15.167 -111 45.5s-31 74.5 -31 132.5v88c0 50.667 -6.5 90.334 -19.5 119.001
s-40.167 43 -81.5 43v1z" />
    <glyph glyph-name="bar" unicode="|" horiz-adv-x="260" 
d="M92 -230v912h76v-912h-76v0z" />
    <glyph glyph-name="braceright" unicode="}" horiz-adv-x="333" 
d="M305 299v-80c-40.667 -0.666992 -67.667 -15.334 -81 -44.001s-20 -68.667 -20 -120v-87c0 -58 -10.333 -102.167 -31 -132.5s-57.667 -45.5 -111 -45.5h-39v76h15c35.333 0 58.166 6.5 68.499 19.5s15.5 40.167 15.5 81.5v72c0 66.667 7.66699 115.834 23 147.501
s41.666 55.5 78.999 71.5c-37.333 16 -63.666 39.833 -78.999 71.5s-23 81.167 -23 148.5v73c0 40.667 -5.16699 67.5 -15.5 80.5s-33.166 19.5 -68.499 19.5l-15 1v76h39c53.333 -0.666992 90.333 -16.167 111 -46.5s31 -74.5 31 -132.5v-87
c0 -51.333 6.66699 -91.5 20 -120.5s40.333 -43.5 81 -43.5v1z" />
    <glyph glyph-name="asciitilde" unicode="~" horiz-adv-x="584" 
d="M25 198v83.002c21.333 17.333 44.833 32.166 70.5 44.499s51.834 18.5 78.501 18.5c14 0 28 -1.83301 42 -5.5s28 -8.5 42 -14.5l21 -8.5c7.33301 -3 14.333 -6.16699 21 -9.5l62 -26c20 -8 39.333 -12 58 -12c10.667 0 21.5 1.66699 32.5 5s22.5 7.66602 34.5 12.999
c12.667 6.66699 25.167 14.167 37.5 22.5s24.166 17.166 35.499 26.499v-82c-18.667 -16.667 -39.667 -31.167 -63 -43.5s-47 -19.166 -71 -20.499c-2 -0.666992 -4 -1 -6 -1h-6c-14 0 -28.5 2.16699 -43.5 6.5s-30.167 9.5 -45.5 15.5l-18 8l-18 8
c-21.333 9.33301 -42.333 18 -63 26s-40.334 12 -59.001 12c-14 0 -27.667 -2.33301 -41 -7s-26.666 -10.667 -39.999 -18c-10 -6 -20.167 -12.5 -30.5 -19.5s-20.5 -14.5 -30.5 -22.5v1z" />
    <glyph glyph-name="endash" unicode="&#xa1;" horiz-adv-x="271" 
d="M136 -192c-18.667 0 -32.668 12.333 -42.001 37s-14 61.667 -14 111c0 22 0.5 41.833 1.5 59.5s2.5 33.167 4.5 46.5l25 173c3.33301 21.333 6.66602 37 9.99902 47s8.33301 15 15 15s11.834 -5 15.501 -15s6.83398 -26 9.50098 -48l25 -171c2 -14 3.5 -29.833 4.5 -47.5
s1.5 -37.5 1.5 -59.5c0 -49.333 -4.5 -86.333 -13.5 -111s-23.167 -37 -42.5 -37v0zM134.999 388c-16.667 -0.666992 -30.834 4.83301 -42.501 16.5s-17.5 25.834 -17.5 42.501s5.83301 30.834 17.5 42.501s25.834 17.5 42.501 17.5s30.834 -5.83301 42.501 -17.5
s17.5 -25.834 17.5 -42.501s-5.83301 -30.834 -17.5 -42.501s-25.834 -17.5 -42.501 -17.5v1z" />
    <glyph glyph-name="cent" unicode="&#xa2;" horiz-adv-x="438" 
d="M408 620l-63.0049 -175.002c2.66699 -2 5.83398 -3.66699 9.50098 -5l11.5 -4c1.33301 -0.666992 2.66602 -1.16699 3.99902 -1.5s2.33301 -0.833008 3 -1.5c3.33301 -1.33301 6.5 -2.66602 9.5 -3.99902s5.5 -2.66602 7.5 -3.99902v-93
c-6.66699 4.66699 -14 9.33398 -22 14.001s-16 8.66699 -24 12c-4.66699 2 -9.33398 3.66699 -14.001 5s-9 2.66602 -13 3.99902l-102 -280c8 -4 16.333 -7 25 -9s17.334 -3.33301 26.001 -4c2.66699 -0.666992 5.5 -1 8.5 -1h8.5h5.5h5.5
c18.667 1.33301 37.334 4.83301 56.001 10.5s35.334 12.5 50.001 20.5v-85c-18.667 -7.33301 -36.667 -13 -54 -17s-34.666 -7 -51.999 -9c-5.33301 -0.666992 -10.833 -1.16699 -16.5 -1.5s-11.5 -0.5 -17.5 -0.5c-12 0 -24.167 0.666992 -36.5 2
s-25.166 3.66602 -38.499 6.99902l-69 -190h-47l77 209c-32.667 18 -58.834 44.667 -78.501 80s-29.5 74 -29.5 116c0 70 19.5 127.833 58.5 173.5s94.5 68.5 166.5 68.5c6.66699 0 13.334 -0.166992 20.001 -0.5s13.334 -1.16602 20.001 -2.49902l59 166h46v0z
M177.995 108.998l96 266c-2 -0.666992 -4 -1 -6 -1h-6c-42 0 -74.667 -15.833 -98 -47.5s-35 -67.167 -35 -106.5c0 -22.667 4.16699 -43.5 12.5 -62.5s20.5 -35.5 36.5 -49.5v1z" />
    <glyph glyph-name="sterling" unicode="&#xa3;" horiz-adv-x="531" 
d="M333 374l-0.000976562 -87.999h-102l-50 -189h7.5c2.33301 0 4.5 0.333008 6.5 1h10.5h15.5c22.667 0 41.667 -0.666992 57 -2s29.333 -3 42 -5c5.33301 -0.666992 10.5 -1.5 15.5 -2.5s10.167 -1.83301 15.5 -2.5l21 -2c7.33301 -0.666992 15 -1 23 -1
c21.333 0 40.5 1.66699 57.5 5s31.5 8.33301 43.5 15v-94c-4 -2 -8.16699 -3.66699 -12.5 -5l-12.5 -4c-4 0 -8.16699 -0.5 -12.5 -1.5s-8.5 -1.83301 -12.5 -2.5c-8.66699 -1.33301 -17.5 -2.5 -26.5 -3.5s-18.5 -1.5 -28.5 -1.5c-11.333 0 -23.833 0.833008 -37.5 2.5
l-43.5 5.5l-22 2l-22 2c-8 0.666992 -15.667 1.16699 -23 1.5s-14.666 0.5 -21.999 0.5c-26 0 -49.667 -0.833008 -71 -2.5s-42 -3.83398 -62 -6.50098c-4.66699 -0.666992 -9.5 -1.5 -14.5 -2.5s-9.83301 -1.83301 -14.5 -2.5l79 295h-72v88h95
c23.333 78.667 54.5 151 93.5 217s91.833 99 158.5 99c5.33301 0 11 -0.333008 17 -1s12.333 -1.66699 19 -3l52 -97h-11c-10.667 3.33301 -20.167 5.5 -28.5 6.5s-16.5 1.5 -24.5 1.5c-40.667 0 -75.167 -17.5 -103.5 -52.5s-53.833 -92.167 -76.5 -171.5l76 1v0z" />
    <glyph glyph-name="Idieresis" unicode="&#xa4;" horiz-adv-x="552" 
d="M448 226l67 -66.998l-57 -57l-67 67c-14.667 -10.667 -31.834 -19.334 -51.501 -26.001s-40.834 -10 -63.501 -10c-24 0 -45.667 3.5 -65 10.5s-36 15.167 -50 24.5l-67 -66l-57 57l67 67c-9.33301 12.667 -17.5 29.167 -24.5 49.5s-10.5 41.833 -10.5 64.5
c0 23.333 3.66699 45 11 65s15.333 36.667 24 50l-67 68l57 57l67 -67c12.667 8.66699 29.334 16.5 50.001 23.5s42.334 10.5 65.001 10.5c22 0 42.667 -3.16699 62 -9.5s37 -14.833 53 -25.5l67 68l57 -57l-67 -67c6 -8.66699 11 -17.667 15 -27s7.66699 -19 11 -29
c2.66699 -10.667 4.83398 -21.334 6.50098 -32.001s2.5 -20 2.5 -28c0 -5.33301 -0.333008 -10.833 -1 -16.5l-2 -16.5c-2.66699 -15.333 -6.83398 -30.333 -12.501 -45s-12.167 -27 -19.5 -37v1zM276 468.002c-34.667 -0.666992 -64.5 -13.333 -89.5 -38
s-37.5 -54.667 -37.5 -90c0 -34.667 12.5 -64.5 37.5 -89.5s54.833 -37.5 89.5 -37.5c35.333 0 65.333 12.5 90 37.5s37 54.833 37 89.5c0 35.333 -12.333 65.333 -37 90s-54.667 37 -90 37v1z" />
    <glyph glyph-name="ae" unicode="&#xa5;" horiz-adv-x="552" 
d="M233 0v159h-203v67h203v70h-203v73h167l-198 347h98l180 -322l173 322h103l-196 -347h165v-73h-200v-70h200v-67h-200v-159h-89v0z" />
    <glyph glyph-name="brokenbar" unicode="&#xa6;" 
 />
    <glyph glyph-name="section" unicode="&#xa7;" horiz-adv-x="406" 
d="M150 559c0 -24.667 6.49707 -46.999 19.4971 -66.999s29.167 -39.333 48.5 -58c6.66699 -7.33301 13.834 -14.5 21.501 -21.5l22.5 -21.5c28 -26.667 53.667 -56.334 77 -89.001s35 -72.667 35 -120c0 -16 -1.83301 -31.167 -5.5 -45.5s-9.83398 -28.5 -18.501 -42.5
c-6 -10.667 -13.167 -21.167 -21.5 -31.5s-17.833 -20.833 -28.5 -31.5c11.333 -16.667 20 -34.334 26 -53.001s9 -38.334 9 -59.001c0 -42 -15.167 -77.333 -45.5 -106s-68.166 -43 -113.499 -43c-32 0 -58.833 8.66699 -80.5 26s-32.5 39 -32.5 65
c0 16.667 5.5 30.834 16.5 42.501s24.167 17.5 39.5 17.5c14 0 25.333 -4.66699 34 -14s13 -20.333 13 -33c0 -1.33301 -0.333008 -3 -1 -5s-1 -4 -1 -6c-0.666992 -1.33301 -1.16699 -2.66602 -1.5 -3.99902s-0.5 -3 -0.5 -5c-0.666992 -0.666992 -1 -1.5 -1 -2.5v-2.5
c0 -4 1.66699 -7.5 5 -10.5s9.66602 -4.5 18.999 -4.5c19.333 0 36.166 7 50.499 21s21.5 30.667 21.5 50c0 18.667 -4.5 36.5 -13.5 53.5s-20.5 33.5 -34.5 49.5c-9.33301 11.333 -19.666 22.666 -30.999 33.999l-33 34c-28.667 29.333 -54.667 61.5 -78 96.5
s-35 75.833 -35 122.5c0 29.333 5.33301 55.5 16 78.5s27.334 44.833 50.001 65.5c-6 10 -11.167 20.833 -15.5 32.5s-7.5 23.5 -9.5 35.5c-1.33301 4.66699 -2.16602 9.66699 -2.49902 15s-0.5 10.333 -0.5 15c0 8.66699 1 18.334 3 29.001s5.33301 21.667 10 33
c10 22.667 26 43.5 48 62.5s52.667 28.5 92 28.5c34 0 62 -8 84 -24s33 -36.333 33 -61c0 -16 -4.83301 -29.167 -14.5 -39.5s-22.167 -15.5 -37.5 -15.5c-10 0 -18.333 3 -25 9s-11 12.667 -13 20c-0.666992 2 -1.16699 3.83301 -1.5 5.5s-0.5 3.16699 -0.5 4.5
c0 11.333 -1.16699 20.333 -3.5 27s-10.833 10 -25.5 10c-21.333 0 -38.166 -6 -50.499 -18s-18.5 -28.667 -18.5 -50v1zM139.997 384.001c-6 -6.66699 -11.168 -13.6611 -15.501 -20.9941s-8.16602 -15 -11.499 -23c-1.33301 -5.33301 -2.5 -10.333 -3.5 -15
s-1.5 -9.33398 -1.5 -14.001c0 -23.333 5.33301 -44.833 16 -64.5s24.667 -39.167 42 -58.5l34 -36.5l37 -38.5l11.5 -12l10.5 -12c8 8 14.667 16.5 20 25.5s9.33301 18.167 12 27.5c2 5.33301 3.33301 10.666 4 15.999s1 10.666 1 15.999
c0 27.333 -7.66699 51.666 -23 72.999s-33.666 42 -54.999 62l-17 15c-6 5.33301 -11.667 10.666 -17 15.999l-22.5 21c-7.66699 7.33301 -14.834 14.666 -21.501 21.999v1z" />
    <glyph glyph-name="dieresis" unicode="&#xa8;" horiz-adv-x="333" 
d="M74 628c13.333 -0.666992 24.333 -5.33301 33 -14s13 -19.667 13 -33c0 -12.667 -4.33301 -23.667 -13 -33s-19.667 -14 -33 -14c-12.667 0 -23.667 4.66699 -33 14s-14 20.333 -14 33c0 13.333 4.66699 24.333 14 33s20.333 13 33 13v1zM260 628.001
c13.333 -0.666992 24.333 -5.33301 33 -14s13 -19.667 13 -33c0 -12.667 -4.33301 -23.667 -13 -33s-19.667 -14 -33 -14c-12.667 0 -23.667 4.66699 -33 14s-14 20.333 -14 33c0 13.333 4.66699 24.333 14 33s20.333 13 33 13v1z" />
    <glyph glyph-name="copyright" unicode="&#xa9;" horiz-adv-x="740" 
d="M738 360c0 -102.667 -36 -189.833 -108 -261.5s-159 -107.5 -261 -107.5s-188.833 35.833 -260.5 107.5s-107.5 158.5 -107.5 260.5s35.833 188.833 107.5 260.5s158.5 107.5 260.5 107.5s189 -35.833 261 -107.5s108 -158.5 108 -260.5v1zM677 360.001
c0 84.667 -30 156.833 -90 216.5s-132.667 89.5 -218 89.5c-84.667 0 -157 -29.833 -217 -89.5s-90 -132.167 -90 -217.5c0 -84.667 30 -157.167 90 -217.5s132.333 -90.5 217 -90.5c85.333 0 158 30.167 218 90.5s90 132.833 90 217.5v1zM488 300l59.999 -18
c-10 -43.333 -31 -76.5 -63 -99.5s-71.667 -34.5 -119 -34.5c-58 0 -104 19.333 -138 58s-51 91.334 -51 158.001c0 61.333 18 110.166 54 146.499s83.667 54.5 143 54.5c42.667 0 78.5 -9.83301 107.5 -29.5s48.833 -48.167 59.5 -85.5l-58 -13
c-10 24.667 -24.5 43.167 -43.5 55.5s-42.5 18.5 -70.5 18.5c-38 0 -68.333 -14.333 -91 -43s-34 -66.667 -34 -114c0 -46.667 11.167 -83.167 33.5 -109.5s53.166 -39.5 92.499 -39.5c28.667 0 53.834 8.5 75.501 25.5s35.834 39.833 42.501 68.5v1z" />
    <glyph glyph-name="ellipsis" unicode="&#xaa;" horiz-adv-x="281" 
d="M273 474l-0.00390625 -42c-9.33301 -6.66699 -17.5 -11.667 -24.5 -15s-13.5 -5.66602 -19.5 -6.99902c-2.66699 -0.666992 -5.66699 -1.16699 -9 -1.5s-6.66602 -0.5 -9.99902 -0.5c-12 0 -22 2 -30 6s-13.667 9.66699 -17 17c-6.66699 -4.66699 -14 -8.66699 -22 -12
s-16 -6 -24 -8l-13.5 -2c-4.33301 -0.666992 -8.83301 -1 -13.5 -1c-20.667 0 -38.334 6.66699 -53.001 20s-22 29.666 -22 48.999c0 28 14 49 42 63s63.333 26.333 106 37c0 21.333 -2.66699 36.166 -8 44.499s-17.666 12.5 -36.999 12.5
c-6.66699 0 -13.167 -0.666992 -19.5 -2s-12.5 -3 -18.5 -5c-9.33301 -4 -18.833 -9.66699 -28.5 -17s-20.167 -16.666 -31.5 -27.999v70c12.667 12.667 27.334 22.167 44.001 28.5s36.334 9.5 59.001 9.5c27.333 0 52.166 -6.83301 74.499 -20.5s33.5 -36.5 33.5 -68.5
v-125c0 -10 0.333008 -16.333 1 -19s2 -4 4 -4c2.66699 0 6.83398 1.5 12.501 4.5s13.834 8.16699 24.501 15.5v1zM162.996 543l-22.5 -8.99805l-18.5 -7c-12.667 -5.33301 -22.167 -11 -28.5 -17s-9.5 -14 -9.5 -24c0 -10.667 3.16699 -19 9.5 -25s14.833 -9 25.5 -9
c3.33301 0 6.5 0.166992 9.5 0.5s5.83301 1.16602 8.5 2.49902c4 1.33301 8 3.16602 12 5.49902s8.66699 5.5 14 9.5v73v0z" />
    <glyph glyph-name="ydieresis" unicode="&#xab;" horiz-adv-x="490" 
d="M117 225l148 -225h-88l-147 225l147 225h88l-148 -225v0zM320 225l148 -225h-88l-147 225l147 225h88l-148 -225v0z" />
    <glyph glyph-name="emdash" unicode="&#xac;" 
 />
    <glyph glyph-name="uni00AD" unicode="&#xad;" horiz-adv-x="500" 
 />
    <glyph glyph-name="registered" unicode="&#xae;" horiz-adv-x="740" 
d="M738 360c0 -102.667 -36 -189.833 -108 -261.5s-159 -107.5 -261 -107.5s-188.833 35.833 -260.5 107.5s-107.5 158.5 -107.5 260.5s35.833 188.833 107.5 260.5s158.5 107.5 260.5 107.5s189 -35.833 261 -107.5s108 -158.5 108 -260.5v1zM677 360.001
c0 84.667 -30 156.833 -90 216.5s-132.667 89.5 -218 89.5c-84.667 0 -157 -29.833 -217 -89.5s-90 -132.167 -90 -217.5c0 -84.667 30 -157.167 90 -217.5s132.333 -90.5 217 -90.5c85.333 0 158 30.167 218 90.5s90 132.833 90 217.5v1zM208 156v395.999h175
c38 -0.666992 66.833 -8.5 86.5 -23.5s32.5 -31.833 38.5 -50.5c2 -5.33301 3.5 -10.666 4.5 -15.999s1.5 -10.333 1.5 -15c0 -32 -10.5 -58.5 -31.5 -79.5s-48.167 -32.5 -81.5 -34.5v-1c9.33301 -4 17.833 -9 25.5 -15s15.5 -13.667 23.5 -23
c6.66699 -8 13.5 -17.167 20.5 -27.5l22.5 -34.5l48 -76h-78l-35 62c-12.667 22 -23.667 40 -33 54s-18.333 24.667 -27 32s-17.5 12.333 -26.5 15s-19.5 4 -31.5 4l-38 1v-168h-64v0zM272 378.999l92 -0.000976562c24.667 -0.666992 44.5 3.83301 59.5 13.5
s22.5 24.834 22.5 45.501c0 18 -6.5 32.333 -19.5 43s-30.167 16 -51.5 16l-103 1v-119v0z" />
    <glyph glyph-name="glyph263" unicode="&#xaf;" 
 />
    <glyph glyph-name="glyph264" unicode="&#xb0;" 
 />
    <glyph glyph-name="mu" unicode="&#xb1;" horiz-adv-x="584" 
d="M56 82h472v-82h-472v82v0zM251 589h82v-195h195v-82h-195v-195h-82v195h-195v82h195v195v0z" />
    <glyph glyph-name="uni00B2" unicode="&#xb2;" 
 />
    <glyph glyph-name="uni00B3" unicode="&#xb3;" 
 />
    <glyph glyph-name="acute" unicode="&#xb4;" horiz-adv-x="333" 
d="M178 654h100l-112 -147h-55l67 147v0z" />
    <glyph glyph-name="oslash" unicode="&#xb5;" horiz-adv-x="552" 
d="M469 449l-0.000976562 -449.002h-82v53h-2c-12.667 -22.667 -27 -38.667 -43 -48s-36.667 -14 -62 -14c-22 0 -41.167 4 -57.5 12s-31.166 21.667 -44.499 41l-2 1v-217h-89v621h89v-248c0 -49.333 9.33301 -85.666 28 -108.999s42.334 -35 71.001 -35
c33.333 0 59.166 12.333 77.499 37s27.5 59.334 27.5 104.001v251h89v0z" />
    <glyph glyph-name="paragraph" unicode="&#xb6;" horiz-adv-x="542" 
d="M198 -199v510.001c-61.333 2.66699 -109.5 22.167 -144.5 58.5s-52.5 84.166 -52.5 143.499c0 64.667 20 114.5 60 149.5s96.667 52.5 170 52.5l309 1v-80h-70v-835h-83v835h-109v-835h-80v0z" />
    <glyph glyph-name="glyph265" unicode="&#xb7;" 
 />
    <glyph glyph-name="bullet" unicode="&#xb8;" horiz-adv-x="333" 
d="M209 8l-7.00293 -23.999c16.667 -4.66699 29.834 -12.5 39.501 -23.5s14.5 -24.167 14.5 -39.5c0 -31.333 -10.833 -54.5 -32.5 -69.5s-49.167 -22.5 -82.5 -22.5c-6.66699 0 -13.167 0.166992 -19.5 0.5s-13.166 1.16602 -20.499 2.49902v55
c5.33301 -1.33301 10.333 -2 15 -2h14c16 0 29.167 2.33301 39.5 7s15.5 11.667 15.5 21c0 7.33301 -3.66699 13.5 -11 18.5s-18.666 7.5 -33.999 7.5h-3c-1.33301 0 -2.33301 -0.333008 -3 -1h-3.5h-3.5l25 70h57v0z" />
    <glyph glyph-name="uni00B9" unicode="&#xb9;" 
 />
    <glyph glyph-name="Agrave" unicode="&#xba;" horiz-adv-x="365" 
d="M342 550c0 -41.333 -15.167 -75.334 -45.5 -102.001s-68.5 -40 -114.5 -40c-45.333 0 -83.166 13.333 -113.499 40s-45.5 60.334 -45.5 101.001s15.167 74.334 45.5 101.001s68.166 40 113.499 40c46 0 84.167 -13.333 114.5 -40s45.5 -60.334 45.5 -101.001v1z
M273 549.999c0 25.333 -8.16699 46 -24.5 62s-38.166 24 -65.499 24s-49.333 -8 -66 -24s-25 -37 -25 -63s8.33301 -47 25 -63s38.667 -24 66 -24s49.166 8 65.499 24s24.5 37 24.5 63v1z" />
    <glyph glyph-name="Ydieresis" unicode="&#xbb;" horiz-adv-x="490" 
d="M170 225l-148 225h88l147 -225l-147 -225h-88l148 225v0zM373 225l-148 225h88l147 -225l-147 -225h-88l148 225v0z" />
    <glyph glyph-name="onequarter" unicode="&#xbc;" 
 />
    <glyph glyph-name="glyph243" unicode="&#xbd;" horiz-adv-x="844" 
d="M605 691l-455 -718h-67l455 718h67v0zM732 54l0.00195312 -54h-267v7c53.333 54.667 94.666 100.5 123.999 137.5s44 69.5 44 97.5c0 18 -5.83301 32.5 -17.5 43.5s-27.167 16.5 -46.5 16.5c-18 0 -35.5 -5.33301 -52.5 -16s-31.167 -24.667 -42.5 -42v79
c7.33301 4.66699 14.5 9 21.5 13s14.167 7.66699 21.5 11c9.33301 3.33301 18.666 6 27.999 8s19 3 29 3c38 0 69 -10.333 93 -31s36 -47.667 36 -81c0 -26.667 -10.167 -55.5 -30.5 -86.5s-50.833 -66.5 -91.5 -106.5l151 1v0zM195.002 687v-355h-69v355h69v0z" />
    <glyph glyph-name="threequarters" unicode="&#xbe;" 
 />
    <glyph glyph-name="oe" unicode="&#xbf;" horiz-adv-x="333" 
d="M251 -97l-47 -95.999c-47.333 -0.666992 -83.333 10.333 -108 33s-40.667 47.334 -48 74.001c-2 6.66699 -3.33301 13.167 -4 19.5s-1 12.5 -1 18.5c0 35.333 8 69.333 24 102s33.333 63.667 52 93c19.333 29.333 36.833 57.666 52.5 84.999s23.5 53.333 23.5 78v6
c0 2 -0.333008 4 -1 6c21.333 -10.667 36.5 -23 45.5 -37s13.5 -32.333 13.5 -55c0 -26.667 -5.83301 -51.334 -17.5 -74.001s-24.5 -44.334 -38.5 -65.001c-4 -5.33301 -7.66699 -10.833 -11 -16.5s-7 -11.167 -11 -16.5c-9.33301 -15.333 -17.333 -30.666 -24 -45.999
s-10 -31.333 -10 -48c0 -20 6 -36.167 18 -48.5s28 -18.5 48 -18.5c6.66699 0 12.667 0.333008 18 1s10 1.66699 14 3c2 0 4 0.166992 6 0.5s4 0.833008 6 1.5v0zM179 387.001c-16.667 -0.666992 -30.834 4.83301 -42.501 16.5s-17.5 25.834 -17.5 42.501
s5.83301 30.834 17.5 42.501s25.834 17.5 42.501 17.5s30.834 -5.83301 42.501 -17.5s17.5 -25.834 17.5 -42.501s-5.83301 -30.834 -17.5 -42.501s-25.834 -17.5 -42.501 -17.5v1z" />
    <glyph glyph-name="currency" unicode="&#xc0;" horiz-adv-x="667" 
d="M362 686l305 -686h-100l-91 201h-290l-86 -201h-100l293 686h69v0zM326 536l-102 -247h212l-110 247v0zM327 874l67 -147h-55l-112 147h100v0z" />
    <glyph glyph-name="breve" unicode="&#xc1;" horiz-adv-x="667" 
d="M362 686l305 -686h-100l-91 201h-290l-86 -201h-100l293 686h69v0zM326 536l-102 -247h212l-110 247v0zM345 874h100l-112 -147h-55l67 147v0z" />
    <glyph glyph-name="tilde" unicode="&#xc2;" horiz-adv-x="667" 
d="M362 686l305 -686h-100l-91 201h-290l-86 -201h-100l293 686h69v0zM326 536l-102 -247h212l-110 247v0zM379 877l94 -151h-55l-87 87l-83 -87h-53l91 151h93v0z" />
    <glyph glyph-name="guilsinglleft" unicode="&#xc3;" horiz-adv-x="667" 
d="M362 686l305 -686h-100l-91 201h-290l-86 -201h-100l293 686h69v0zM326 536l-102 -247h212l-110 247v0zM442 863l38.001 0.000976562c0 -36 -7.33301 -64.833 -22 -86.5s-33.667 -32.5 -57 -32.5c-14 0 -26.833 1.83301 -38.5 5.5s-22.834 7.83398 -33.501 12.501
c-3.33301 0.666992 -6.66602 1.66699 -9.99902 3s-6.33301 2.66602 -9 3.99902c-8 2.66699 -15.833 5 -23.5 7s-15.834 3 -24.501 3c-10 0 -17.833 -3 -23.5 -9s-9.16699 -14.667 -10.5 -26l-41 1c2.66699 36 10.667 64 24 84s31.333 30 54 30
c6.66699 0 13.5 -0.5 20.5 -1.5s14.167 -2.5 21.5 -4.5c6 -2 12 -3.83301 18 -5.5s12 -3.5 18 -5.5c12.667 -4.66699 24.5 -8.83398 35.5 -12.501s20.167 -5.5 27.5 -5.5c10 0 18 3 24 9s10 15.667 12 29v1z" />
    <glyph glyph-name="Adieresis" unicode="&#xc4;" horiz-adv-x="667" 
d="M362 686l305 -686h-100l-91 201h-290l-86 -201h-100l293 686h69v0zM326 536l-102 -247h212l-110 247v0zM241 848c13.333 -0.666992 24.333 -5.33301 33 -14s13 -19.667 13 -33c0 -12.667 -4.33301 -23.667 -13 -33s-19.667 -14 -33 -14c-12.667 0 -23.667 4.66699 -33 14
s-14 20.333 -14 33c0 13.333 4.66699 24.333 14 33s20.333 13 33 13v1zM427 848.001c13.333 -0.666992 24.333 -5.33301 33 -14s13 -19.667 13 -33c0 -12.667 -4.33301 -23.667 -13 -33s-19.667 -14 -33 -14c-12.667 0 -23.667 4.66699 -33 14s-14 20.333 -14 33
c0 13.333 4.66699 24.333 14 33s20.333 13 33 13v1z" />
    <glyph glyph-name="Aring" unicode="&#xc5;" horiz-adv-x="667" 
d="M362 686l305 -686h-100l-91 201h-290l-86 -201h-100l293 686h69v0zM326 536l-102 -247h212l-110 247v0zM334 911c25.333 -0.666992 47.166 -10.167 65.499 -28.5s27.5 -40.166 27.5 -65.499s-9.16699 -47.166 -27.5 -65.499s-40.166 -27.5 -65.499 -27.5
s-47.166 9.16699 -65.499 27.5s-27.5 40.166 -27.5 65.499s9.16699 47.166 27.5 65.499s40.166 27.5 65.499 27.5v1zM334 873c-14.667 -0.666992 -27.5 -6.33301 -38.5 -17s-16.5 -23.667 -16.5 -39c0 -14.667 5.5 -27.5 16.5 -38.5s23.833 -16.5 38.5 -16.5
c15.333 0 28.333 5.5 39 16.5s16 23.833 16 38.5c0 15.333 -5.33301 28.333 -16 39s-23.667 16 -39 16v1z" />
    <glyph glyph-name="Oslash" unicode="&#xc6;" horiz-adv-x="896" 
d="M851 682v-88h-280v-205h271v-88h-271v-213h291v-88h-389v301h-191l-179 -301h-101l404 682h445v0zM471 622l-139 -233h141v233h-2v0z" />
    <glyph glyph-name="Ccedilla" unicode="&#xc7;" horiz-adv-x="708" 
d="M663 158l-0.00488281 -107c-0.666992 -1.33301 -1.5 -2.16602 -2.5 -2.49902s-2.16699 -0.833008 -3.5 -1.5c-32 -16.667 -67.167 -30.167 -105.5 -40.5s-90.166 -15.5 -155.499 -15.5l-4 -14c16.667 -4.66699 29.834 -12.5 39.501 -23.5s14.5 -24.167 14.5 -39.5
c0 -31.333 -10.833 -54.5 -32.5 -69.5s-49.167 -22.5 -82.5 -22.5c-6.66699 0 -13.167 0.166992 -19.5 0.5s-13.166 1.16602 -20.499 2.49902v55c5.33301 -1.33301 10.333 -2 15 -2h14c16 0 29.167 2.33301 39.5 7s15.5 11.667 15.5 21c0 7.33301 -3.66699 13.5 -11 18.5
s-18.666 7.5 -33.999 7.5h-3c-1.33301 0 -2.33301 -0.333008 -3 -1h-3.5h-3.5l24 67c-77.333 12 -138.666 41 -183.999 87s-76.333 95.333 -93 148c-5.33301 16.667 -9.33301 33.167 -12 49.5s-4 32.166 -4 47.499c0 104 35.167 190 105.5 258s159.833 102 268.5 102
c35.333 0 71.5 -4.5 108.5 -13.5s78.833 -23.167 125.5 -42.5v-104c-26.667 14.667 -52.167 27.167 -76.5 37.5s-48.833 18.166 -73.5 23.499c-14 2.66699 -28 4.83398 -42 6.50098s-28.333 2.5 -43 2.5c-78 0 -142.833 -24.667 -194.5 -74s-77.5 -111.666 -77.5 -186.999
c0 -76.667 25.5 -139 76.5 -187s117.5 -72 199.5 -72c19.333 0 39 1.66699 59 5s40 8.33301 60 15s40 14.667 60 24s39.667 20.333 59 33v1z" />
    <glyph glyph-name="ring" unicode="&#xc8;" horiz-adv-x="500" 
d="M462 682v-88h-289v-206h279v-88h-279v-212h298v-88h-396v682h387v0zM244 874l67 -147h-55l-112 147h100v0z" />
    <glyph glyph-name="Eacute" unicode="&#xc9;" horiz-adv-x="500" 
d="M462 682v-88h-289v-206h279v-88h-279v-212h298v-88h-396v682h387v0zM262 874h100l-112 -147h-55l67 147v0z" />
    <glyph glyph-name="macron" unicode="&#xca;" horiz-adv-x="500" 
d="M462 682v-88h-289v-206h279v-88h-279v-212h298v-88h-396v682h387v0zM296 877l94 -151h-55l-87 87l-83 -87h-53l91 151h93v0z" />
    <glyph glyph-name="dotaccent" unicode="&#xcb;" horiz-adv-x="500" 
d="M462 682v-88h-289v-206h279v-88h-279v-212h298v-88h-396v682h387v0zM158 848c13.333 -0.666992 24.333 -5.33301 33 -14s13 -19.667 13 -33c0 -12.667 -4.33301 -23.667 -13 -33s-19.667 -14 -33 -14c-12.667 0 -23.667 4.66699 -33 14s-14 20.333 -14 33
c0 13.333 4.66699 24.333 14 33s20.333 13 33 13v1zM344 848.001c13.333 -0.666992 24.333 -5.33301 33 -14s13 -19.667 13 -33c0 -12.667 -4.33301 -23.667 -13 -33s-19.667 -14 -33 -14c-12.667 0 -23.667 4.66699 -33 14s-14 20.333 -14 33
c0 13.333 4.66699 24.333 14 33s20.333 13 33 13v1z" />
    <glyph glyph-name="caron" unicode="&#xcc;" horiz-adv-x="250" 
d="M174 682v-682h-98v682h98v0zM119 874l67 -147h-55l-112 147h100v0z" />
    <glyph glyph-name="cedilla" unicode="&#xcd;" horiz-adv-x="250" 
d="M174 682v-682h-98v682h98v0zM137 874h100l-112 -147h-55l67 147v0z" />
    <glyph glyph-name="hungarumlaut" unicode="&#xce;" horiz-adv-x="250" 
d="M174 682v-682h-98v682h98v0zM171 877l94 -151h-55l-87 87l-83 -87h-53l91 151h93v0z" />
    <glyph glyph-name="ogonek" unicode="&#xcf;" horiz-adv-x="250" 
d="M174 682v-682h-98v682h98v0zM33 848c13.333 -0.666992 24.333 -5.33301 33 -14s13 -19.667 13 -33c0 -12.667 -4.33301 -23.667 -13 -33s-19.667 -14 -33 -14c-12.667 0 -23.5 4.66699 -32.5 14s-13.5 20.333 -13.5 33c0 13.333 4.5 24.333 13.5 33s19.833 13 32.5 13v1z
M219 848.001c13.333 -0.666992 24.333 -5.33301 33 -14s13 -19.667 13 -33c0 -12.667 -4.33301 -23.667 -13 -33s-19.667 -14 -33 -14c-12.667 0 -23.667 4.66699 -33 14s-14 20.333 -14 33c0 13.333 4.66699 24.333 14 33s20.333 13 33 13v1z" />
    <glyph glyph-name="glyph232" unicode="&#xd0;" horiz-adv-x="750" 
d="M76 0v297h-80v88h80v297h265c114 -0.666992 203 -36.167 267 -106.5s96 -148.833 96 -235.5c0 -88.667 -32.167 -167.5 -96.5 -236.5s-152.833 -103.5 -265.5 -103.5h-266v0zM174 88h158c76 -0.666992 140.167 20.833 192.5 64.5s78.5 106.167 78.5 187.5
c0 68.667 -22.5 128 -67.5 178s-115.167 75 -210.5 75l-151 1v-209h193v-88h-193v-209v0z" />
    <glyph glyph-name="Ntilde" unicode="&#xd1;" horiz-adv-x="781" 
d="M706 682v-682h-84l-456 525v-525h-92v682h78l462 -528v528h92v0zM499 863l38.001 0.000976562c0 -36 -7.33301 -64.833 -22 -86.5s-33.667 -32.5 -57 -32.5c-14 0 -26.833 1.83301 -38.5 5.5s-22.834 7.83398 -33.501 12.501
c-3.33301 0.666992 -6.66602 1.66699 -9.99902 3s-6.33301 2.66602 -9 3.99902c-8 2.66699 -15.833 5 -23.5 7s-15.834 3 -24.501 3c-10 0 -17.833 -3 -23.5 -9s-9.16699 -14.667 -10.5 -26l-41 1c2.66699 36 10.667 64 24 84s31.333 30 54 30
c6.66699 0 13.5 -0.5 20.5 -1.5s14.167 -2.5 21.5 -4.5c6 -2 12 -3.83301 18 -5.5s12 -3.5 18 -5.5c12.667 -4.66699 24.5 -8.83398 35.5 -12.501s20.167 -5.5 27.5 -5.5c10 0 18 3 24 9s10 15.667 12 29v1z" />
    <glyph glyph-name="scaron" unicode="&#xd2;" 
 />
    <glyph glyph-name="Lslash" unicode="&#xd3;" horiz-adv-x="823" 
d="M45 341c0 94 33.3311 175.667 99.998 245s155.334 104 266.001 104c112.667 0 202 -34.5 268 -103.5s99 -151.167 99 -246.5c0 -92 -32.667 -173.167 -98 -243.5s-155.666 -105.5 -270.999 -105.5c-111.333 0 -199.833 35 -265.5 105s-98.5 151.333 -98.5 244v1z
M145.998 341c0 -75.333 25.167 -137.667 75.5 -187s113.5 -74 189.5 -74c76.667 0 140.167 24.667 190.5 74s75.5 111.333 75.5 186c0 75.333 -25.167 137.5 -75.5 186.5s-113.833 73.5 -190.5 73.5c-76 0 -139.167 -24.5 -189.5 -73.5s-75.5 -111.167 -75.5 -186.5v1z
M422.998 873.999h100l-112 -147h-55l67 147v0z" />
    <glyph glyph-name="lslash" unicode="&#xd4;" horiz-adv-x="823" 
d="M45 341c0 94 33.3311 175.667 99.998 245s155.334 104 266.001 104c112.667 0 202 -34.5 268 -103.5s99 -151.167 99 -246.5c0 -92 -32.667 -173.167 -98 -243.5s-155.666 -105.5 -270.999 -105.5c-111.333 0 -199.833 35 -265.5 105s-98.5 151.333 -98.5 244v1z
M145.998 341c0 -75.333 25.167 -137.667 75.5 -187s113.5 -74 189.5 -74c76.667 0 140.167 24.667 190.5 74s75.5 111.333 75.5 186c0 75.333 -25.167 137.5 -75.5 186.5s-113.833 73.5 -190.5 73.5c-76 0 -139.167 -24.5 -189.5 -73.5s-75.5 -111.167 -75.5 -186.5v1z
M456.998 876.999l94 -151h-55l-87 87l-83 -87h-53l91 151h93v0z" />
    <glyph glyph-name="guilsinglright" unicode="&#xd5;" horiz-adv-x="823" 
d="M45 341c0 94 33.3311 175.667 99.998 245s155.334 104 266.001 104c112.667 0 202 -34.5 268 -103.5s99 -151.167 99 -246.5c0 -92 -32.667 -173.167 -98 -243.5s-155.666 -105.5 -270.999 -105.5c-111.333 0 -199.833 35 -265.5 105s-98.5 151.333 -98.5 244v1z
M145.998 341c0 -75.333 25.167 -137.667 75.5 -187s113.5 -74 189.5 -74c76.667 0 140.167 24.667 190.5 74s75.5 111.333 75.5 186c0 75.333 -25.167 137.5 -75.5 186.5s-113.833 73.5 -190.5 73.5c-76 0 -139.167 -24.5 -189.5 -73.5s-75.5 -111.167 -75.5 -186.5v1z
M519.998 862.999l38.001 0.000976562c0 -36 -7.33301 -64.833 -22 -86.5s-33.667 -32.5 -57 -32.5c-14 0 -26.833 1.83301 -38.5 5.5s-22.834 7.83398 -33.501 12.501c-3.33301 0.666992 -6.66602 1.66699 -9.99902 3s-6.33301 2.66602 -9 3.99902
c-8 2.66699 -15.833 5 -23.5 7s-15.834 3 -24.501 3c-10 0 -17.833 -3 -23.5 -9s-9.16699 -14.667 -10.5 -26l-41 1c2.66699 36 10.667 64 24 84s31.333 30 54 30c6.66699 0 13.5 -0.5 20.5 -1.5s14.167 -2.5 21.5 -4.5c6 -2 12 -3.83301 18 -5.5s12 -3.5 18 -5.5
c12.667 -4.66699 24.5 -8.83398 35.5 -12.501s20.167 -5.5 27.5 -5.5c10 0 18 3 24 9s10 15.667 12 29v1z" />
    <glyph glyph-name="Odieresis" unicode="&#xd6;" horiz-adv-x="823" 
d="M45 341c0 94 33.3311 175.667 99.998 245s155.334 104 266.001 104c112.667 0 202 -34.5 268 -103.5s99 -151.167 99 -246.5c0 -92 -32.667 -173.167 -98 -243.5s-155.666 -105.5 -270.999 -105.5c-111.333 0 -199.833 35 -265.5 105s-98.5 151.333 -98.5 244v1z
M145.998 341c0 -75.333 25.167 -137.667 75.5 -187s113.5 -74 189.5 -74c76.667 0 140.167 24.667 190.5 74s75.5 111.333 75.5 186c0 75.333 -25.167 137.5 -75.5 186.5s-113.833 73.5 -190.5 73.5c-76 0 -139.167 -24.5 -189.5 -73.5s-75.5 -111.167 -75.5 -186.5v1z
M318.998 847.999c13.333 -0.666992 24.333 -5.33301 33 -14s13 -19.667 13 -33c0 -12.667 -4.33301 -23.667 -13 -33s-19.667 -14 -33 -14c-12.667 0 -23.667 4.66699 -33 14s-14 20.333 -14 33c0 13.333 4.66699 24.333 14 33s20.333 13 33 13v1zM504.998 848
c13.333 -0.666992 24.333 -5.33301 33 -14s13 -19.667 13 -33c0 -12.667 -4.33301 -23.667 -13 -33s-19.667 -14 -33 -14c-12.667 0 -23.667 4.66699 -33 14s-14 20.333 -14 33c0 13.333 4.66699 24.333 14 33s20.333 13 33 13v1z" />
    <glyph glyph-name="multiply" unicode="&#xd7;" 
 />
    <glyph glyph-name="plusminus" unicode="&#xd8;" horiz-adv-x="823" 
d="M198 51l-46.999 -54.999l-47 33l49 57c-34.667 34 -61.334 72.333 -80.001 115s-28 89 -28 139c0 94.667 33.333 176.667 100 246s155.334 104 266.001 104c41.333 0 79.166 -4.66699 113.499 -14s66.166 -23.666 95.499 -42.999l51 60l46 -40l-48 -56
c31.333 -28.667 56.333 -63.334 75 -104.001s29.667 -82.334 33 -125.001c0 -4.66699 0.166992 -9.33398 0.5 -14.001s0.5 -9.33398 0.5 -14.001c0 -92 -32.667 -173.167 -98 -243.5s-155.666 -105.5 -270.999 -105.5c-5.33301 0 -10.833 0.166992 -16.5 0.5
s-11.167 0.5 -16.5 0.5c-32 2.66699 -63.333 8.83398 -94 18.501s-58.667 22.834 -84 39.501v1zM605.001 523.001l-344 -399.001c20.667 -13.333 43.167 -24 67.5 -32s51.833 -12 82.5 -12c76.667 0 140.167 24.667 190.5 74s75.5 111.333 75.5 186
c0 37.333 -6.5 71.333 -19.5 102s-30.5 57.334 -52.5 80.001v1zM216.001 160l342 400.999c-1.33301 0 -2.5 0.333008 -3.5 1s-2.16699 1.33398 -3.5 2.00098c-20.667 11.333 -42 20.166 -64 26.499s-47.333 9.5 -76 9.5c-76 0 -139.167 -24.5 -189.5 -73.5
s-75.5 -111.167 -75.5 -186.5c0 -36.667 6.16699 -69.667 18.5 -99s29.5 -56.666 51.5 -81.999v1z" />
    <glyph glyph-name="Thorn" unicode="&#xd9;" horiz-adv-x="708" 
d="M648 682l-0.000976562 -414c0 -84 -25.167 -151.167 -75.5 -201.5s-126.166 -75.5 -227.499 -75.5c-72 0 -137.333 21.167 -196 63.5s-88 109.833 -88 202.5v425h98v-403c0 -39.333 3 -68.833 9 -88.5s16.667 -37.167 32 -52.5c19.333 -19.333 41.333 -33.833 66 -43.5
s51.667 -14.5 81 -14.5c37.333 0 69.5 5.33301 96.5 16s48.167 23.667 63.5 39c17.333 17.333 28.833 38.5 34.5 63.5s8.5 53.5 8.5 85.5v398h98v0zM347.999 874l67 -147h-55l-112 147h100v0z" />
    <glyph glyph-name="Eth" unicode="&#xda;" horiz-adv-x="708" 
d="M648 682l-0.000976562 -414c0 -84 -25.167 -151.167 -75.5 -201.5s-126.166 -75.5 -227.499 -75.5c-72 0 -137.333 21.167 -196 63.5s-88 109.833 -88 202.5v425h98v-403c0 -39.333 3 -68.833 9 -88.5s16.667 -37.167 32 -52.5c19.333 -19.333 41.333 -33.833 66 -43.5
s51.667 -14.5 81 -14.5c37.333 0 69.5 5.33301 96.5 16s48.167 23.667 63.5 39c17.333 17.333 28.833 38.5 34.5 63.5s8.5 53.5 8.5 85.5v398h98v0zM365.999 874h100l-112 -147h-55l67 147v0z" />
    <glyph glyph-name="eth" unicode="&#xdb;" horiz-adv-x="708" 
d="M648 682l-0.000976562 -414c0 -84 -25.167 -151.167 -75.5 -201.5s-126.166 -75.5 -227.499 -75.5c-72 0 -137.333 21.167 -196 63.5s-88 109.833 -88 202.5v425h98v-403c0 -39.333 3 -68.833 9 -88.5s16.667 -37.167 32 -52.5c19.333 -19.333 41.333 -33.833 66 -43.5
s51.667 -14.5 81 -14.5c37.333 0 69.5 5.33301 96.5 16s48.167 23.667 63.5 39c17.333 17.333 28.833 38.5 34.5 63.5s8.5 53.5 8.5 85.5v398h98v0zM399.999 877l94 -151h-55l-87 87l-83 -87h-53l91 151h93v0z" />
    <glyph glyph-name="Udieresis" unicode="&#xdc;" horiz-adv-x="708" 
d="M648 682l-0.000976562 -414c0 -84 -25.167 -151.167 -75.5 -201.5s-126.166 -75.5 -227.499 -75.5c-72 0 -137.333 21.167 -196 63.5s-88 109.833 -88 202.5v425h98v-403c0 -39.333 3 -68.833 9 -88.5s16.667 -37.167 32 -52.5c19.333 -19.333 41.333 -33.833 66 -43.5
s51.667 -14.5 81 -14.5c37.333 0 69.5 5.33301 96.5 16s48.167 23.667 63.5 39c17.333 17.333 28.833 38.5 34.5 63.5s8.5 53.5 8.5 85.5v398h98v0zM261.999 848c13.333 -0.666992 24.333 -5.33301 33 -14s13 -19.667 13 -33c0 -12.667 -4.33301 -23.667 -13 -33
s-19.667 -14 -33 -14c-12.667 0 -23.667 4.66699 -33 14s-14 20.333 -14 33c0 13.333 4.66699 24.333 14 33s20.333 13 33 13v1zM447.999 848.001c13.333 -0.666992 24.333 -5.33301 33 -14s13 -19.667 13 -33c0 -12.667 -4.33301 -23.667 -13 -33s-19.667 -14 -33 -14
c-12.667 0 -23.667 4.66699 -33 14s-14 20.333 -14 33c0 13.333 4.66699 24.333 14 33s20.333 13 33 13v1z" />
    <glyph glyph-name="Yacute" unicode="&#xdd;" 
 />
    <glyph glyph-name="glyph236" unicode="&#xde;" horiz-adv-x="510" 
d="M70 682h98v-148h115c74.667 -0.666992 129.5 -20.167 164.5 -58.5s52.5 -84.5 52.5 -138.5c0 -53.333 -18.5 -98.5 -55.5 -135.5s-95.167 -55.5 -174.5 -55.5l-102 1v-147h-98v682v0zM168 446l-0.000976562 -211h111c36.667 -0.666992 65.834 8.33301 87.501 27
s32.5 45 32.5 79v5.5v4.5c-2 23.333 -11.5 44.833 -28.5 64.5s-46.167 29.5 -87.5 29.5l-115 1v0z" />
    <glyph glyph-name="germandbls" unicode="&#xdf;" horiz-adv-x="500" 
d="M59 0l0.00292969 517c0 55.333 17.667 98 53 128s81 45 137 45c59.333 0 105.833 -14.667 139.5 -44s50.5 -69.666 50.5 -120.999c0 -34 -8.83301 -64.167 -26.5 -90.5s-41.834 -45.833 -72.501 -58.5v-1c40 -10.667 71.167 -31.667 93.5 -63s33.5 -70.333 33.5 -117
c0 -61.333 -16.5 -110.666 -49.5 -147.999s-76.5 -56 -130.5 -56h-9.5c-3 0 -5.83301 0.333008 -8.5 1c-6.66699 0.666992 -13.334 1.5 -20.001 2.5s-15.334 2.83301 -26.001 5.5v87c5.33301 -2.66699 9.83301 -4.83398 13.5 -6.50098s7.16699 -2.83398 10.5 -3.50098
s7 -1.16699 11 -1.5s8.33301 -0.5 13 -0.5c31.333 0 56.666 11.167 75.999 33.5s29 51.833 29 88.5c0 34 -9.16699 64.833 -27.5 92.5s-55.166 41.5 -110.499 41.5h-3.5h-3.5v81c1.33301 -0.666992 2.5 -1 3.5 -1h2.5c36.667 0 64.334 9.16699 83.001 27.5
s28 43.833 28 76.5c0 30 -9.33301 55.167 -28 75.5s-42 30.5 -70 30.5c-28.667 0 -52.834 -8.33301 -72.501 -25s-29.5 -47 -29.5 -91v-505h-89v0z" />
    <glyph glyph-name="agrave" unicode="&#xe0;" horiz-adv-x="427" 
d="M411 80l-0.00195312 -54.001c-14 -10 -25.667 -17.333 -35 -22s-18.333 -8 -27 -10c-4 -1.33301 -7.83301 -2.16602 -11.5 -2.49902s-7.83398 -0.5 -12.501 -0.5c-19.333 0 -34.5 3.5 -45.5 10.5s-18.5 18.5 -22.5 34.5c-19.333 -15.333 -39.166 -26.666 -59.499 -33.999
s-40.833 -11 -61.5 -11c-32.667 0 -59.167 11 -79.5 33s-30.5 47.333 -30.5 76c0 40 13.667 69.333 41 88s57.333 34 90 46l11.5 4l10.5 4l79 29v24c0 27.333 -6.66699 47.166 -20 59.499s-33.666 18.5 -60.999 18.5c-3.33301 0 -6.5 -0.166992 -9.5 -0.5
s-5.83301 -0.5 -8.5 -0.5c-22 -2.66699 -43.5 -10 -64.5 -22s-40.833 -29 -59.5 -51v98c17.333 20 38.333 35 63 45s53.334 15 86.001 15c45.333 0 83.833 -11.833 115.5 -35.5s47.5 -61.167 47.5 -112.5v-230c0 -9.33301 1.5 -15.666 4.5 -18.999s7.16699 -5 12.5 -5
c4.66699 0 11.167 2.16699 19.5 6.5s17.5 10.166 27.5 17.499v1zM257.998 90.999v131c-38 -13.333 -71.167 -27.666 -99.5 -42.999s-42.5 -36.333 -42.5 -63c0 -18.667 6 -33.834 18 -45.501s27.333 -17.5 46 -17.5c14 0 27.5 3.33301 40.5 10s25.5 15.667 37.5 27v1z
M186.998 653.999l67 -147h-55l-112 147h100v0z" />
    <glyph glyph-name="aacute" unicode="&#xe1;" horiz-adv-x="427" 
d="M411 80l-0.00195312 -54.001c-14 -10 -25.667 -17.333 -35 -22s-18.333 -8 -27 -10c-4 -1.33301 -7.83301 -2.16602 -11.5 -2.49902s-7.83398 -0.5 -12.501 -0.5c-19.333 0 -34.5 3.5 -45.5 10.5s-18.5 18.5 -22.5 34.5c-19.333 -15.333 -39.166 -26.666 -59.499 -33.999
s-40.833 -11 -61.5 -11c-32.667 0 -59.167 11 -79.5 33s-30.5 47.333 -30.5 76c0 40 13.667 69.333 41 88s57.333 34 90 46l11.5 4l10.5 4l79 29v24c0 27.333 -6.66699 47.166 -20 59.499s-33.666 18.5 -60.999 18.5c-3.33301 0 -6.5 -0.166992 -9.5 -0.5
s-5.83301 -0.5 -8.5 -0.5c-22 -2.66699 -43.5 -10 -64.5 -22s-40.833 -29 -59.5 -51v98c17.333 20 38.333 35 63 45s53.334 15 86.001 15c45.333 0 83.833 -11.833 115.5 -35.5s47.5 -61.167 47.5 -112.5v-230c0 -9.33301 1.5 -15.666 4.5 -18.999s7.16699 -5 12.5 -5
c4.66699 0 11.167 2.16699 19.5 6.5s17.5 10.166 27.5 17.499v1zM257.998 90.999v131c-38 -13.333 -71.167 -27.666 -99.5 -42.999s-42.5 -36.333 -42.5 -63c0 -18.667 6 -33.834 18 -45.501s27.333 -17.5 46 -17.5c14 0 27.5 3.33301 40.5 10s25.5 15.667 37.5 27v1z
M224.998 653.999h100l-112 -147h-55l67 147v0z" />
    <glyph glyph-name="acircumflex" unicode="&#xe2;" horiz-adv-x="427" 
d="M411 80l-0.00195312 -54.001c-14 -10 -25.667 -17.333 -35 -22s-18.333 -8 -27 -10c-4 -1.33301 -7.83301 -2.16602 -11.5 -2.49902s-7.83398 -0.5 -12.501 -0.5c-19.333 0 -34.5 3.5 -45.5 10.5s-18.5 18.5 -22.5 34.5c-19.333 -15.333 -39.166 -26.666 -59.499 -33.999
s-40.833 -11 -61.5 -11c-32.667 0 -59.167 11 -79.5 33s-30.5 47.333 -30.5 76c0 40 13.667 69.333 41 88s57.333 34 90 46l11.5 4l10.5 4l79 29v24c0 27.333 -6.66699 47.166 -20 59.499s-33.666 18.5 -60.999 18.5c-3.33301 0 -6.5 -0.166992 -9.5 -0.5
s-5.83301 -0.5 -8.5 -0.5c-22 -2.66699 -43.5 -10 -64.5 -22s-40.833 -29 -59.5 -51v98c17.333 20 38.333 35 63 45s53.334 15 86.001 15c45.333 0 83.833 -11.833 115.5 -35.5s47.5 -61.167 47.5 -112.5v-230c0 -9.33301 1.5 -15.666 4.5 -18.999s7.16699 -5 12.5 -5
c4.66699 0 11.167 2.16699 19.5 6.5s17.5 10.166 27.5 17.499v1zM257.998 90.999v131c-38 -13.333 -71.167 -27.666 -99.5 -42.999s-42.5 -36.333 -42.5 -63c0 -18.667 6 -33.834 18 -45.501s27.333 -17.5 46 -17.5c14 0 27.5 3.33301 40.5 10s25.5 15.667 37.5 27v1z
M238.998 656.999l94 -151h-55l-87 87l-83 -87h-53l91 151h93v0z" />
    <glyph glyph-name="atilde" unicode="&#xe3;" horiz-adv-x="427" 
d="M411 80l-0.00195312 -54.001c-14 -10 -25.667 -17.333 -35 -22s-18.333 -8 -27 -10c-4 -1.33301 -7.83301 -2.16602 -11.5 -2.49902s-7.83398 -0.5 -12.501 -0.5c-19.333 0 -34.5 3.5 -45.5 10.5s-18.5 18.5 -22.5 34.5c-19.333 -15.333 -39.166 -26.666 -59.499 -33.999
s-40.833 -11 -61.5 -11c-32.667 0 -59.167 11 -79.5 33s-30.5 47.333 -30.5 76c0 40 13.667 69.333 41 88s57.333 34 90 46l11.5 4l10.5 4l79 29v24c0 27.333 -6.66699 47.166 -20 59.499s-33.666 18.5 -60.999 18.5c-3.33301 0 -6.5 -0.166992 -9.5 -0.5
s-5.83301 -0.5 -8.5 -0.5c-22 -2.66699 -43.5 -10 -64.5 -22s-40.833 -29 -59.5 -51v98c17.333 20 38.333 35 63 45s53.334 15 86.001 15c45.333 0 83.833 -11.833 115.5 -35.5s47.5 -61.167 47.5 -112.5v-230c0 -9.33301 1.5 -15.666 4.5 -18.999s7.16699 -5 12.5 -5
c4.66699 0 11.167 2.16699 19.5 6.5s17.5 10.166 27.5 17.499v1zM257.998 90.999v131c-38 -13.333 -71.167 -27.666 -99.5 -42.999s-42.5 -36.333 -42.5 -63c0 -18.667 6 -33.834 18 -45.501s27.333 -17.5 46 -17.5c14 0 27.5 3.33301 40.5 10s25.5 15.667 37.5 27v1z
M301.998 642.999l38.001 0.000976562c0 -36 -7.33301 -64.833 -22 -86.5s-33.667 -32.5 -57 -32.5c-14 0 -26.833 1.83301 -38.5 5.5s-22.834 7.83398 -33.501 12.501c-3.33301 0.666992 -6.66602 1.66699 -9.99902 3s-6.33301 2.66602 -9 3.99902
c-8 2.66699 -15.833 5 -23.5 7s-15.834 3 -24.501 3c-10 0 -17.833 -3 -23.5 -9s-9.16699 -14.667 -10.5 -26l-41 1c2.66699 36 10.667 64 24 84s31.333 30 54 30c6.66699 0 13.5 -0.5 20.5 -1.5s14.167 -2.5 21.5 -4.5c6 -2 12 -3.83301 18 -5.5s12 -3.5 18 -5.5
c12.667 -4.66699 24.5 -8.83398 35.5 -12.501s20.167 -5.5 27.5 -5.5c10 0 18 3 24 9s10 15.667 12 29v1z" />
    <glyph glyph-name="adieresis" unicode="&#xe4;" horiz-adv-x="427" 
d="M411 80l-0.00195312 -54.001c-14 -10 -25.667 -17.333 -35 -22s-18.333 -8 -27 -10c-4 -1.33301 -7.83301 -2.16602 -11.5 -2.49902s-7.83398 -0.5 -12.501 -0.5c-19.333 0 -34.5 3.5 -45.5 10.5s-18.5 18.5 -22.5 34.5c-19.333 -15.333 -39.166 -26.666 -59.499 -33.999
s-40.833 -11 -61.5 -11c-32.667 0 -59.167 11 -79.5 33s-30.5 47.333 -30.5 76c0 40 13.667 69.333 41 88s57.333 34 90 46l11.5 4l10.5 4l79 29v24c0 27.333 -6.66699 47.166 -20 59.499s-33.666 18.5 -60.999 18.5c-3.33301 0 -6.5 -0.166992 -9.5 -0.5
s-5.83301 -0.5 -8.5 -0.5c-22 -2.66699 -43.5 -10 -64.5 -22s-40.833 -29 -59.5 -51v98c17.333 20 38.333 35 63 45s53.334 15 86.001 15c45.333 0 83.833 -11.833 115.5 -35.5s47.5 -61.167 47.5 -112.5v-230c0 -9.33301 1.5 -15.666 4.5 -18.999s7.16699 -5 12.5 -5
c4.66699 0 11.167 2.16699 19.5 6.5s17.5 10.166 27.5 17.499v1zM257.998 90.999v131c-38 -13.333 -71.167 -27.666 -99.5 -42.999s-42.5 -36.333 -42.5 -63c0 -18.667 6 -33.834 18 -45.501s27.333 -17.5 46 -17.5c14 0 27.5 3.33301 40.5 10s25.5 15.667 37.5 27v1z
M100.998 627.999c13.333 -0.666992 24.333 -5.33301 33 -14s13 -19.667 13 -33c0 -12.667 -4.33301 -23.667 -13 -33s-19.667 -14 -33 -14c-12.667 0 -23.667 4.66699 -33 14s-14 20.333 -14 33c0 13.333 4.66699 24.333 14 33s20.333 13 33 13v1zM286.998 628
c13.333 -0.666992 24.333 -5.33301 33 -14s13 -19.667 13 -33c0 -12.667 -4.33301 -23.667 -13 -33s-19.667 -14 -33 -14c-12.667 0 -23.667 4.66699 -33 14s-14 20.333 -14 33c0 13.333 4.66699 24.333 14 33s20.333 13 33 13v1z" />
    <glyph glyph-name="aring" unicode="&#xe5;" horiz-adv-x="427" 
d="M411 80l-0.00195312 -54.001c-14 -10 -25.667 -17.333 -35 -22s-18.333 -8 -27 -10c-4 -1.33301 -7.83301 -2.16602 -11.5 -2.49902s-7.83398 -0.5 -12.501 -0.5c-19.333 0 -34.5 3.5 -45.5 10.5s-18.5 18.5 -22.5 34.5c-19.333 -15.333 -39.166 -26.666 -59.499 -33.999
s-40.833 -11 -61.5 -11c-32.667 0 -59.167 11 -79.5 33s-30.5 47.333 -30.5 76c0 40 13.667 69.333 41 88s57.333 34 90 46l11.5 4l10.5 4l79 29v24c0 27.333 -6.66699 47.166 -20 59.499s-33.666 18.5 -60.999 18.5c-3.33301 0 -6.5 -0.166992 -9.5 -0.5
s-5.83301 -0.5 -8.5 -0.5c-22 -2.66699 -43.5 -10 -64.5 -22s-40.833 -29 -59.5 -51v98c17.333 20 38.333 35 63 45s53.334 15 86.001 15c45.333 0 83.833 -11.833 115.5 -35.5s47.5 -61.167 47.5 -112.5v-230c0 -9.33301 1.5 -15.666 4.5 -18.999s7.16699 -5 12.5 -5
c4.66699 0 11.167 2.16699 19.5 6.5s17.5 10.166 27.5 17.499v1zM257.998 90.999v131c-38 -13.333 -71.167 -27.666 -99.5 -42.999s-42.5 -36.333 -42.5 -63c0 -18.667 6 -33.834 18 -45.501s27.333 -17.5 46 -17.5c14 0 27.5 3.33301 40.5 10s25.5 15.667 37.5 27v1z
M193.998 690.999c25.333 -0.666992 47.166 -10.167 65.499 -28.5s27.5 -40.166 27.5 -65.499s-9.16699 -47.166 -27.5 -65.499s-40.166 -27.5 -65.499 -27.5s-47.166 9.16699 -65.499 27.5s-27.5 40.166 -27.5 65.499s9.16699 47.166 27.5 65.499s40.166 27.5 65.499 27.5v1
zM193.998 652.999c-14.667 -0.666992 -27.5 -6.33301 -38.5 -17s-16.5 -23.667 -16.5 -39c0 -14.667 5.5 -27.5 16.5 -38.5s23.833 -16.5 38.5 -16.5c15.333 0 28.333 5.5 39 16.5s16 23.833 16 38.5c0 15.333 -5.33301 28.333 -16 39s-23.667 16 -39 16v1z" />
    <glyph glyph-name="Otilde" unicode="&#xe6;" horiz-adv-x="667" 
d="M629 128l-0.00292969 -89.0049c-20 -15.333 -42.833 -27.166 -68.5 -35.499s-53.167 -12.5 -82.5 -12.5c-32.667 0 -63 6.33301 -91 19s-49 29.334 -63 50.001c-28.667 -23.333 -57.5 -40.666 -86.5 -51.999s-57.5 -17 -85.5 -17c-34 0 -62 10.667 -84 32
s-33 48.666 -33 81.999c0 38.667 15.333 68.834 46 90.501s77.667 41.834 141 60.501c6 2 12.333 3.83301 19 5.5l21 5.5c0.666992 3.33301 1 6.83301 1 10.5v10.5c0 29.333 -5.66699 51.5 -17 66.5s-29.666 22.5 -54.999 22.5c-23.333 0 -44.833 -4.16699 -64.5 -12.5
s-38.834 -21.166 -57.501 -38.499l-12 -12.5l-12 -13.5v108c17.333 14 38.333 25.667 63 35s52 14 82 14c27.333 0 52.833 -5.16699 76.5 -15.5s42.834 -24.5 57.501 -42.5c12.667 12 26.834 22.5 42.501 31.5s31.834 15.833 48.501 20.5c7.33301 2 14.333 3.5 21 4.5
s13.334 1.5 20.001 1.5c50 0 91.167 -17.667 123.5 -53s48.166 -84.333 47.499 -147v-7.5v-7.5l-276 1c0 -58.667 14 -102.167 42 -130.5s60.333 -42.5 97 -42.5c7.33301 0 14.5 0.5 21.5 1.5s13.833 2.16699 20.5 3.5c15.333 4 30.833 10.333 46.5 19s32.5 19.667 50.5 33
v1zM261.997 223.995l-39.499 -16.501c-12.333 -5 -23.5 -9.83301 -33.5 -14.5c-20.667 -10 -36.334 -20.5 -47.001 -31.5s-16 -23.833 -16 -38.5c0 -20 6 -37 18 -51s26.333 -21 43 -21h9.5c3 0 5.83301 0.333008 8.5 1c6.66699 1.33301 14.167 3.83301 22.5 7.5
s19.833 9.83398 34.5 18.501v146v0zM361.998 301.994l177.001 0.000976562c-3.33301 25.333 -11.833 44.166 -25.5 56.499s-34.167 18.5 -61.5 18.5c-20.667 0 -38.834 -6.83301 -54.501 -20.5s-27.5 -32.167 -35.5 -55.5v1z" />
    <glyph glyph-name="ccedilla" unicode="&#xe7;" horiz-adv-x="438" 
d="M403 105l-0.00585938 -87.9971c-14 -7.33301 -32.833 -13.333 -56.5 -18s-48.5 -7.33398 -74.5 -8.00098h-5h-6l-4 -14c16.667 -4.66699 29.834 -12.5 39.501 -23.5s14.5 -24.167 14.5 -39.5c0 -31.333 -10.833 -54.5 -32.5 -69.5s-49.167 -22.5 -82.5 -22.5
c-6.66699 0 -13.167 0.166992 -19.5 0.5s-13.166 1.16602 -20.499 2.49902v55c5.33301 -1.33301 10.333 -2 15 -2h14c16 0 29.167 2.33301 39.5 7s15.5 11.667 15.5 21c0 7.33301 -3.66699 13.5 -11 18.5s-18.666 7.5 -33.999 7.5h-3c-1.33301 0 -2.33301 -0.333008 -3 -1
h-3.5h-3.5l24 68c-49.333 11.333 -89.166 36.5 -119.499 75.5s-45.5 85.833 -45.5 140.5c0 74 20 132.833 60 176.5s94 65.5 162 65.5c18 0 34.167 -1.33301 48.5 -4s28.166 -6.33398 41.499 -11.001c6.66699 -2 13.334 -4.33301 20.001 -7s13.334 -5.66699 20.001 -9v-94
c-20 12.667 -37.667 22.167 -53 28.5s-30.333 10.5 -45 12.5c-4 0.666992 -8.16699 1.16699 -12.5 1.5s-8.83301 0.5 -13.5 0.5c-40.667 0 -73.667 -14 -99 -42s-38 -64.667 -38 -110c0 -46.667 13.833 -83.167 41.5 -109.5s64.5 -39.5 110.5 -39.5h10
c3.33301 0 7 0.333008 11 1c15.333 1.33301 30.833 4.5 46.5 9.5s32.834 11.5 51.501 19.5v1z" />
    <glyph glyph-name="egrave" unicode="&#xe8;" horiz-adv-x="479" 
d="M438 130l0.00195312 -86c-4 -3.33301 -8.16699 -6.33301 -12.5 -9s-8.5 -5 -12.5 -7c-22.667 -13.333 -46 -22.833 -70 -28.5s-52 -8.5 -84 -8.5c-70 0 -123.833 24.167 -161.5 72.5s-56.5 103.5 -56.5 165.5c0 68 19.5 123 58.5 165s89.5 63 151.5 63
c59.333 0 106.666 -20.333 141.999 -61s53 -102.667 53 -186l-316 1c7.33301 -45.333 23.666 -79.333 48.999 -102s59.333 -34 102 -34c20 0 39.833 2.66699 59.5 8s39.167 13 58.5 23c6.66699 3.33301 13.167 7 19.5 11l19.5 12v1zM132.002 270l226 -0.000976562
c-1.33301 33.333 -11.333 60 -30 80s-43.667 30 -75 30c-34 0 -61.167 -9.66699 -81.5 -29s-33.5 -46.666 -39.5 -81.999v1zM233.002 653.999l67 -147h-55l-112 147h100v0z" />
    <glyph glyph-name="eacute" unicode="&#xe9;" horiz-adv-x="479" 
d="M438 130l0.00195312 -86c-4 -3.33301 -8.16699 -6.33301 -12.5 -9s-8.5 -5 -12.5 -7c-22.667 -13.333 -46 -22.833 -70 -28.5s-52 -8.5 -84 -8.5c-70 0 -123.833 24.167 -161.5 72.5s-56.5 103.5 -56.5 165.5c0 68 19.5 123 58.5 165s89.5 63 151.5 63
c59.333 0 106.666 -20.333 141.999 -61s53 -102.667 53 -186l-316 1c7.33301 -45.333 23.666 -79.333 48.999 -102s59.333 -34 102 -34c20 0 39.833 2.66699 59.5 8s39.167 13 58.5 23c6.66699 3.33301 13.167 7 19.5 11l19.5 12v1zM132.002 270l226 -0.000976562
c-1.33301 33.333 -11.333 60 -30 80s-43.667 30 -75 30c-34 0 -61.167 -9.66699 -81.5 -29s-33.5 -46.666 -39.5 -81.999v1zM251.002 653.999h100l-112 -147h-55l67 147v0z" />
    <glyph glyph-name="ecircumflex" unicode="&#xea;" horiz-adv-x="479" 
d="M438 130l0.00195312 -86c-4 -3.33301 -8.16699 -6.33301 -12.5 -9s-8.5 -5 -12.5 -7c-22.667 -13.333 -46 -22.833 -70 -28.5s-52 -8.5 -84 -8.5c-70 0 -123.833 24.167 -161.5 72.5s-56.5 103.5 -56.5 165.5c0 68 19.5 123 58.5 165s89.5 63 151.5 63
c59.333 0 106.666 -20.333 141.999 -61s53 -102.667 53 -186l-316 1c7.33301 -45.333 23.666 -79.333 48.999 -102s59.333 -34 102 -34c20 0 39.833 2.66699 59.5 8s39.167 13 58.5 23c6.66699 3.33301 13.167 7 19.5 11l19.5 12v1zM132.002 270l226 -0.000976562
c-1.33301 33.333 -11.333 60 -30 80s-43.667 30 -75 30c-34 0 -61.167 -9.66699 -81.5 -29s-33.5 -46.666 -39.5 -81.999v1zM285.002 656.999l94 -151h-55l-87 87l-83 -87h-53l91 151h93v0z" />
    <glyph glyph-name="edieresis" unicode="&#xeb;" horiz-adv-x="479" 
d="M438 130l0.00195312 -86c-4 -3.33301 -8.16699 -6.33301 -12.5 -9s-8.5 -5 -12.5 -7c-22.667 -13.333 -46 -22.833 -70 -28.5s-52 -8.5 -84 -8.5c-70 0 -123.833 24.167 -161.5 72.5s-56.5 103.5 -56.5 165.5c0 68 19.5 123 58.5 165s89.5 63 151.5 63
c59.333 0 106.666 -20.333 141.999 -61s53 -102.667 53 -186l-316 1c7.33301 -45.333 23.666 -79.333 48.999 -102s59.333 -34 102 -34c20 0 39.833 2.66699 59.5 8s39.167 13 58.5 23c6.66699 3.33301 13.167 7 19.5 11l19.5 12v1zM132.002 270l226 -0.000976562
c-1.33301 33.333 -11.333 60 -30 80s-43.667 30 -75 30c-34 0 -61.167 -9.66699 -81.5 -29s-33.5 -46.666 -39.5 -81.999v1zM147.002 627.999c13.333 -0.666992 24.333 -5.33301 33 -14s13 -19.667 13 -33c0 -12.667 -4.33301 -23.667 -13 -33s-19.667 -14 -33 -14
c-12.667 0 -23.667 4.66699 -33 14s-14 20.333 -14 33c0 13.333 4.66699 24.333 14 33s20.333 13 33 13v1zM333.002 628c13.333 -0.666992 24.333 -5.33301 33 -14s13 -19.667 13 -33c0 -12.667 -4.33301 -23.667 -13 -33s-19.667 -14 -33 -14
c-12.667 0 -23.667 4.66699 -33 14s-14 20.333 -14 33c0 13.333 4.66699 24.333 14 33s20.333 13 33 13v1z" />
    <glyph glyph-name="igrave" unicode="&#xec;" horiz-adv-x="219" 
d="M154 449v-449h-89v449h89v0zM103 654l67 -147h-55l-112 147h100v0z" />
    <glyph glyph-name="iacute" unicode="&#xed;" horiz-adv-x="219" 
d="M154 449v-449h-89v449h89v0zM121 654h100l-112 -147h-55l67 147v0z" />
    <glyph glyph-name="icircumflex" unicode="&#xee;" horiz-adv-x="219" 
d="M154 449v-449h-89v449h89v0zM155 657l94 -151h-55l-87 87l-83 -87h-53l91 151h93v0z" />
    <glyph glyph-name="idieresis" unicode="&#xef;" horiz-adv-x="219" 
d="M154 449v-449h-89v449h89v0zM17 628c13.333 -0.666992 24.333 -5.33301 33 -14s13 -19.667 13 -33c0 -12.667 -4.33301 -23.667 -13 -33s-19.667 -14 -33 -14c-12.667 0 -23.5 4.66699 -32.5 14s-13.5 20.333 -13.5 33c0 13.333 4.5 24.333 13.5 33s19.833 13 32.5 13v1z
M203 628.001c13.333 -0.666992 24.333 -5.33301 33 -14s13 -19.667 13 -33c0 -12.667 -4.33301 -23.667 -13 -33s-19.667 -14 -33 -14c-12.667 0 -23.667 4.66699 -33 14s-14 20.333 -14 33c0 13.333 4.66699 24.333 14 33s20.333 13 33 13v1z" />
    <glyph glyph-name="glyph233" unicode="&#xf0;" horiz-adv-x="563" 
d="M502 637l-102.998 -49.0029c21.333 -24.667 39.5 -50.5 54.5 -77.5s27.167 -54.167 36.5 -81.5c8.66699 -26 15.167 -51.5 19.5 -76.5s6.5 -48.833 6.5 -71.5c0 -96 -21.333 -168.333 -64 -217s-102.334 -73 -179.001 -73c-68.667 0 -125.334 22.333 -170.001 67
s-67 101.334 -67 170.001c0 64.667 22.833 119 68.5 163s101.834 66 168.501 66c10 0 22.5 -1 37.5 -3s30.5 -6 46.5 -12c7.33301 -3.33301 14.833 -7.16602 22.5 -11.499s14.834 -9.5 21.501 -15.5l2 3c-4.66699 12.667 -11.667 26.667 -21 42s-20 31 -32 47
c-5.33301 6.66699 -11 13.334 -17 20.001l-18 20l-133 -62l-28 53l113 53c-10.667 7.33301 -21.5 14.333 -32.5 21s-22.5 12.667 -34.5 18l61 60c17.333 -8 33.666 -17 48.999 -27s29.666 -20.667 42.999 -32l121 59l28 -53v0zM127.002 228.997
c0 -48 13.502 -86.499 40.502 -115.499s61.833 -43.5 104.5 -43.5c47.333 0 84.666 14 111.999 42s41 66.333 41 115c0 43.333 -14.333 79.166 -43 107.499s-65.334 42.5 -110.001 42.5c-42 0 -76.667 -14 -104 -42s-41 -63.667 -41 -107v1z" />
    <glyph glyph-name="ntilde" unicode="&#xf1;" horiz-adv-x="500" 
d="M150 449l-0.000976562 -59.001h2c17.333 20.667 37.833 37 61.5 49s47.834 18 72.501 18c42.667 0 78.834 -14.833 108.501 -44.5s44.5 -75.167 44.5 -136.5v-276h-89v278c0 32.667 -7.83301 58.834 -23.5 78.501s-37.167 29.5 -64.5 29.5
c-8 0 -15.833 -0.833008 -23.5 -2.5s-15.167 -4.16699 -22.5 -7.5c-10.667 -5.33301 -21.334 -12.5 -32.001 -21.5s-22 -20.167 -34 -33.5v-321h-89v449h89v0zM358.999 642.999l38.001 0.000976562c0 -36 -7.33301 -64.833 -22 -86.5s-33.667 -32.5 -57 -32.5
c-14 0 -26.833 1.83301 -38.5 5.5s-22.834 7.83398 -33.501 12.501c-3.33301 0.666992 -6.66602 1.66699 -9.99902 3s-6.33301 2.66602 -9 3.99902c-8 2.66699 -15.833 5 -23.5 7s-15.834 3 -24.501 3c-10 0 -17.833 -3 -23.5 -9s-9.16699 -14.667 -10.5 -26l-41 1
c2.66699 36 10.667 64 24 84s31.333 30 54 30c6.66699 0 13.5 -0.5 20.5 -1.5s14.167 -2.5 21.5 -4.5c6 -2 12 -3.83301 18 -5.5s12 -3.5 18 -5.5c12.667 -4.66699 24.5 -8.83398 35.5 -12.501s20.167 -5.5 27.5 -5.5c10 0 18 3 24 9s10 15.667 12 29v1z" />
    <glyph glyph-name="ograve" unicode="&#xf2;" horiz-adv-x="552" 
d="M273 458c70.667 -0.666992 128.833 -22.5 174.5 -65.5s68.5 -97.833 68.5 -164.5c0 -70.667 -22.5 -127.834 -67.5 -171.501s-103.5 -65.5 -175.5 -65.5c-68.667 0 -125.334 22.333 -170.001 67s-67 101.334 -67 170.001c0 64.667 22.833 119 68.5 163
s101.834 66 168.501 66v1zM271.999 378c-42 -0.666992 -76.665 -14.999 -103.998 -42.999s-41 -63.667 -41 -107c0 -47.333 13.5 -85.5 40.5 -114.5s61.833 -43.5 104.5 -43.5c47.333 0 84.666 14 111.999 42s41 66.333 41 115c0 43.333 -14.333 79.166 -43 107.499
s-65.334 42.5 -110.001 42.5v1zM270.001 654.001l67 -147h-55l-112 147h100v0z" />
    <glyph glyph-name="oacute" unicode="&#xf3;" horiz-adv-x="552" 
d="M273 458c70.667 -0.666992 128.833 -22.5 174.5 -65.5s68.5 -97.833 68.5 -164.5c0 -70.667 -22.5 -127.834 -67.5 -171.501s-103.5 -65.5 -175.5 -65.5c-68.667 0 -125.334 22.333 -170.001 67s-67 101.334 -67 170.001c0 64.667 22.833 119 68.5 163
s101.834 66 168.501 66v1zM271.999 378c-42 -0.666992 -76.665 -14.999 -103.998 -42.999s-41 -63.667 -41 -107c0 -47.333 13.5 -85.5 40.5 -114.5s61.833 -43.5 104.5 -43.5c47.333 0 84.666 14 111.999 42s41 66.333 41 115c0 43.333 -14.333 79.166 -43 107.499
s-65.334 42.5 -110.001 42.5v1zM288.001 654.001h100l-112 -147h-55l67 147v0z" />
    <glyph glyph-name="ocircumflex" unicode="&#xf4;" horiz-adv-x="552" 
d="M273 458c70.667 -0.666992 128.833 -22.5 174.5 -65.5s68.5 -97.833 68.5 -164.5c0 -70.667 -22.5 -127.834 -67.5 -171.501s-103.5 -65.5 -175.5 -65.5c-68.667 0 -125.334 22.333 -170.001 67s-67 101.334 -67 170.001c0 64.667 22.833 119 68.5 163
s101.834 66 168.501 66v1zM271.999 378c-42 -0.666992 -76.665 -14.999 -103.998 -42.999s-41 -63.667 -41 -107c0 -47.333 13.5 -85.5 40.5 -114.5s61.833 -43.5 104.5 -43.5c47.333 0 84.666 14 111.999 42s41 66.333 41 115c0 43.333 -14.333 79.166 -43 107.499
s-65.334 42.5 -110.001 42.5v1zM322.001 657.001l94 -151h-55l-87 87l-83 -87h-53l91 151h93v0z" />
    <glyph glyph-name="otilde" unicode="&#xf5;" horiz-adv-x="552" 
d="M273 458c70.667 -0.666992 128.833 -22.5 174.5 -65.5s68.5 -97.833 68.5 -164.5c0 -70.667 -22.5 -127.834 -67.5 -171.501s-103.5 -65.5 -175.5 -65.5c-68.667 0 -125.334 22.333 -170.001 67s-67 101.334 -67 170.001c0 64.667 22.833 119 68.5 163
s101.834 66 168.501 66v1zM271.999 378c-42 -0.666992 -76.665 -14.999 -103.998 -42.999s-41 -63.667 -41 -107c0 -47.333 13.5 -85.5 40.5 -114.5s61.833 -43.5 104.5 -43.5c47.333 0 84.666 14 111.999 42s41 66.333 41 115c0 43.333 -14.333 79.166 -43 107.499
s-65.334 42.5 -110.001 42.5v1zM385.001 643.001l38.001 0.000976562c0 -36 -7.33301 -64.833 -22 -86.5s-33.667 -32.5 -57 -32.5c-14 0 -26.833 1.83301 -38.5 5.5s-22.834 7.83398 -33.501 12.501c-3.33301 0.666992 -6.66602 1.66699 -9.99902 3
s-6.33301 2.66602 -9 3.99902c-8 2.66699 -15.833 5 -23.5 7s-15.834 3 -24.501 3c-10 0 -17.833 -3 -23.5 -9s-9.16699 -14.667 -10.5 -26l-41 1c2.66699 36 10.667 64 24 84s31.333 30 54 30c6.66699 0 13.5 -0.5 20.5 -1.5s14.167 -2.5 21.5 -4.5
c6 -2 12 -3.83301 18 -5.5s12 -3.5 18 -5.5c12.667 -4.66699 24.5 -8.83398 35.5 -12.501s20.167 -5.5 27.5 -5.5c10 0 18 3 24 9s10 15.667 12 29v1z" />
    <glyph glyph-name="odieresis" unicode="&#xf6;" horiz-adv-x="552" 
d="M273 458c70.667 -0.666992 128.833 -22.5 174.5 -65.5s68.5 -97.833 68.5 -164.5c0 -70.667 -22.5 -127.834 -67.5 -171.501s-103.5 -65.5 -175.5 -65.5c-68.667 0 -125.334 22.333 -170.001 67s-67 101.334 -67 170.001c0 64.667 22.833 119 68.5 163
s101.834 66 168.501 66v1zM271.999 378c-42 -0.666992 -76.665 -14.999 -103.998 -42.999s-41 -63.667 -41 -107c0 -47.333 13.5 -85.5 40.5 -114.5s61.833 -43.5 104.5 -43.5c47.333 0 84.666 14 111.999 42s41 66.333 41 115c0 43.333 -14.333 79.166 -43 107.499
s-65.334 42.5 -110.001 42.5v1zM184.001 628.001c13.333 -0.666992 24.333 -5.33301 33 -14s13 -19.667 13 -33c0 -12.667 -4.33301 -23.667 -13 -33s-19.667 -14 -33 -14c-12.667 0 -23.667 4.66699 -33 14s-14 20.333 -14 33c0 13.333 4.66699 24.333 14 33
s20.333 13 33 13v1zM370.001 628.002c13.333 -0.666992 24.333 -5.33301 33 -14s13 -19.667 13 -33c0 -12.667 -4.33301 -23.667 -13 -33s-19.667 -14 -33 -14c-12.667 0 -23.667 4.66699 -33 14s-14 20.333 -14 33c0 13.333 4.66699 24.333 14 33s20.333 13 33 13v1z" />
    <glyph glyph-name="Aacute" unicode="&#xf7;" 
 />
    <glyph glyph-name="OE" unicode="&#xf8;" horiz-adv-x="552" 
d="M138 29l-56.001 -65.999l-33 30l55 64c-20.667 20.667 -37.167 45.667 -49.5 75s-18.5 61.333 -18.5 96c0 64.667 22.833 119 68.5 163s101.834 66 168.501 66c28 0 54.167 -3.5 78.5 -10.5s44.833 -16.5 61.5 -28.5l47 55l33 -30l-44 -51
c22 -22.667 38.667 -47.667 50 -75s17 -57 17 -89c0 -70.667 -22.5 -127.834 -67.5 -171.501s-103.5 -65.5 -175.5 -65.5c-26.667 0 -51.5 3.5 -74.5 10.5s-43.167 15.833 -60.5 26.5v1zM391.999 325.001l-198.998 -232.001c11.333 -7.33301 23.166 -13 35.499 -17
s26.833 -6 43.5 -6c47.333 0 84.666 14 111.999 42s41 66.333 41 115c0 6.66699 -0.666992 14 -2 22s-3 16.333 -5 25c-2.66699 8.66699 -6.16699 17.334 -10.5 26.001s-9.5 16.667 -15.5 24v1zM160.001 123l199.002 232c-0.666992 0 -1.33398 0.166992 -2.00098 0.5l-3 1.5
c-9.33301 4.66699 -21 9.16699 -35 13.5s-29.667 6.5 -47 6.5c-42 0 -76.667 -14 -104 -42s-41 -63.667 -41 -107c0 -5.33301 0.166992 -10.833 0.5 -16.5s1.16602 -11.167 2.49902 -16.5c2 -13.333 5.5 -26.333 10.5 -39s11.5 -24 19.5 -34v1z" />
    <glyph glyph-name="ugrave" unicode="&#xf9;" horiz-adv-x="500" 
d="M437 0l-89.001 0.000976562v57c-12 -14 -25.333 -25.833 -40 -35.5s-29.667 -16.834 -45 -21.501c-8 -2.66699 -16.167 -4.83398 -24.5 -6.50098s-16.166 -2.5 -23.499 -2.5c-45.333 0 -82.5 15.5 -111.5 46.5s-43.5 74.833 -43.5 131.5v280h89v-285
c0 -32 7.66699 -56.667 23 -74s38.333 -26 69 -26c20 0 39.167 5.33301 57.5 16s34.833 26.334 49.5 47.001v322h89v-449v0zM243.999 654.001l67 -147h-55l-112 147h100v0z" />
    <glyph glyph-name="uacute" unicode="&#xfa;" horiz-adv-x="500" 
d="M437 0l-89.001 0.000976562v57c-12 -14 -25.333 -25.833 -40 -35.5s-29.667 -16.834 -45 -21.501c-8 -2.66699 -16.167 -4.83398 -24.5 -6.50098s-16.166 -2.5 -23.499 -2.5c-45.333 0 -82.5 15.5 -111.5 46.5s-43.5 74.833 -43.5 131.5v280h89v-285
c0 -32 7.66699 -56.667 23 -74s38.333 -26 69 -26c20 0 39.167 5.33301 57.5 16s34.833 26.334 49.5 47.001v322h89v-449v0zM261.999 654.001h100l-112 -147h-55l67 147v0z" />
    <glyph glyph-name="ucircumflex" unicode="&#xfb;" horiz-adv-x="500" 
d="M437 0l-89.001 0.000976562v57c-12 -14 -25.333 -25.833 -40 -35.5s-29.667 -16.834 -45 -21.501c-8 -2.66699 -16.167 -4.83398 -24.5 -6.50098s-16.166 -2.5 -23.499 -2.5c-45.333 0 -82.5 15.5 -111.5 46.5s-43.5 74.833 -43.5 131.5v280h89v-285
c0 -32 7.66699 -56.667 23 -74s38.333 -26 69 -26c20 0 39.167 5.33301 57.5 16s34.833 26.334 49.5 47.001v322h89v-449v0zM295.999 657.001l94 -151h-55l-87 87l-83 -87h-53l91 151h93v0z" />
    <glyph glyph-name="udieresis" unicode="&#xfc;" horiz-adv-x="500" 
d="M437 0l-89.001 0.000976562v57c-12 -14 -25.333 -25.833 -40 -35.5s-29.667 -16.834 -45 -21.501c-8 -2.66699 -16.167 -4.83398 -24.5 -6.50098s-16.166 -2.5 -23.499 -2.5c-45.333 0 -82.5 15.5 -111.5 46.5s-43.5 74.833 -43.5 131.5v280h89v-285
c0 -32 7.66699 -56.667 23 -74s38.333 -26 69 -26c20 0 39.167 5.33301 57.5 16s34.833 26.334 49.5 47.001v322h89v-449v0zM157.999 628.001c13.333 -0.666992 24.333 -5.33301 33 -14s13 -19.667 13 -33c0 -12.667 -4.33301 -23.667 -13 -33s-19.667 -14 -33 -14
c-12.667 0 -23.667 4.66699 -33 14s-14 20.333 -14 33c0 13.333 4.66699 24.333 14 33s20.333 13 33 13v1zM343.999 628.002c13.333 -0.666992 24.333 -5.33301 33 -14s13 -19.667 13 -33c0 -12.667 -4.33301 -23.667 -13 -33s-19.667 -14 -33 -14
c-12.667 0 -23.667 4.66699 -33 14s-14 20.333 -14 33c0 13.333 4.66699 24.333 14 33s20.333 13 33 13v1z" />
    <glyph glyph-name="yacute" unicode="&#xfd;" 
 />
    <glyph glyph-name="glyph237" unicode="&#xfe;" horiz-adv-x="500" 
d="M146 11l-0.000976562 -241h-89v912h89v-233h65c82 -0.666992 144.667 -20.5 188 -59.5s65 -95.5 65 -169.5c0 -67.333 -21.333 -122.333 -64 -165s-97.334 -64 -164.001 -64h-9.5c-3 0 -6.16699 0.333008 -9.5 1c-11.333 1.33301 -22.666 3.33301 -33.999 6
s-23.666 6.66699 -36.999 12v1zM145.999 369v-278.001c9.33301 -4.66699 18.666 -8.5 27.999 -11.5s18.666 -5.5 27.999 -7.5c4.66699 -0.666992 9.33398 -1.16699 14.001 -1.5s9.33398 -0.5 14.001 -0.5c41.333 0 75.5 14.333 102.5 43s40.5 64.667 40.5 108
c0 46.667 -12.167 82.834 -36.5 108.501s-60.833 38.5 -109.5 38.5l-81 1v0z" />
    <glyph glyph-name="Egrave" unicode="&#xff;" horiz-adv-x="438" 
d="M438 449l-318 -679h-99l153 326l-174 353h101l121 -253l116 253h100v0zM127 628c13.333 -0.666992 24.333 -5.33301 33 -14s13 -19.667 13 -33c0 -12.667 -4.33301 -23.667 -13 -33s-19.667 -14 -33 -14c-12.667 0 -23.667 4.66699 -33 14s-14 20.333 -14 33
c0 13.333 4.66699 24.333 14 33s20.333 13 33 13v1zM313 628.001c13.333 -0.666992 24.333 -5.33301 33 -14s13 -19.667 13 -33c0 -12.667 -4.33301 -23.667 -13 -33s-19.667 -14 -33 -14c-12.667 0 -23.667 4.66699 -33 14s-14 20.333 -14 33
c0 13.333 4.66699 24.333 14 33s20.333 13 33 13v1z" />
    <glyph glyph-name="Abreve" unicode="&#x102;" 
 />
    <glyph glyph-name="abreve" unicode="&#x103;" 
 />
    <glyph glyph-name="Aogonek" unicode="&#x104;" 
 />
    <glyph glyph-name="aogonek" unicode="&#x105;" 
 />
    <glyph glyph-name="Cacute" unicode="&#x106;" 
 />
    <glyph glyph-name="cacute" unicode="&#x107;" 
 />
    <glyph glyph-name="Ccaron" unicode="&#x10c;" 
 />
    <glyph glyph-name="ccaron" unicode="&#x10d;" 
 />
    <glyph glyph-name="Dcaron" unicode="&#x10e;" 
 />
    <glyph glyph-name="dcaron" unicode="&#x10f;" 
 />
    <glyph glyph-name="Dcroat" unicode="&#x110;" 
 />
    <glyph glyph-name="dcroat" unicode="&#x111;" 
 />
    <glyph glyph-name="Eogonek" unicode="&#x118;" 
 />
    <glyph glyph-name="eogonek" unicode="&#x119;" 
 />
    <glyph glyph-name="Ecaron" unicode="&#x11a;" 
 />
    <glyph glyph-name="ecaron" unicode="&#x11b;" 
 />
    <glyph glyph-name="Gbreve" unicode="&#x11e;" 
 />
    <glyph glyph-name="gbreve" unicode="&#x11f;" 
 />
    <glyph glyph-name="Idotaccent" unicode="&#x130;" 
 />
    <glyph glyph-name="thorn" unicode="&#x131;" horiz-adv-x="219" 
d="M154 449v-449h-89v449h89v0z" />
    <glyph glyph-name="Lacute" unicode="&#x139;" 
 />
    <glyph glyph-name="lacute" unicode="&#x13a;" 
 />
    <glyph glyph-name="Lcaron" unicode="&#x13d;" 
 />
    <glyph glyph-name="lcaron" unicode="&#x13e;" 
 />
    <glyph glyph-name="Ldot" unicode="&#x13f;" 
 />
    <glyph glyph-name="ldot" unicode="&#x140;" 
 />
    <glyph glyph-name="glyph225" unicode="&#x141;" horiz-adv-x="490" 
d="M310 536v-88l-138 -114v-246h308v-88h-406v263l-89 -73v88l89 73v331h98v-260l138 114v0z" />
    <glyph glyph-name="glyph226" unicode="&#x142;" horiz-adv-x="219" 
d="M233 482v-78l-79 -64v-340h-89v276l-79 -64v78l79 64v328h89v-264l79 64v0z" />
    <glyph glyph-name="Nacute" unicode="&#x143;" 
 />
    <glyph glyph-name="nacute" unicode="&#x144;" 
 />
    <glyph glyph-name="Ncaron" unicode="&#x147;" 
 />
    <glyph glyph-name="ncaron" unicode="&#x148;" 
 />
    <glyph glyph-name="Ohungarumlaut" unicode="&#x150;" 
 />
    <glyph glyph-name="ohungarumlaut" unicode="&#x151;" 
 />
    <glyph glyph-name="fi" unicode="&#x152;" horiz-adv-x="917" 
d="M875 682v-87.999h-279v-205h269v-88h-269v-213h290v-88h-444c-110.667 0 -204.167 30.5 -280.5 91.5s-114.5 143.5 -114.5 247.5c0 101.333 35.833 183.666 107.5 246.999s164.5 95 278.5 95l442 1v0zM498 85.001v512h-57c-96.667 -0.666992 -169.667 -27.167 -219 -79.5
s-74 -111.5 -74 -177.5c0 -72.667 27 -133.5 81 -182.5s121 -73.5 201 -73.5l68 1v0z" />
    <glyph glyph-name="fl" unicode="&#x153;" horiz-adv-x="833" 
d="M798 129l0.000976562 -90.001c-18.667 -12.667 -40 -23.834 -64 -33.501s-56.667 -14.5 -98 -14.5c-36.667 0 -69.334 7.5 -98.001 22.5s-51.667 36.833 -69 65.5c-23.333 -28.667 -51.666 -50.5 -84.999 -65.5s-70 -22.5 -110 -22.5
c-65.333 0 -121.5 21.833 -168.5 65.5s-70.5 95.834 -70.5 156.501c0 72 22.667 130.667 68 176s104.333 68 177 68c40.667 0 76.167 -7.5 106.5 -22.5s57.833 -38.5 82.5 -70.5c18 30.667 41 53.834 69 69.501s58.667 23.5 92 23.5c43.333 0 82 -16.667 116 -50
s50.667 -83 50 -149v-4v-4v-4v-4l-280 1v-5.5v-4.5c-0.666992 -2 -1 -3.83301 -1 -5.5v-4.5c0.666992 -46.667 14.167 -83.834 40.5 -111.501s59.5 -41.5 99.5 -41.5c11.333 0 22.166 0.833008 32.499 2.5s20.833 4.5 31.5 8.5c12.667 4.66699 25.5 10.834 38.5 18.501
s26.5 17.167 40.5 28.5v1zM278.001 377.999c-44.667 -0.666992 -81.167 -16.333 -109.5 -47s-42.5 -68.667 -42.5 -114c0 -39.333 14.5 -73.666 43.5 -102.999s64.167 -44 105.5 -44c45.333 0 81.333 14.667 108 44s40 66.666 40 111.999c0 40.667 -13.833 76 -41.5 106
s-62.167 45 -103.5 45v1zM525.001 302h183.001c-2.66699 24 -10.834 42.5 -24.501 55.5s-33.167 19.5 -58.5 19.5c-24.667 0 -45.5 -6.33301 -62.5 -19s-29.5 -31.667 -37.5 -57v1z" />
    <glyph glyph-name="Racute" unicode="&#x154;" 
 />
    <glyph glyph-name="racute" unicode="&#x155;" 
 />
    <glyph glyph-name="Rcaron" unicode="&#x158;" 
 />
    <glyph glyph-name="rcaron" unicode="&#x159;" 
 />
    <glyph glyph-name="Sacute" unicode="&#x15a;" 
 />
    <glyph glyph-name="sacute" unicode="&#x15b;" 
 />
    <glyph glyph-name="Scedilla" unicode="&#x15e;" 
 />
    <glyph glyph-name="scedilla" unicode="&#x15f;" 
 />
    <glyph glyph-name="glyph227" unicode="&#x160;" horiz-adv-x="458" 
d="M399 643l-0.00390625 -111c-28.667 26.667 -56.667 45 -84 55s-52.666 15 -75.999 15c-31.333 0 -57.166 -7.5 -77.499 -22.5s-30.5 -34.5 -30.5 -58.5c0 -24.667 9.16699 -45.5 27.5 -62.5s40.833 -33.167 67.5 -48.5l25.5 -14.5l27.5 -15.5
c36.667 -21.333 70.334 -47.333 101.001 -78s46 -73 46 -127c0 -53.333 -18 -97.333 -54 -132s-81.667 -52 -137 -52c-36.667 0 -70.5 5 -101.5 15s-60.833 25.667 -89.5 47v125c25.333 -32.667 53.333 -57.5 84 -74.5s62.667 -25.5 96 -25.5
c31.333 0 55.833 6.83301 73.5 20.5s29.167 28.834 34.5 45.501l2 10c0.666992 3.33301 1 6.66602 1 9.99902c0 30 -11.333 55.167 -34 75.5s-49 39.833 -79 58.5c-6 3.33301 -11.833 6.83301 -17.5 10.5l-16.5 10.5c-37.333 22.667 -71.333 48.167 -102 76.5
s-46 65.833 -46 112.5c0 55.333 18.833 99.5 56.5 132.5s87.834 49.5 150.501 49.5c26 0 51.833 -4 77.5 -12s50.5 -20 74.5 -36v1zM274.996 727h-93l-91 151h53l83 -87l87 87h55l-94 -151v0z" />
    <glyph glyph-name="glyph228" unicode="&#x161;" horiz-adv-x="385" 
d="M324 421l0.000976562 -88c-24.667 16 -48.334 27.667 -71.001 35s-42.334 11 -59.001 11c-18 0 -32.333 -3.83301 -43 -11.5s-16 -17.5 -16 -29.5c0 -10 8.33301 -21.667 25 -35s44.667 -31.666 84 -54.999c20 -13.333 36.833 -25.5 50.5 -36.5
s24.167 -21.833 31.5 -32.5c6.66699 -9.33301 11.5 -18.5 14.5 -27.5s4.5 -18.833 4.5 -29.5c0 -39.333 -14 -71 -42 -95s-63.333 -36 -106 -36c-12 0 -23.667 0.5 -35 1.5s-22.666 2.83301 -33.999 5.5c-13.333 2.66699 -27.166 6.83398 -41.499 12.501
s-29.5 12.5 -45.5 20.5v97c29.333 -20.667 56.666 -35.834 81.999 -45.501s47 -14.5 65 -14.5c18 1.33301 33.5 6.16602 46.5 14.499s19.5 20.5 19.5 36.5c0 8 -3 15.333 -9 22s-13.667 13.667 -23 21c-10 6.66699 -21.333 13.5 -34 20.5l-39 22.5
c-26 15.333 -50 33.333 -72 54s-33 46 -33 76c0 38 13.5 67.833 40.5 89.5s62.833 32.5 107.5 32.5c21.333 0 42.833 -3 64.5 -9s44.167 -15.333 67.5 -28v1zM238.001 507h-93l-91 151h53l83 -87l87 87h55l-94 -151v0z" />
    <glyph glyph-name="Tcommaaccent" unicode="&#x162;" 
 />
    <glyph glyph-name="tcommaaccent" unicode="&#x163;" 
 />
    <glyph glyph-name="Tcaron" unicode="&#x164;" 
 />
    <glyph glyph-name="tcaron" unicode="&#x165;" 
 />
    <glyph glyph-name="Uring" unicode="&#x16e;" 
 />
    <glyph glyph-name="uring" unicode="&#x16f;" 
 />
    <glyph glyph-name="Uhungarumlaut" unicode="&#x170;" 
 />
    <glyph glyph-name="uhungarumlaut" unicode="&#x171;" 
 />
    <glyph glyph-name="Iacute" unicode="&#x178;" horiz-adv-x="604" 
d="M301 447l185 235h118l-253 -322v-360h-98v361l-253 321h118l183 -235v0zM210 848c13.333 -0.666992 24.333 -5.33301 33 -14s13 -19.667 13 -33c0 -12.667 -4.33301 -23.667 -13 -33s-19.667 -14 -33 -14c-12.667 0 -23.667 4.66699 -33 14s-14 20.333 -14 33
c0 13.333 4.66699 24.333 14 33s20.333 13 33 13v1zM396 848.001c13.333 -0.666992 24.333 -5.33301 33 -14s13 -19.667 13 -33c0 -12.667 -4.33301 -23.667 -13 -33s-19.667 -14 -33 -14c-12.667 0 -23.667 4.66699 -33 14s-14 20.333 -14 33
c0 13.333 4.66699 24.333 14 33s20.333 13 33 13v1z" />
    <glyph glyph-name="Zacute" unicode="&#x179;" 
 />
    <glyph glyph-name="zacute" unicode="&#x17a;" 
 />
    <glyph glyph-name="Zdotaccent" unicode="&#x17b;" 
 />
    <glyph glyph-name="zdotaccent" unicode="&#x17c;" 
 />
    <glyph glyph-name="Zcaron" unicode="&#x17d;" 
 />
    <glyph glyph-name="zcaron" unicode="&#x17e;" 
 />
    <glyph glyph-name="quotedblright" unicode="&#x192;" horiz-adv-x="552" 
d="M23 -198l17.002 76c17.333 -4 31.833 -6.83301 43.5 -8.5s22.167 -2.5 31.5 -2.5c16.667 0 29.667 4.66699 39 14s15.666 24.333 18.999 45l90 524h-98l11 68h99l14 85c7.33301 44 22.666 75.833 45.999 95.5s54.666 29.5 93.999 29.5c14 0 28.833 -1.5 44.5 -4.5
s34.5 -7.83301 56.5 -14.5l-17 -74l-36.5 8c-9 2 -17.5 3.33301 -25.5 4c-2.66699 0.666992 -5.33398 1 -8.00098 1h-8c-20 0 -34 -6.5 -42 -19.5s-14.333 -33.167 -19 -60.5l-9 -50h99l-12 -68h-100l-93 -533c-8 -46.667 -21.833 -79.5 -41.5 -98.5
s-49.167 -28.5 -88.5 -28.5c-12.667 0 -27.5 0.833008 -44.5 2.5s-34.833 4.16699 -53.5 7.5c-1.33301 0.666992 -2.66602 1.16699 -3.99902 1.5s-2.66602 0.5 -3.99902 0.5v0z" />
    <glyph glyph-name="uni02BA" unicode="&#x2ba;" horiz-adv-x="333" 
d="M69 654h100l-112 -147h-55l67 147v0zM229 654h100l-112 -147h-55l67 147v0z" />
    <glyph glyph-name="arrowright" unicode="&#x2c6;" horiz-adv-x="333" 
d="M275 643l38.001 0.000976562c0 -36 -7.33301 -64.833 -22 -86.5s-33.667 -32.5 -57 -32.5c-14 0 -26.833 1.83301 -38.5 5.5s-22.834 7.83398 -33.501 12.501c-3.33301 0.666992 -6.66602 1.66699 -9.99902 3s-6.33301 2.66602 -9 3.99902c-8 2.66699 -15.833 5 -23.5 7
s-15.834 3 -24.501 3c-10 0 -17.833 -3 -23.5 -9s-9.16699 -14.667 -10.5 -26l-41 1c2.66699 36 10.667 64 24 84s31.333 30 54 30c6.66699 0 13.5 -0.5 20.5 -1.5s14.167 -2.5 21.5 -4.5c6 -2 12 -3.83301 18 -5.5s12 -3.5 18 -5.5
c12.667 -4.66699 24.5 -8.83398 35.5 -12.501s20.167 -5.5 27.5 -5.5c10 0 18 3 24 9s10 15.667 12 29v1z" />
    <glyph glyph-name="glyph224" unicode="&#x2c7;" horiz-adv-x="333" 
d="M212 507h-93l-91 151h53l83 -87l87 87h55l-94 -151v0z" />
    <glyph glyph-name="house" unicode="&#x2c9;" horiz-adv-x="333" 
d="M332 615v-73h-331v73h331v0z" />
    <glyph glyph-name="endash" unicode="&#x2d8;" horiz-adv-x="333" 
d="M240 643h67.9971c-7.33301 -42 -23.166 -74.167 -47.499 -96.5s-55.166 -33.5 -92.499 -33.5c-38.667 0 -70.334 11.167 -95.001 33.5s-40.667 54.166 -48 95.499l67 1c5.33301 -21.333 14.333 -37.166 27 -47.499s29.334 -15.5 50.001 -15.5c19.333 0 34.833 5 46.5 15
s19.834 25.667 24.501 47v1z" />
    <glyph glyph-name="sfthyphen" unicode="&#x2d9;" horiz-adv-x="333" 
d="M167 628c13.333 -0.666992 24.333 -5.33301 33 -14s13 -19.667 13 -33c0 -12.667 -4.33301 -23.667 -13 -33s-19.667 -14 -33 -14c-12.667 0 -23.667 4.66699 -33 14s-14 20.333 -14 33c0 13.333 4.66699 24.333 14 33s20.333 13 33 13v1z" />
    <glyph glyph-name="filledbox" unicode="&#x2da;" horiz-adv-x="333" 
d="M167 691c25.333 -0.666992 47.166 -10.167 65.499 -28.5s27.5 -40.166 27.5 -65.499s-9.16699 -47.166 -27.5 -65.499s-40.166 -27.5 -65.499 -27.5s-47.166 9.16699 -65.499 27.5s-27.5 40.166 -27.5 65.499s9.16699 47.166 27.5 65.499s40.166 27.5 65.499 27.5v1z
M167 653c-14.667 -0.666992 -27.5 -6.33301 -38.5 -17s-16.5 -23.667 -16.5 -39c0 -14.667 5.5 -27.5 16.5 -38.5s23.833 -16.5 38.5 -16.5c15.333 0 28.333 5.5 39 16.5s16 23.833 16 38.5c0 15.333 -5.33301 28.333 -16 39s-23.667 16 -39 16v1z" />
    <glyph glyph-name="glyph223" unicode="&#x2db;" horiz-adv-x="333" 
d="M266 -96l-0.00292969 -67l-17.5 -7c-5 -2 -9.83301 -3.33301 -14.5 -4c-5.33301 -1.33301 -11.166 -2.33301 -17.499 -3s-14.166 -1 -23.499 -1c-29.333 0 -53.5 8.83301 -72.5 26.5s-28.5 40.167 -28.5 67.5c0 10.667 1.5 21.167 4.5 31.5s7.83301 20.5 14.5 30.5
c3.33301 5.33301 7.16602 10.333 11.499 15l13.5 15l67 1c-1.33301 -2 -2.66602 -3.83301 -3.99902 -5.5s-2.33301 -3.16699 -3 -4.5c-9.33301 -12 -16.333 -23.5 -21 -34.5s-7 -19.5 -7 -25.5c0 -12.667 5 -23.5 15 -32.5s22 -13.5 36 -13.5
c2.66699 0 7.33398 0.833008 14.001 2.5l21 5.5c0.666992 0 1.33398 0.166992 2.00098 0.5s1.33398 0.5 2.00098 0.5c1.33301 0 2.66602 0.166992 3.99902 0.5s2.66602 0.833008 3.99902 1.5v0z" />
    <glyph glyph-name="onehalf" unicode="&#x2dc;" horiz-adv-x="333" 
d="M212 657l94 -151h-55l-87 87l-83 -87h-53l91 151h93v0z" />
    <glyph glyph-name="Gamma" unicode="&#x393;" 
 />
    <glyph glyph-name="Theta" unicode="&#x398;" 
 />
    <glyph glyph-name="exclamdown" unicode="&#x3a3;" 
 />
    <glyph glyph-name="Phi" unicode="&#x3a6;" 
 />
    <glyph glyph-name="Atilde" unicode="&#x3a9;" 
 />
    <glyph glyph-name="alpha" unicode="&#x3b1;" 
 />
    <glyph glyph-name="delta" unicode="&#x3b4;" 
 />
    <glyph glyph-name="epsilon" unicode="&#x3b5;" 
 />
    <glyph glyph-name="guillemotleft" unicode="&#x3c0;" 
 />
    <glyph glyph-name="sigma" unicode="&#x3c3;" 
 />
    <glyph glyph-name="tau" unicode="&#x3c4;" 
 />
    <glyph glyph-name="phi" unicode="&#x3c6;" 
 />
    <glyph glyph-name="glyph259" unicode="&#x2013;" horiz-adv-x="500" 
d="M509 285v-64h-518v64h518v0z" />
    <glyph glyph-name="periodcentered" unicode="&#x2014;" horiz-adv-x="1000" 
d="M1009 285v-64h-1018v64h1018v0z" />
    <glyph glyph-name="underscoredbl" unicode="&#x2017;" 
 />
    <glyph glyph-name="Acircumflex" unicode="&#x2018;" horiz-adv-x="219" 
d="M160 691l-0.00292969 -19l-13 -13c-4 -4 -7.33301 -8.33301 -10 -13c-7.33301 -10 -12.166 -20.167 -14.499 -30.5s-3.5 -21.166 -3.5 -32.499v-4.5c0 -1.66699 0.333008 -3.16699 1 -4.5v-4.5v-5.5c16 -2 28.833 -8.33301 38.5 -19s14.5 -24 14.5 -40
c0 -20 -5.66699 -35.167 -17 -45.5s-25.666 -15.5 -42.999 -15.5c-20.667 0 -37 9.16699 -49 27.5s-18 40.166 -18 65.499c0 37.333 9.83301 69.5 29.5 96.5s47.834 45.833 84.501 56.5v1z" />
    <glyph glyph-name="Ecircumflex" unicode="&#x2019;" horiz-adv-x="219" 
d="M59 445l-0.000976562 19c4.66699 3.33301 9 7 13 11s7.33301 8.33301 10 13c7.33301 10 12.166 20.167 14.499 30.5s3.5 21.166 3.5 32.499v4.5v4.5c-0.666992 1.33301 -1 2.83301 -1 4.5v5.5c-16 2 -28.833 8.33301 -38.5 19s-14.5 24 -14.5 40
c0 20 5.83301 35.167 17.5 45.5s25.834 15.5 42.501 15.5c20.667 0 37 -9.16699 49 -27.5s18 -40.166 18 -65.499c0 -36.667 -9.66699 -68.5 -29 -95.5s-47.666 -46.167 -84.999 -57.5v1z" />
    <glyph glyph-name="Ugrave" unicode="&#x201a;" 
 />
    <glyph glyph-name="quotedblbase" unicode="&#x201c;" horiz-adv-x="427" 
d="M155 691l-0.00292969 -19l-13 -13c-4 -4 -7.33301 -8.33301 -10 -13c-7.33301 -10 -12.166 -20.167 -14.499 -30.5s-3.5 -21.166 -3.5 -32.499v-4.5c0 -1.66699 0.333008 -3.16699 1 -4.5v-4.5v-5.5c16 -2 28.833 -8.33301 38.5 -19s14.5 -24 14.5 -40
c0 -20 -5.66699 -35.167 -17 -45.5s-25.666 -15.5 -42.999 -15.5c-20.667 0 -37 9.16699 -49 27.5s-18 40.166 -18 65.499c0 37.333 9.83301 69.5 29.5 96.5s47.834 45.833 84.501 56.5v1zM372.997 691l-0.00292969 -19l-13 -13c-4 -4 -7.33301 -8.33301 -10 -13
c-7.33301 -10 -12.166 -20.167 -14.499 -30.5s-3.5 -21.166 -3.5 -32.499v-4.5c0 -1.66699 0.333008 -3.16699 1 -4.5v-4.5v-5.5c16 -2 28.833 -8.33301 38.5 -19s14.5 -24 14.5 -40c0 -20 -5.66699 -35.167 -17 -45.5s-25.666 -15.5 -42.999 -15.5
c-20.667 0 -37 9.16699 -49 27.5s-18 40.166 -18 65.499c0 37.333 9.83301 69.5 29.5 96.5s47.834 45.833 84.501 56.5v1z" />
    <glyph glyph-name="perthousand" unicode="&#x201d;" horiz-adv-x="427" 
d="M54 445l-0.000976562 19c4.66699 3.33301 9 7 13 11s7.33301 8.33301 10 13c7.33301 10 12.166 20.167 14.499 30.5s3.5 21.166 3.5 32.499v4.5v4.5c-0.666992 1.33301 -1 2.83301 -1 4.5v5.5c-16 2 -28.833 8.33301 -38.5 19s-14.5 24 -14.5 40
c0 20 5.83301 35.167 17.5 45.5s25.834 15.5 42.501 15.5c20.667 0 37 -9.16699 49 -27.5s18 -40.166 18 -65.499c0 -36.667 -9.66699 -68.5 -29 -95.5s-47.666 -46.167 -84.999 -57.5v1zM271.999 445l-0.000976562 19c4.66699 3.33301 9 7 13 11s7.33301 8.33301 10 13
c7.33301 10 12.166 20.167 14.499 30.5s3.5 21.166 3.5 32.499v4.5v4.5c-0.666992 1.33301 -1 2.83301 -1 4.5v5.5c-16 2 -28.833 8.33301 -38.5 19s-14.5 24 -14.5 40c0 20 5.83301 35.167 17.5 45.5s25.834 15.5 42.501 15.5c20.667 0 37 -9.16699 49 -27.5
s18 -40.166 18 -65.499c0 -36.667 -9.66699 -68.5 -29 -95.5s-47.666 -46.167 -84.999 -57.5v1z" />
    <glyph glyph-name="dotlessi" unicode="&#x201e;" horiz-adv-x="427" 
d="M64 -115l-0.000976562 19c4.66699 4 9 8 13 12s7.33301 8.33301 10 13c7.33301 10 12.166 20.167 14.499 30.5s3.5 21.166 3.5 32.499v4.5v3.5c-0.666992 1.33301 -1 2.83301 -1 4.5v5.5c-16 2 -28.833 8.33301 -38.5 19s-14.5 24 -14.5 40
c0 20 5.83301 35.167 17.5 45.5s25.834 15.5 42.501 15.5c20.667 0 37 -9.16699 49 -27.5s18 -40.166 18 -65.499c0 -36.667 -9.66699 -68.5 -29 -95.5s-47.666 -45.833 -84.999 -56.5v0zM282.999 -115l-0.000976562 19c4.66699 4 9 8 13 12s7.33301 8.33301 10 13
c7.33301 10 12.166 20.167 14.499 30.5s3.5 21.166 3.5 32.499v4.5v3.5c-0.666992 1.33301 -1 2.83301 -1 4.5v5.5c-16 2 -28.833 8.33301 -38.5 19s-14.5 24 -14.5 40c0 20 5.83301 35.167 17.5 45.5s25.834 15.5 42.501 15.5c20.667 0 37 -9.16699 49 -27.5
s18 -40.166 18 -65.499c0 -36.667 -9.66699 -68.5 -29 -95.5s-47.666 -45.833 -84.999 -56.5v0z" />
    <glyph glyph-name="dagger" unicode="&#x2020;" horiz-adv-x="490" 
d="M249 691c14.667 -0.666992 25.833 -9.16797 33.5 -25.501s11.5 -39.5 11.5 -69.5c0 -12.667 -1 -26.834 -3 -42.501s-4.66699 -31.5 -8 -47.5c-0.666992 -5.33301 -1.5 -10.5 -2.5 -15.5s-2.16699 -10.167 -3.5 -15.5c-2 -11.333 -4.16699 -22.333 -6.5 -33
s-4.16602 -20.334 -5.49902 -29.001c23.333 8 45.333 14.333 66 19s41 7 61 7c2.66699 0 5.5 -0.166992 8.5 -0.5s6.16699 -0.5 9.5 -0.5c13.333 -2 25.5 -6.5 36.5 -13.5s16.5 -16.833 16.5 -29.5c0 -14.667 -6.16699 -25.667 -18.5 -33s-25.833 -11.666 -40.5 -12.999h-4
h-4c-9.33301 0 -19.5 0.833008 -30.5 2.5s-22.5 3.83398 -34.5 6.50098l-16.5 4l-16.5 4c-6 1.33301 -11.833 2.83301 -17.5 4.5s-11.167 3.16699 -16.5 4.5l6.5 -69.5l7.5 -80.5c0.666992 -12 1.5 -24 2.5 -36s2.16699 -24 3.5 -36
c3.33301 -41.333 6.16602 -81.333 8.49902 -120s3.5 -72.334 3.5 -101.001c0 -44 -3 -82 -9 -114s-20.333 -48 -43 -48s-37.167 12.5 -43.5 37.5s-9.5 60.167 -9.5 105.5c0 26 1.16699 59.667 3.5 101s5.5 84.333 9.5 129c0.666992 14 1.66699 28.167 3 42.5l4 41.5
l7.5 83.5c2.33301 25.667 4.5 47.167 6.5 64.5c-2 -0.666992 -4.33301 -1.33398 -7 -2.00098s-5 -1.66699 -7 -3c-8.66699 -2 -17.5 -4.33301 -26.5 -7s-18.167 -5 -27.5 -7c-10 -2 -20 -3.66699 -30 -5s-19.667 -2 -29 -2h-7.5c-2.33301 0 -4.83301 0.333008 -7.5 1
c-14 1.33301 -26.833 5.33301 -38.5 12s-17.5 16.667 -17.5 30c0 12 5.16699 22.833 15.5 32.5s29.5 14.5 57.5 14.5c8.66699 0 18 -0.666992 28 -2s20.333 -3 31 -5c11.333 -2.66699 22.833 -5.66699 34.5 -9s22.167 -6.66602 31.5 -9.99902l-4 18l-4 18
c-1.33301 6.66699 -2.5 13.334 -3.5 20.001s-2.16699 13.334 -3.5 20.001c-4 19.333 -7.16699 38.333 -9.5 57s-3.5 35 -3.5 49c0 29.333 4 52.5 12 69.5s21.333 25.5 40 25.5v1z" />
    <glyph glyph-name="Uacute" unicode="&#x2021;" horiz-adv-x="490" 
d="M244 691c17.333 -0.666992 29.5 -8.49609 36.5 -23.4961s10.833 -31.5 11.5 -49.5c0.666992 -3.33301 1 -6.5 1 -9.5v-8.5c0 -10.667 -1 -23.167 -3 -37.5s-4.33301 -29.166 -7 -44.499l-4 -16.5c-1.33301 -5.66699 -2.33301 -11.167 -3 -16.5
c-2.66699 -9.33301 -5 -18.333 -7 -27s-3.66699 -16.334 -5 -23.001c2 0.666992 4.16699 1.33398 6.5 2.00098s4.83301 1.66699 7.5 3c8 2.66699 16.667 5.33398 26 8.00098s19 5 29 7c10.667 2 21.334 3.83301 32.001 5.5s20.667 2.5 30 2.5c17.333 0 33 -3.5 47 -10.5
s21 -19.167 21 -36.5c0 -12.667 -5.5 -22.334 -16.5 -29.001s-23.167 -11 -36.5 -13c-3.33301 0 -6.5 -0.166992 -9.5 -0.5s-6.16699 -0.5 -9.5 -0.5c-9.33301 0 -19.166 0.833008 -29.499 2.5s-20.833 3.5 -31.5 5.5c-6 1.33301 -12 2.83301 -18 4.5s-12 3.16699 -18 4.5
l-15.5 4l-14.5 4c0 -11.333 0.833008 -24.166 2.5 -38.499s3.5 -29.166 5.5 -44.499c2 -14.667 3.83301 -29.334 5.5 -44.001s2.5 -28 2.5 -40c0 -12.667 -0.833008 -26.334 -2.5 -41.001s-3.5 -29.334 -5.5 -44.001c-2 -15.333 -3.83301 -30.333 -5.5 -45
s-2.5 -28.334 -2.5 -41.001l6 2c2 0.666992 4.33301 1.66699 7 3l24.5 6.5c9 2.33301 18.167 4.5 27.5 6.5c12 2.66699 23.5 4.66699 34.5 6s20.5 2 28.5 2c2.66699 0 5.5 -0.166992 8.5 -0.5s6.16699 -0.5 9.5 -0.5c13.333 -2 25.5 -6.5 36.5 -13.5
s16.5 -16.833 16.5 -29.5c0 -18 -7.16699 -30 -21.5 -36s-30.5 -9 -48.5 -9c-8.66699 0 -18.334 0.666992 -29.001 2s-21.667 3 -33 5c-9.33301 2.66699 -18.666 5.16699 -27.999 7.5s-18 4.83301 -26 7.5c-2 1.33301 -4.16699 2.33301 -6.5 3s-4.5 1.33398 -6.5 2.00098
c1.33301 -5.33301 3 -11.5 5 -18.5s3.66699 -14.5 5 -22.5c2 -6 3.66699 -12.5 5 -19.5l4 -20.5c2.66699 -15.333 5 -30.166 7 -44.499s3 -26.5 3 -36.5v-11.5c0 -3.66699 -0.333008 -7.5 -1 -11.5c-1.33301 -17.333 -5.5 -33.166 -12.5 -47.499s-18.5 -21.5 -34.5 -21.5
s-27.5 7 -34.5 21s-11.167 29.333 -12.5 46c-0.666992 4 -1 7.83301 -1 11.5v10.5c0 12 0.833008 24.667 2.5 38s3.83398 26.666 6.50098 39.999c2 11.333 4.16699 22.333 6.5 33s4.83301 20.667 7.5 30c0.666992 4 1.5 8 2.5 12s2.16699 8 3.5 12
c-2 -0.666992 -4.16699 -1.33398 -6.5 -2.00098s-4.83301 -1.66699 -7.5 -3c-8 -2.66699 -16.833 -5.33398 -26.5 -8.00098s-19.167 -5 -28.5 -7c-11.333 -2 -22.333 -3.66699 -33 -5s-20.667 -2 -30 -2c-17.333 0 -32.833 3.16699 -46.5 9.5s-20.5 18.166 -20.5 35.499
c0 13.333 5.66699 23.333 17 30s24 11 38 13c3.33301 0 6.5 0.166992 9.5 0.5s5.83301 0.5 8.5 0.5c7.33301 0 16.666 -0.833008 27.999 -2.5s22.666 -3.83398 33.999 -6.50098c5.33301 -0.666992 10.333 -1.66699 15 -3s9.33398 -2.33301 14.001 -3l19 -5.5l16 -4.5
c-0.666992 7.33301 -1.83398 19 -3.50098 35l-5.5 51c0 3.33301 -0.166992 6.83301 -0.5 10.5s-0.833008 7.16699 -1.5 10.5c-1.33301 14 -2.5 27 -3.5 39s-1.5 20.667 -1.5 26c0 11.333 0.833008 24.166 2.5 38.499s3.5 29.166 5.5 44.499v1v2
c2 14.667 3.83301 28.834 5.5 42.501s2.5 25.834 2.5 36.501c-3.33301 -0.666992 -6.66602 -1.5 -9.99902 -2.5s-7 -2.16699 -11 -3.5l-23 -6l-24 -6c-10.667 -2 -21 -3.66699 -31 -5s-19.667 -2 -29 -2c-2.66699 0 -5.5 0.166992 -8.5 0.5s-6.16699 0.5 -9.5 0.5
c-13.333 2 -25.5 6.33301 -36.5 13s-16.5 16.334 -16.5 29.001c0 18.667 7.16699 31.167 21.5 37.5s30.833 9.5 49.5 9.5c7.33301 0 16.666 -0.833008 27.999 -2.5s23 -3.83398 35 -6.50098c9.33301 -2 18.333 -4.16699 27 -6.5s16.334 -4.83301 23.001 -7.5
c3.33301 -0.666992 6.33301 -1.5 9 -2.5s5 -2.16699 7 -3.5c-0.666992 2.66699 -1.5 5.16699 -2.5 7.5s-1.83301 5.16602 -2.5 8.49902c-2.66699 10 -5.33398 21.333 -8.00098 34l-8 38c-2.66699 16 -4.83398 31.5 -6.50098 46.5s-2.5 27.833 -2.5 38.5
c0 3.33301 0.166992 6.83301 0.5 10.5s0.5 7.16699 0.5 10.5c2 15.333 6.5 29.5 13.5 42.5s17.833 19.5 32.5 19.5v1z" />
    <glyph glyph-name="glyph262" unicode="&#x2022;" horiz-adv-x="354" 
d="M177 465c34 -0.666992 63.167 -13.167 87.5 -37.5s36.5 -53.5 36.5 -87.5s-12.167 -63.167 -36.5 -87.5s-53.5 -36.5 -87.5 -36.5s-63.167 12.167 -87.5 36.5s-36.5 53.5 -36.5 87.5s12.167 63.167 36.5 87.5s53.5 36.5 87.5 36.5v1z" />
    <glyph glyph-name="fraction" unicode="&#x2026;" horiz-adv-x="1000" 
d="M166 111c16.667 -0.666992 30.834 -6.83301 42.501 -18.5s17.5 -25.834 17.5 -42.501s-5.83301 -30.667 -17.5 -42s-25.834 -17 -42.501 -17s-30.834 5.66699 -42.501 17s-17.5 25.333 -17.5 42s5.83301 30.834 17.5 42.501s25.834 17.5 42.501 17.5v1zM500 111.001
c16.667 -0.666992 30.834 -6.83301 42.501 -18.5s17.5 -25.834 17.5 -42.501s-5.83301 -30.667 -17.5 -42s-25.834 -17 -42.501 -17s-30.834 5.66699 -42.501 17s-17.5 25.333 -17.5 42s5.83301 30.834 17.5 42.501s25.834 17.5 42.501 17.5v1zM834 111.002
c16.667 -0.666992 30.834 -6.83301 42.501 -18.5s17.5 -25.834 17.5 -42.501s-5.83301 -30.667 -17.5 -42s-25.834 -17 -42.501 -17s-30.834 5.66699 -42.501 17s-17.5 25.333 -17.5 42s5.83301 30.834 17.5 42.501s25.834 17.5 42.501 17.5v1z" />
    <glyph glyph-name="circumflex" unicode="&#x2030;" horiz-adv-x="1010" 
d="M585 691l-449 -701h-75l449 701h75v0zM482 296c41.333 -0.666992 77.166 -16 107.499 -46s45.5 -66 45.5 -108s-15.167 -77.833 -45.5 -107.5s-66.166 -44.5 -107.499 -44.5c-42 0 -78 14.667 -108 44s-45 65.333 -45 108c0 42 15 78 45 108s66 45 108 45v1zM482 222
c-21.333 -0.666992 -39.833 -8.83301 -55.5 -24.5s-23.5 -34.167 -23.5 -55.5c0 -22 7.83301 -40.667 23.5 -56s34.167 -23 55.5 -23c22 0 40.667 7.66699 56 23s23 34 23 56c0 21.333 -7.66699 39.833 -23 55.5s-34 23.5 -56 23.5v1zM845 296.001
c41.333 -0.666992 77.166 -16 107.499 -46s45.5 -66 45.5 -108s-15.167 -77.833 -45.5 -107.5s-66.166 -44.5 -107.499 -44.5c-42 0 -78 14.667 -108 44s-45 65.333 -45 108c0 42 15 78 45 108s66 45 108 45v1zM845 222.001c-21.333 -0.666992 -39.833 -8.83301 -55.5 -24.5
s-23.5 -34.167 -23.5 -55.5c0 -22 7.83301 -40.667 23.5 -56s34.167 -23 55.5 -23c22 0 40.667 7.66699 56 23s23 34 23 56c0 21.333 -7.66699 39.833 -23 55.5s-34 23.5 -56 23.5v1zM166 690.002c41.333 -0.666992 77.166 -16.001 107.499 -46.001s45.5 -66 45.5 -108
s-15.167 -78 -45.5 -108s-66.166 -45 -107.499 -45c-42 0 -78 14.833 -108 44.5s-45 65.834 -45 108.501c0 42 15 78 45 108s66 45 108 45v1zM166 616.001c-21.333 -0.666992 -39.833 -8.83301 -55.5 -24.5s-23.5 -34.167 -23.5 -55.5c0 -22 7.83301 -40.667 23.5 -56
s34.167 -23 55.5 -23c22 0 40.667 7.66699 56 23s23 34 23 56c0 21.333 -7.66699 39.833 -23 55.5s-34 23.5 -56 23.5v1z" />
    <glyph glyph-name="Igrave" unicode="&#x2039;" horiz-adv-x="313" 
d="M123 225l148 -225h-88l-147 225l147 225h88l-148 -225v0z" />
    <glyph glyph-name="Oacute" unicode="&#x203a;" horiz-adv-x="313" 
d="M190 225l-148 225h88l147 -225l-147 -225h-88l148 225v0z" />
    <glyph glyph-name="exclamdbl" unicode="&#x203c;" 
 />
    <glyph glyph-name="uni207F" unicode="&#x207f;" 
 />
    <glyph glyph-name="franc" unicode="&#x20a3;" 
 />
    <glyph glyph-name="peseta" unicode="&#x20a7;" 
 />
    <glyph glyph-name="trademark" unicode="&#x2122;" horiz-adv-x="1000" 
d="M239 318v339h-129v59h325v-59h-130v-339h-66v0zM480 318v398h98l99 -318h2l96 318h96v-398h-61v334h-2l-100 -334h-60l-105 339h-2v-339h-61v0z" />
    <glyph glyph-name="arrowleft" unicode="&#x2190;" 
 />
    <glyph glyph-name="arrowup" unicode="&#x2191;" 
 />
    <glyph glyph-name="glyph257" unicode="&#x2192;" horiz-adv-x="500" 
 />
    <glyph glyph-name="arrowdown" unicode="&#x2193;" 
 />
    <glyph glyph-name="arrowboth" unicode="&#x2194;" 
 />
    <glyph glyph-name="arrowupdn" unicode="&#x2195;" 
 />
    <glyph glyph-name="arrowupdnbse" unicode="&#x21a8;" 
 />
    <glyph glyph-name="questiondown" unicode="&#x2202;" 
 />
    <glyph glyph-name="quoteright" unicode="&#x2206;" 
 />
    <glyph glyph-name="florin" unicode="&#x220f;" 
 />
    <glyph glyph-name="minus" unicode="&#x2212;" 
 />
    <glyph glyph-name="Icircumflex" unicode="&#x2215;" horiz-adv-x="198" 
d="M360 691l-455 -718h-67l455 718h67v0z" />
    <glyph glyph-name="Ucircumflex" unicode="&#x2219;" horiz-adv-x="260" 
d="M130 405c16.667 -0.666992 30.834 -6.83301 42.501 -18.5s17.5 -25.834 17.5 -42.501s-5.83301 -30.834 -17.5 -42.501s-25.834 -17.5 -42.501 -17.5s-30.834 5.83301 -42.501 17.5s-17.5 25.834 -17.5 42.501s5.83301 30.834 17.5 42.501s25.834 17.5 42.501 17.5v1z
" />
    <glyph glyph-name="quotedblleft" unicode="&#x221a;" 
 />
    <glyph glyph-name="yen" unicode="&#x221e;" 
 />
    <glyph glyph-name="orthogonal" unicode="&#x221f;" 
 />
    <glyph glyph-name="intersection" unicode="&#x2229;" 
 />
    <glyph glyph-name="guillemotright" unicode="&#x222b;" 
 />
    <glyph glyph-name="quoteleft" unicode="&#x2248;" 
 />
    <glyph glyph-name="AE" unicode="&#x2260;" 
 />
    <glyph glyph-name="equivalence" unicode="&#x2261;" 
 />
    <glyph glyph-name="ordfeminine" unicode="&#x2264;" 
 />
    <glyph glyph-name="ordmasculine" unicode="&#x2265;" 
 />
    <glyph glyph-name="glyph258" unicode="&#x2302;" 
 />
    <glyph glyph-name="revlogicalnot" unicode="&#x2310;" 
 />
    <glyph glyph-name="integraltp" unicode="&#x2320;" 
 />
    <glyph glyph-name="integralbt" unicode="&#x2321;" 
 />
    <glyph glyph-name="SF100000" unicode="&#x2500;" 
 />
    <glyph glyph-name="SF110000" unicode="&#x2502;" 
 />
    <glyph glyph-name="SF010000" unicode="&#x250c;" 
 />
    <glyph glyph-name="SF030000" unicode="&#x2510;" 
 />
    <glyph glyph-name="SF020000" unicode="&#x2514;" 
 />
    <glyph glyph-name="SF040000" unicode="&#x2518;" 
 />
    <glyph glyph-name="SF080000" unicode="&#x251c;" 
 />
    <glyph glyph-name="SF090000" unicode="&#x2524;" 
 />
    <glyph glyph-name="SF060000" unicode="&#x252c;" 
 />
    <glyph glyph-name="SF070000" unicode="&#x2534;" 
 />
    <glyph glyph-name="SF050000" unicode="&#x253c;" 
 />
    <glyph glyph-name="SF430000" unicode="&#x2550;" 
 />
    <glyph glyph-name="SF240000" unicode="&#x2551;" 
 />
    <glyph glyph-name="SF510000" unicode="&#x2552;" 
 />
    <glyph glyph-name="SF520000" unicode="&#x2553;" 
 />
    <glyph glyph-name="SF390000" unicode="&#x2554;" 
 />
    <glyph glyph-name="SF220000" unicode="&#x2555;" 
 />
    <glyph glyph-name="SF210000" unicode="&#x2556;" 
 />
    <glyph glyph-name="SF250000" unicode="&#x2557;" 
 />
    <glyph glyph-name="SF500000" unicode="&#x2558;" 
 />
    <glyph glyph-name="SF490000" unicode="&#x2559;" 
 />
    <glyph glyph-name="SF380000" unicode="&#x255a;" 
 />
    <glyph glyph-name="SF280000" unicode="&#x255b;" 
 />
    <glyph glyph-name="SF270000" unicode="&#x255c;" 
 />
    <glyph glyph-name="SF260000" unicode="&#x255d;" 
 />
    <glyph glyph-name="SF360000" unicode="&#x255e;" 
 />
    <glyph glyph-name="SF370000" unicode="&#x255f;" 
 />
    <glyph glyph-name="SF420000" unicode="&#x2560;" 
 />
    <glyph glyph-name="SF190000" unicode="&#x2561;" 
 />
    <glyph glyph-name="SF200000" unicode="&#x2562;" 
 />
    <glyph glyph-name="SF230000" unicode="&#x2563;" 
 />
    <glyph glyph-name="SF470000" unicode="&#x2564;" 
 />
    <glyph glyph-name="SF480000" unicode="&#x2565;" 
 />
    <glyph glyph-name="SF410000" unicode="&#x2566;" 
 />
    <glyph glyph-name="SF450000" unicode="&#x2567;" 
 />
    <glyph glyph-name="SF460000" unicode="&#x2568;" 
 />
    <glyph glyph-name="SF400000" unicode="&#x2569;" 
 />
    <glyph glyph-name="SF540000" unicode="&#x256a;" 
 />
    <glyph glyph-name="SF530000" unicode="&#x256b;" 
 />
    <glyph glyph-name="SF440000" unicode="&#x256c;" 
 />
    <glyph glyph-name="upblock" unicode="&#x2580;" 
 />
    <glyph glyph-name="dnblock" unicode="&#x2584;" 
 />
    <glyph glyph-name="block" unicode="&#x2588;" 
 />
    <glyph glyph-name="lfblock" unicode="&#x258c;" 
 />
    <glyph glyph-name="rtblock" unicode="&#x2590;" 
 />
    <glyph glyph-name="ltshade" unicode="&#x2591;" 
 />
    <glyph glyph-name="shade" unicode="&#x2592;" 
 />
    <glyph glyph-name="dkshade" unicode="&#x2593;" 
 />
    <glyph glyph-name="glyph261" unicode="&#x25a0;" horiz-adv-x="500" 
 />
    <glyph glyph-name="filledrect" unicode="&#x25ac;" 
 />
    <glyph glyph-name="triagup" unicode="&#x25b2;" 
 />
    <glyph glyph-name="triagrt" unicode="&#x25ba;" 
 />
    <glyph glyph-name="triagdn" unicode="&#x25bc;" 
 />
    <glyph glyph-name="triaglf" unicode="&#x25c4;" 
 />
    <glyph glyph-name="Edieresis" unicode="&#x25ca;" 
 />
    <glyph glyph-name="circle" unicode="&#x25cb;" 
 />
    <glyph glyph-name="invbullet" unicode="&#x25d8;" 
 />
    <glyph glyph-name="invcircle" unicode="&#x25d9;" 
 />
    <glyph glyph-name="smileface" unicode="&#x263a;" 
 />
    <glyph glyph-name="invsmileface" unicode="&#x263b;" 
 />
    <glyph glyph-name="sun" unicode="&#x263c;" 
 />
    <glyph glyph-name="female" unicode="&#x2640;" 
 />
    <glyph glyph-name="male" unicode="&#x2642;" 
 />
    <glyph glyph-name="spade" unicode="&#x2660;" 
 />
    <glyph glyph-name="club" unicode="&#x2663;" 
 />
    <glyph glyph-name="heart" unicode="&#x2665;" 
 />
    <glyph glyph-name="diamond" unicode="&#x2666;" 
 />
    <glyph glyph-name="musicalnote" unicode="&#x266a;" 
 />
    <glyph glyph-name="musicalnotedbl" unicode="&#x266b;" 
 />
    <glyph glyph-name="Scaron" unicode="&#xf000;" 
 />
    <glyph glyph-name="Ocircumflex" unicode="&#xf001;" horiz-adv-x="500" 
d="M269 449v-75h-100v-374h-89v374h-67v75h67c-1.33301 82 14.834 142.667 48.501 182s80.834 59 141.501 59c50 0 90.167 -13 120.5 -39s46.166 -60.667 47.499 -104l-89 1c-8 21.333 -18.333 37 -31 47s-29.334 15 -50.001 15c-32.667 0 -57.5 -11.333 -74.5 -34
s-25.5 -56.667 -25.5 -102v-12.5c0 -4.33301 0.333008 -8.83301 1 -13.5l100 1v0zM438 449v-449h-89v449h89v0z" />
    <glyph glyph-name="Ograve" unicode="&#xf002;" horiz-adv-x="500" 
d="M303 682l-0.00195312 -82.001c-3.33301 2.66699 -8.66602 5 -15.999 7s-15 3 -23 3c-35.333 0 -60.333 -10.333 -75 -31s-22 -49 -22 -85v-45h100v-75h-100v-374h-89v374h-69v75h69v33c0 43.333 5.16699 77 15.5 101s24.5 45 42.5 63c14.667 14.667 31 25.667 49 33
s37.667 11 59 11c9.33301 0 18.833 -0.666992 28.5 -2s19.834 -3.66602 30.501 -6.99902v1zM435.998 681.999v-682h-89v682h89v0z" />
    <glyph glyph-name="glyph1" horiz-adv-x="0" 
 />
    <glyph glyph-name="glyph2" 
 />
    <glyph glyph-name="degree" horiz-adv-x="396" 
d="M197 728c37.333 -0.666992 69.166 -14.167 95.499 -40.5s39.5 -58.166 39.5 -95.499s-13.167 -69.166 -39.5 -95.499s-58.166 -39.5 -95.499 -39.5s-69.166 13.167 -95.499 39.5s-39.5 58.166 -39.5 95.499s13.167 69.166 39.5 95.499s58.166 39.5 95.499 39.5v1z
M197 675c-22.667 -0.666992 -42 -8.83301 -58 -24.5s-24 -35.167 -24 -58.5c0 -22.667 8 -42.167 24 -58.5s35.333 -24.5 58 -24.5c23.333 0 43 8.16699 59 24.5s24 35.833 24 58.5c0 23.333 -8 42.833 -24 58.5s-35.667 23.5 -59 23.5v1z" />
    <glyph glyph-name="bullet" horiz-adv-x="354" 
d="M177 465c34 -0.666992 63.167 -13.167 87.5 -37.5s36.5 -53.5 36.5 -87.5s-12.167 -63.167 -36.5 -87.5s-53.5 -36.5 -87.5 -36.5s-63.167 12.167 -87.5 36.5s-36.5 53.5 -36.5 87.5s12.167 63.167 36.5 87.5s53.5 36.5 87.5 36.5v1z" />
    <glyph glyph-name="daggerdbl" horiz-adv-x="500" 
d="M509 285v-64h-518v64h518v0z" />
    </font>
</defs>
</svg>
